<?xml version="1.0" encoding="UTF-8" standalone="no"?>
<!DOCTYPE svg PUBLIC "-//W3C//DTD SVG 1.1//EN"
 "http://www.w3.org/Graphics/SVG/1.1/DTD/svg11.dtd">
<!-- Generated by graphviz version 2.40.1 (20161225.0304)
 -->
<!-- Title: oneDegreeRelationshipsDiagram Pages: 1 -->
<svg width="625pt" height="382pt"
 viewBox="0.00 0.00 625.00 382.20" xmlns="http://www.w3.org/2000/svg" xmlns:xlink="http://www.w3.org/1999/xlink">
<g id="graph0" class="graph" transform="scale(1 1) rotate(0) translate(4 378.2)">
<title>oneDegreeRelationshipsDiagram</title>
<polygon fill="#ffffff" stroke="transparent" points="-4,4 -4,-378.2 621,-378.2 621,4 -4,4"/>
<text text-anchor="middle" x="72.4936" y="-7.3" font-family="Helvetica,sans-Serif" font-size="11.00" fill="#000000">Generated by SchemaSpy</text>
<!-- booking_version -->
<g id="node1" class="node">
<title>booking_version</title>
<g id="a_node1"><a xlink:href="../../tables/booking_version.html" xlink:title="booking_version" target="_top">
<polygon fill="#ffffff" stroke="transparent" points="273,-38.2 273,-370.2 609,-370.2 609,-38.2 273,-38.2"/>
<polygon fill="#f5f5f5" stroke="transparent" points="275,-345.2 275,-368.2 607,-368.2 607,-345.2 275,-345.2"/>
<polygon fill="none" stroke="#000000" points="275,-345.2 275,-368.2 607,-368.2 607,-345.2 275,-345.2"/>
<text text-anchor="start" x="280" y="-353.8" font-family="Helvetica,sans-Serif" font-weight="bold" font-size="11.00" fill="#000000">booking_version</text>
<text text-anchor="start" x="572.0437" y="-353.3" font-family="Helvetica,sans-Serif" font-size="11.00" fill="#000000">[table]</text>
<polygon fill="none" stroke="#000000" points="275,-323.2 275,-345.2 513,-345.2 513,-323.2 275,-323.2"/>
<image xlink:href="../../images/primaryKeys.png" width="11px" height="12px" preserveAspectRatio="xMinYMin meet" x="280" y="-340.2"/>
<text text-anchor="start" x="295" y="-330.3" font-family="Helvetica,sans-Serif" font-size="11.00" fill="#000000">booking_id</text>
<polygon fill="none" stroke="#000000" points="513,-323.2 513,-345.2 607,-345.2 607,-323.2 513,-323.2"/>
<text text-anchor="start" x="515.9758" y="-330.9" font-family="Helvetica,sans-Serif" font-size="11.00" fill="#000000">uuid[2147483647]</text>
<polygon fill="none" stroke="#000000" points="275,-301.2 275,-323.2 513,-323.2 513,-301.2 275,-301.2"/>
<image xlink:href="../../images/primaryKeys.png" width="11px" height="12px" preserveAspectRatio="xMinYMin meet" x="280" y="-318.2"/>
<text text-anchor="start" x="295" y="-308.3" font-family="Helvetica,sans-Serif" font-size="11.00" fill="#000000">booking_version_no</text>
<polygon fill="none" stroke="#000000" points="513,-301.2 513,-323.2 607,-323.2 607,-301.2 513,-301.2"/>
<text text-anchor="start" x="516" y="-308.9" font-family="Helvetica,sans-Serif" font-size="11.00" fill="#000000">int4[10]</text>
<polygon fill="none" stroke="#000000" points="275,-279.2 275,-301.2 513,-301.2 513,-279.2 275,-279.2"/>
<text text-anchor="start" x="295" y="-286.3" font-family="Helvetica,sans-Serif" font-size="11.00" fill="#000000">transport_request_id</text>
<polygon fill="none" stroke="#000000" points="513,-279.2 513,-301.2 607,-301.2 607,-279.2 513,-279.2"/>
<text text-anchor="start" x="515.9758" y="-286.9" font-family="Helvetica,sans-Serif" font-size="11.00" fill="#000000">uuid[2147483647]</text>
<polygon fill="none" stroke="#000000" points="275,-257.2 275,-279.2 513,-279.2 513,-257.2 275,-257.2"/>
<text text-anchor="start" x="295" y="-264.3" font-family="Helvetica,sans-Serif" font-size="11.00" fill="#000000">transport_request_version_no</text>
<polygon fill="none" stroke="#000000" points="513,-257.2 513,-279.2 607,-279.2 607,-257.2 513,-257.2"/>
<text text-anchor="start" x="516" y="-264.9" font-family="Helvetica,sans-Serif" font-size="11.00" fill="#000000">int4[10]</text>
<polygon fill="none" stroke="#000000" points="275,-235.2 275,-257.2 513,-257.2 513,-235.2 275,-235.2"/>
<text text-anchor="start" x="295" y="-242.3" font-family="Helvetica,sans-Serif" font-size="11.00" fill="#000000">quotation_id</text>
<polygon fill="none" stroke="#000000" points="513,-235.2 513,-257.2 607,-257.2 607,-235.2 513,-235.2"/>
<text text-anchor="start" x="515.9758" y="-242.9" font-family="Helvetica,sans-Serif" font-size="11.00" fill="#000000">uuid[2147483647]</text>
<polygon fill="none" stroke="#000000" points="275,-213.2 275,-235.2 513,-235.2 513,-213.2 275,-213.2"/>
<text text-anchor="start" x="295" y="-220.3" font-family="Helvetica,sans-Serif" font-size="11.00" fill="#000000">routing_case_number</text>
<polygon fill="none" stroke="#000000" points="513,-213.2 513,-235.2 607,-235.2 607,-213.2 513,-213.2"/>
<text text-anchor="start" x="516" y="-220.9" font-family="Helvetica,sans-Serif" font-size="11.00" fill="#000000">varchar[20]</text>
<polygon fill="none" stroke="#000000" points="275,-191.2 275,-213.2 513,-213.2 513,-191.2 275,-191.2"/>
<text text-anchor="start" x="295" y="-198.3" font-family="Helvetica,sans-Serif" font-size="11.00" fill="#000000">route_version_no</text>
<polygon fill="none" stroke="#000000" points="513,-191.2 513,-213.2 607,-213.2 607,-191.2 513,-191.2"/>
<text text-anchor="start" x="516" y="-198.9" font-family="Helvetica,sans-Serif" font-size="11.00" fill="#000000">int4[10]</text>
<polygon fill="none" stroke="#000000" points="275,-169.2 275,-191.2 513,-191.2 513,-169.2 275,-169.2"/>
<text text-anchor="start" x="295" y="-176.3" font-family="Helvetica,sans-Serif" font-size="11.00" fill="#000000">consignee_company_id</text>
<polygon fill="none" stroke="#000000" points="513,-169.2 513,-191.2 607,-191.2 607,-169.2 513,-169.2"/>
<text text-anchor="start" x="515.9758" y="-176.9" font-family="Helvetica,sans-Serif" font-size="11.00" fill="#000000">uuid[2147483647]</text>
<polygon fill="none" stroke="#000000" points="275,-147.2 275,-169.2 513,-169.2 513,-147.2 275,-147.2"/>
<text text-anchor="start" x="295" y="-154.3" font-family="Helvetica,sans-Serif" font-size="11.00" fill="#000000">cargo_category</text>
<polygon fill="none" stroke="#000000" points="513,-147.2 513,-169.2 607,-169.2 607,-147.2 513,-147.2"/>
<text text-anchor="start" x="516" y="-154.9" font-family="Helvetica,sans-Serif" font-size="11.00" fill="#000000">varchar[30]</text>
<polygon fill="none" stroke="#000000" points="275,-125.2 275,-147.2 513,-147.2 513,-125.2 275,-125.2"/>
<text text-anchor="start" x="295" y="-132.3" font-family="Helvetica,sans-Serif" font-size="11.00" fill="#000000">cargo_summary</text>
<polygon fill="none" stroke="#000000" points="513,-125.2 513,-147.2 607,-147.2 607,-125.2 513,-125.2"/>
<text text-anchor="start" x="516" y="-132.9" font-family="Helvetica,sans-Serif" font-size="11.00" fill="#000000">varchar[1000]</text>
<polygon fill="none" stroke="#000000" points="275,-103.2 275,-125.2 513,-125.2 513,-103.2 275,-103.2"/>
<text text-anchor="start" x="295" y="-110.3" font-family="Helvetica,sans-Serif" font-size="11.00" fill="#000000">shipper_approver_id</text>
<polygon fill="none" stroke="#000000" points="513,-103.2 513,-125.2 607,-125.2 607,-103.2 513,-103.2"/>
<text text-anchor="start" x="515.9758" y="-110.9" font-family="Helvetica,sans-Serif" font-size="11.00" fill="#000000">uuid[2147483647]</text>
<polygon fill="none" stroke="#000000" points="275,-81.2 275,-103.2 513,-103.2 513,-81.2 275,-81.2"/>
<text text-anchor="start" x="295" y="-88.3" font-family="Helvetica,sans-Serif" font-size="11.00" fill="#000000">confirmed_by</text>
<polygon fill="none" stroke="#000000" points="513,-81.2 513,-103.2 607,-103.2 607,-81.2 513,-81.2"/>
<text text-anchor="start" x="515.9758" y="-88.9" font-family="Helvetica,sans-Serif" font-size="11.00" fill="#000000">uuid[2147483647]</text>
<polygon fill="none" stroke="#000000" points="275,-59.2 275,-81.2 513,-81.2 513,-59.2 275,-59.2"/>
<text text-anchor="start" x="295" y="-66.3" font-family="Helvetica,sans-Serif" font-size="11.00" fill="#000000">committed_at</text>
<polygon fill="none" stroke="#000000" points="513,-59.2 513,-81.2 607,-81.2 607,-59.2 513,-59.2"/>
<text text-anchor="start" x="516" y="-66.9" font-family="Helvetica,sans-Serif" font-size="11.00" fill="#000000">timestamptz[35,6]</text>
<polygon fill="#ffffff" stroke="transparent" points="275,-40.2 275,-59.2 607,-59.2 607,-40.2 275,-40.2"/>
<polygon fill="none" stroke="#000000" points="275,-40.2 275,-59.2 607,-59.2 607,-40.2 275,-40.2"/>
<polygon fill="#ffffff" stroke="transparent" points="276,-41.2 276,-58.2 389,-58.2 389,-41.2 276,-41.2"/>
<text text-anchor="start" x="278" y="-46.3" font-family="Helvetica,sans-Serif" font-size="11.00" fill="#000000">&lt; 1</text>
<polygon fill="#ffffff" stroke="transparent" points="389,-41.2 389,-58.2 493,-58.2 493,-41.2 389,-41.2"/>
<text text-anchor="start" x="437.9431" y="-46.3" font-family="Helvetica,sans-Serif" font-size="11.00" fill="#000000"> &#160;</text>
<polygon fill="#ffffff" stroke="transparent" points="493,-41.2 493,-58.2 606,-58.2 606,-41.2 493,-41.2"/>
<text text-anchor="start" x="588.4053" y="-46.3" font-family="Helvetica,sans-Serif" font-size="11.00" fill="#000000">0 &gt;</text>
<polygon fill="#000000" stroke="#000000" points="389,-41.2 389,-58.2 389,-58.2 389,-41.2 389,-41.2"/>
<polygon fill="#000000" stroke="#000000" points="493,-41.2 493,-58.2 493,-58.2 493,-41.2 493,-41.2"/>
<polygon fill="none" stroke="#000000" stroke-width="2" points="274,-39.2 274,-369.2 608,-369.2 608,-39.2 274,-39.2"/>
</a>
</g>
</g>
<!-- booking -->
<g id="node2" class="node">
<title>booking</title>
<g id="a_node2"><a xlink:href="../../tables/booking.html" xlink:title="booking" target="_top">
<polygon fill="#ffffff" stroke="transparent" points="8,-153.7 8,-368.7 224,-368.7 224,-153.7 8,-153.7"/>
<polygon fill="#f5f5f5" stroke="transparent" points="8,-345.2 8,-368.2 224,-368.2 224,-345.2 8,-345.2"/>
<polygon fill="none" stroke="#000000" points="8,-345.2 8,-368.2 224,-368.2 224,-345.2 8,-345.2"/>
<text text-anchor="start" x="13" y="-353.8" font-family="Helvetica,sans-Serif" font-weight="bold" font-size="11.00" fill="#000000">booking</text>
<text text-anchor="start" x="189.0437" y="-353.3" font-family="Helvetica,sans-Serif" font-size="11.00" fill="#000000">[table]</text>
<polygon fill="none" stroke="#000000" points="8,-323.2 8,-345.2 224,-345.2 224,-323.2 8,-323.2"/>
<image xlink:href="../../images/primaryKeys.png" width="11px" height="12px" preserveAspectRatio="xMinYMin meet" x="13" y="-340.2"/>
<text text-anchor="start" x="28" y="-330.3" font-family="Helvetica,sans-Serif" font-size="11.00" fill="#000000">id</text>
<polygon fill="#ffffff" stroke="transparent" points="8,-301.2 8,-323.2 224,-323.2 224,-301.2 8,-301.2"/>
<polygon fill="none" stroke="#000000" points="8,-301.2 8,-323.2 224,-323.2 224,-301.2 8,-301.2"/>
<text text-anchor="start" x="28" y="-308.3" font-family="Helvetica,sans-Serif" font-size="11.00" fill="#000000">tracking_number</text>
<polygon fill="#ffffff" stroke="transparent" points="8,-279.2 8,-301.2 224,-301.2 224,-279.2 8,-279.2"/>
<polygon fill="none" stroke="#000000" points="8,-279.2 8,-301.2 224,-301.2 224,-279.2 8,-279.2"/>
<text text-anchor="start" x="28" y="-286.3" font-family="Helvetica,sans-Serif" font-size="11.00" fill="#000000">transport_request_number</text>
<polygon fill="#ffffff" stroke="transparent" points="8,-257.2 8,-279.2 224,-279.2 224,-257.2 8,-257.2"/>
<polygon fill="none" stroke="#000000" points="8,-257.2 8,-279.2 224,-279.2 224,-257.2 8,-257.2"/>
<text text-anchor="start" x="28" y="-264.3" font-family="Helvetica,sans-Serif" font-size="11.00" fill="#000000">quotation_id</text>
<polygon fill="#ffffff" stroke="transparent" points="8,-235.2 8,-257.2 224,-257.2 224,-235.2 8,-235.2"/>
<polygon fill="none" stroke="#000000" points="8,-235.2 8,-257.2 224,-257.2 224,-235.2 8,-235.2"/>
<text text-anchor="start" x="28" y="-242.3" font-family="Helvetica,sans-Serif" font-size="11.00" fill="#000000">shipper_company_id</text>
<polygon fill="#ffffff" stroke="transparent" points="8,-213.2 8,-235.2 224,-235.2 224,-213.2 8,-213.2"/>
<polygon fill="none" stroke="#000000" points="8,-213.2 8,-235.2 224,-235.2 224,-213.2 8,-213.2"/>
<text text-anchor="start" x="28" y="-220.3" font-family="Helvetica,sans-Serif" font-size="11.00" fill="#000000">status</text>
<polygon fill="#ffffff" stroke="transparent" points="8,-191.2 8,-213.2 224,-213.2 224,-191.2 8,-191.2"/>
<polygon fill="none" stroke="#000000" points="8,-191.2 8,-213.2 224,-213.2 224,-191.2 8,-191.2"/>
<text text-anchor="start" x="28" y="-198.3" font-family="Helvetica,sans-Serif" font-size="11.00" fill="#000000">quotation_no</text>
<polygon fill="none" stroke="#000000" points="8,-172.2 8,-191.2 224,-191.2 224,-172.2 8,-172.2"/>
<text text-anchor="start" x="11" y="-178.3" font-family="Helvetica,sans-Serif" font-size="11.00" fill="#000000">...</text>
<polygon fill="#ffffff" stroke="transparent" points="8,-153.2 8,-172.2 224,-172.2 224,-153.2 8,-153.2"/>
<polygon fill="none" stroke="#000000" points="8,-153.2 8,-172.2 224,-172.2 224,-153.2 8,-153.2"/>
<polygon fill="#ffffff" stroke="transparent" points="9,-154.2 9,-171.2 78,-171.2 78,-154.2 9,-154.2"/>
<text text-anchor="start" x="11" y="-159.3" font-family="Helvetica,sans-Serif" font-size="11.00" fill="#000000"> &#160;</text>
<polygon fill="#ffffff" stroke="transparent" points="78,-154.2 78,-171.2 146,-171.2 146,-154.2 78,-154.2"/>
<text text-anchor="start" x="108.9431" y="-159.3" font-family="Helvetica,sans-Serif" font-size="11.00" fill="#000000"> &#160;</text>
<polygon fill="#ffffff" stroke="transparent" points="146,-154.2 146,-171.2 223,-171.2 223,-154.2 146,-154.2"/>
<text text-anchor="start" x="205.4053" y="-159.3" font-family="Helvetica,sans-Serif" font-size="11.00" fill="#000000">2 &gt;</text>
<polygon fill="#000000" stroke="#000000" points="78,-154.2 78,-171.2 78,-171.2 78,-154.2 78,-154.2"/>
<polygon fill="#000000" stroke="#000000" points="146,-154.2 146,-171.2 146,-171.2 146,-154.2 146,-154.2"/>
</a>
</g>
</g>
<!-- booking_version&#45;&gt;booking -->
<g id="edge1" class="edge">
<title>booking_version:w&#45;&gt;booking:e</title>
<path fill="none" stroke="#000000" d="M260.276,-334.2C248.2815,-334.2 240.8229,-334.2 224,-334.2"/>
<polygon fill="#000000" stroke="#000000" points="267,-334.2001 275,-337.8 271,-334.2 275,-334.2 275,-334.2 275,-334.2 271,-334.2 275,-330.6 267,-334.2001 267,-334.2001"/>
<ellipse fill="none" stroke="#000000" cx="263.8" cy="-334.2001" rx="3.2" ry="3.2"/>
</g>
</g>
</svg>
