<?xml version="1.0" encoding="UTF-8" standalone="no"?>
<!DOCTYPE svg PUBLIC "-//W3C//DTD SVG 1.1//EN"
 "http://www.w3.org/Graphics/SVG/1.1/DTD/svg11.dtd">
<!-- Generated by graphviz version 2.40.1 (20161225.0304)
 -->
<!-- Title: largeRelationshipsDiagram Pages: 1 -->
<svg width="1124pt" height="1214pt"
 viewBox="0.00 0.00 1124.00 1214.20" xmlns="http://www.w3.org/2000/svg" xmlns:xlink="http://www.w3.org/1999/xlink">
<g id="graph0" class="graph" transform="scale(1 1) rotate(0) translate(4 1210.2)">
<title>largeRelationshipsDiagram</title>
<polygon fill="#ffffff" stroke="transparent" points="-4,4 -4,-1210.2 1120,-1210.2 1120,4 -4,4"/>
<text text-anchor="middle" x="72.4936" y="-7.3" font-family="Helvetica,sans-Serif" font-size="11.00" fill="#000000">Generated by SchemaSpy</text>
<!-- transport_request_version -->
<g id="node1" class="node">
<title>transport_request_version</title>
<g id="a_node1"><a xlink:href="../../tables/transport_request_version.html" xlink:title="transport_request_version" target="_top">
<polygon fill="#ffffff" stroke="transparent" points="382,-189.2 382,-517.2 613,-517.2 613,-189.2 382,-189.2"/>
<polygon fill="#f5f5f5" stroke="transparent" points="382.5,-494.2 382.5,-517.2 613.5,-517.2 613.5,-494.2 382.5,-494.2"/>
<polygon fill="none" stroke="#000000" points="382.5,-494.2 382.5,-517.2 613.5,-517.2 613.5,-494.2 382.5,-494.2"/>
<text text-anchor="start" x="387.5" y="-502.8" font-family="Helvetica,sans-Serif" font-weight="bold" font-size="11.00" fill="#000000">transport_request_version</text>
<text text-anchor="start" x="579.0219" y="-502.3" font-family="Helvetica,sans-Serif" font-size="11.00" fill="#000000">[table]</text>
<polygon fill="none" stroke="#000000" points="382.5,-472.2 382.5,-494.2 613.5,-494.2 613.5,-472.2 382.5,-472.2"/>
<image xlink:href="../../images/primaryKeys.png" width="11px" height="12px" preserveAspectRatio="xMinYMin meet" x="387.5" y="-489.2"/>
<text text-anchor="start" x="411.5" y="-479.3" font-family="Helvetica,sans-Serif" font-size="11.00" fill="#000000">transport_request_id</text>
<polygon fill="none" stroke="#000000" points="382.5,-450.2 382.5,-472.2 613.5,-472.2 613.5,-450.2 382.5,-450.2"/>
<image xlink:href="../../images/primaryKeys.png" width="11px" height="12px" preserveAspectRatio="xMinYMin meet" x="387.5" y="-467.2"/>
<text text-anchor="start" x="411.5" y="-457.3" font-family="Helvetica,sans-Serif" font-size="11.00" fill="#000000">version_no</text>
<polygon fill="none" stroke="#000000" points="382.5,-428.2 382.5,-450.2 613.5,-450.2 613.5,-428.2 382.5,-428.2"/>
<text text-anchor="start" x="411.5" y="-435.3" font-family="Helvetica,sans-Serif" font-size="11.00" fill="#000000">origin_unlocode</text>
<polygon fill="none" stroke="#000000" points="382.5,-406.2 382.5,-428.2 613.5,-428.2 613.5,-406.2 382.5,-406.2"/>
<text text-anchor="start" x="411.5" y="-413.3" font-family="Helvetica,sans-Serif" font-size="11.00" fill="#000000">destination_unlocode</text>
<polygon fill="none" stroke="#000000" points="382.5,-384.2 382.5,-406.2 613.5,-406.2 613.5,-384.2 382.5,-384.2"/>
<text text-anchor="start" x="411.5" y="-391.3" font-family="Helvetica,sans-Serif" font-size="11.00" fill="#000000">submitted_by</text>
<polygon fill="none" stroke="#000000" points="382.5,-362.2 382.5,-384.2 613.5,-384.2 613.5,-362.2 382.5,-362.2"/>
<text text-anchor="start" x="411.5" y="-369.3" font-family="Helvetica,sans-Serif" font-size="11.00" fill="#000000">submitted_at</text>
<polygon fill="none" stroke="#000000" points="382.5,-340.2 382.5,-362.2 613.5,-362.2 613.5,-340.2 382.5,-340.2"/>
<text text-anchor="start" x="411.5" y="-347.3" font-family="Helvetica,sans-Serif" font-size="11.00" fill="#000000">consignee_company_id</text>
<polygon fill="none" stroke="#000000" points="382.5,-318.2 382.5,-340.2 613.5,-340.2 613.5,-318.2 382.5,-318.2"/>
<text text-anchor="start" x="411.5" y="-325.3" font-family="Helvetica,sans-Serif" font-size="11.00" fill="#000000">arrival_deadline</text>
<polygon fill="none" stroke="#000000" points="382.5,-296.2 382.5,-318.2 613.5,-318.2 613.5,-296.2 382.5,-296.2"/>
<text text-anchor="start" x="411.5" y="-303.3" font-family="Helvetica,sans-Serif" font-size="11.00" fill="#000000">cargo_category</text>
<polygon fill="none" stroke="#000000" points="382.5,-274.2 382.5,-296.2 613.5,-296.2 613.5,-274.2 382.5,-274.2"/>
<text text-anchor="start" x="411.5" y="-281.3" font-family="Helvetica,sans-Serif" font-size="11.00" fill="#000000">package_type</text>
<polygon fill="none" stroke="#000000" points="382.5,-252.2 382.5,-274.2 613.5,-274.2 613.5,-252.2 382.5,-252.2"/>
<text text-anchor="start" x="411.5" y="-259.3" font-family="Helvetica,sans-Serif" font-size="11.00" fill="#000000">package_count</text>
<polygon fill="none" stroke="#000000" points="382.5,-230.2 382.5,-252.2 613.5,-252.2 613.5,-230.2 382.5,-230.2"/>
<text text-anchor="start" x="411.5" y="-237.3" font-family="Helvetica,sans-Serif" font-size="11.00" fill="#000000">gross_weight_kg</text>
<polygon fill="none" stroke="#000000" points="382.5,-208.2 382.5,-230.2 613.5,-230.2 613.5,-208.2 382.5,-208.2"/>
<text text-anchor="start" x="411.5" y="-215.3" font-family="Helvetica,sans-Serif" font-size="11.00" fill="#000000">volume_m3</text>
<polygon fill="#ffffff" stroke="transparent" points="382.5,-189.2 382.5,-208.2 613.5,-208.2 613.5,-189.2 382.5,-189.2"/>
<polygon fill="none" stroke="#000000" points="382.5,-189.2 382.5,-208.2 613.5,-208.2 613.5,-189.2 382.5,-189.2"/>
<polygon fill="#ffffff" stroke="transparent" points="383.5,-190.2 383.5,-207.2 463.5,-207.2 463.5,-190.2 383.5,-190.2"/>
<text text-anchor="start" x="385.5" y="-195.3" font-family="Helvetica,sans-Serif" font-size="11.00" fill="#000000">&lt; 1</text>
<polygon fill="#ffffff" stroke="transparent" points="463.5,-190.2 463.5,-207.2 533.5,-207.2 533.5,-190.2 463.5,-190.2"/>
<text text-anchor="start" x="495.4431" y="-195.3" font-family="Helvetica,sans-Serif" font-size="11.00" fill="#000000"> &#160;</text>
<polygon fill="#ffffff" stroke="transparent" points="533.5,-190.2 533.5,-207.2 612.5,-207.2 612.5,-190.2 533.5,-190.2"/>
<text text-anchor="start" x="594.9053" y="-195.3" font-family="Helvetica,sans-Serif" font-size="11.00" fill="#000000">6 &gt;</text>
<polygon fill="#000000" stroke="#000000" points="463.5,-190.2 463.5,-207.2 463.5,-207.2 463.5,-190.2 463.5,-190.2"/>
<polygon fill="#000000" stroke="#000000" points="533.5,-190.2 533.5,-207.2 533.5,-207.2 533.5,-190.2 533.5,-190.2"/>
</a>
</g>
</g>
<!-- transport_request -->
<g id="node7" class="node">
<title>transport_request</title>
<g id="a_node7"><a xlink:href="../../tables/transport_request.html" xlink:title="transport_request" target="_top">
<polygon fill="#ffffff" stroke="transparent" points="162,-343.2 162,-517.2 333,-517.2 333,-343.2 162,-343.2"/>
<polygon fill="#f5f5f5" stroke="transparent" points="162.5,-494.2 162.5,-517.2 333.5,-517.2 333.5,-494.2 162.5,-494.2"/>
<polygon fill="none" stroke="#000000" points="162.5,-494.2 162.5,-517.2 333.5,-517.2 333.5,-494.2 162.5,-494.2"/>
<text text-anchor="start" x="167.5" y="-502.8" font-family="Helvetica,sans-Serif" font-weight="bold" font-size="11.00" fill="#000000">transport_request</text>
<text text-anchor="start" x="299.0219" y="-502.3" font-family="Helvetica,sans-Serif" font-size="11.00" fill="#000000">[table]</text>
<polygon fill="none" stroke="#000000" points="162.5,-472.2 162.5,-494.2 333.5,-494.2 333.5,-472.2 162.5,-472.2"/>
<image xlink:href="../../images/primaryKeys.png" width="11px" height="12px" preserveAspectRatio="xMinYMin meet" x="167.5" y="-489.2"/>
<text text-anchor="start" x="183.5" y="-479.3" font-family="Helvetica,sans-Serif" font-size="11.00" fill="#000000">id</text>
<polygon fill="#ffffff" stroke="transparent" points="162.5,-450.2 162.5,-472.2 333.5,-472.2 333.5,-450.2 162.5,-450.2"/>
<polygon fill="none" stroke="#000000" points="162.5,-450.2 162.5,-472.2 333.5,-472.2 333.5,-450.2 162.5,-450.2"/>
<text text-anchor="start" x="183.5" y="-457.3" font-family="Helvetica,sans-Serif" font-size="11.00" fill="#000000">shipper_company_id</text>
<polygon fill="#ffffff" stroke="transparent" points="162.5,-428.2 162.5,-450.2 333.5,-450.2 333.5,-428.2 162.5,-428.2"/>
<polygon fill="none" stroke="#000000" points="162.5,-428.2 162.5,-450.2 333.5,-450.2 333.5,-428.2 162.5,-428.2"/>
<text text-anchor="start" x="183.5" y="-435.3" font-family="Helvetica,sans-Serif" font-size="11.00" fill="#000000">status</text>
<polygon fill="none" stroke="#000000" points="162.5,-406.2 162.5,-428.2 333.5,-428.2 333.5,-406.2 162.5,-406.2"/>
<text text-anchor="start" x="183.5" y="-413.3" font-family="Helvetica,sans-Serif" font-size="11.00" fill="#000000">current_version_no</text>
<polygon fill="none" stroke="#000000" points="162.5,-384.2 162.5,-406.2 333.5,-406.2 333.5,-384.2 162.5,-384.2"/>
<text text-anchor="start" x="183.5" y="-391.3" font-family="Helvetica,sans-Serif" font-size="11.00" fill="#000000">version</text>
<polygon fill="#ffffff" stroke="transparent" points="162.5,-362.2 162.5,-384.2 333.5,-384.2 333.5,-362.2 162.5,-362.2"/>
<polygon fill="none" stroke="#000000" points="162.5,-362.2 162.5,-384.2 333.5,-384.2 333.5,-362.2 162.5,-362.2"/>
<text text-anchor="start" x="183.5" y="-369.3" font-family="Helvetica,sans-Serif" font-size="11.00" fill="#000000">request_number</text>
<polygon fill="#ffffff" stroke="transparent" points="162.5,-343.2 162.5,-362.2 333.5,-362.2 333.5,-343.2 162.5,-343.2"/>
<polygon fill="none" stroke="#000000" points="162.5,-343.2 162.5,-362.2 333.5,-362.2 333.5,-343.2 162.5,-343.2"/>
<polygon fill="#ffffff" stroke="transparent" points="163.5,-344.2 163.5,-361.2 217.5,-361.2 217.5,-344.2 163.5,-344.2"/>
<text text-anchor="start" x="165.5" y="-349.3" font-family="Helvetica,sans-Serif" font-size="11.00" fill="#000000"> &#160;</text>
<polygon fill="#ffffff" stroke="transparent" points="217.5,-344.2 217.5,-361.2 270.5,-361.2 270.5,-344.2 217.5,-344.2"/>
<text text-anchor="start" x="240.9431" y="-349.3" font-family="Helvetica,sans-Serif" font-size="11.00" fill="#000000"> &#160;</text>
<polygon fill="#ffffff" stroke="transparent" points="270.5,-344.2 270.5,-361.2 332.5,-361.2 332.5,-344.2 270.5,-344.2"/>
<text text-anchor="start" x="314.9053" y="-349.3" font-family="Helvetica,sans-Serif" font-size="11.00" fill="#000000">1 &gt;</text>
<polygon fill="#000000" stroke="#000000" points="217.5,-344.2 217.5,-361.2 217.5,-361.2 217.5,-344.2 217.5,-344.2"/>
<polygon fill="#000000" stroke="#000000" points="270.5,-344.2 270.5,-361.2 270.5,-361.2 270.5,-344.2 270.5,-344.2"/>
</a>
</g>
</g>
<!-- transport_request_version&#45;&gt;transport_request -->
<g id="edge9" class="edge">
<title>transport_request_version:w&#45;&gt;transport_request:e</title>
<path fill="none" stroke="#000000" d="M367.9909,-483.2C356.6774,-483.2 349.4931,-483.2 333.5,-483.2"/>
<polygon fill="#000000" stroke="#000000" points="374.5,-483.2001 382.5,-486.8 378.5,-483.2 382.5,-483.2 382.5,-483.2 382.5,-483.2 378.5,-483.2 382.5,-479.6 374.5,-483.2001 374.5,-483.2001"/>
<ellipse fill="none" stroke="#000000" cx="371.3" cy="-483.2001" rx="3.2" ry="3.2"/>
</g>
<!-- quotation -->
<g id="node2" class="node">
<title>quotation</title>
<g id="a_node2"><a xlink:href="../../tables/quotation.html" xlink:title="quotation" target="_top">
<polygon fill="#ffffff" stroke="transparent" points="662,-538.2 662,-998.2 900,-998.2 900,-538.2 662,-538.2"/>
<polygon fill="#f5f5f5" stroke="transparent" points="662,-975.2 662,-998.2 900,-998.2 900,-975.2 662,-975.2"/>
<polygon fill="none" stroke="#000000" points="662,-975.2 662,-998.2 900,-998.2 900,-975.2 662,-975.2"/>
<text text-anchor="start" x="667" y="-983.8" font-family="Helvetica,sans-Serif" font-weight="bold" font-size="11.00" fill="#000000">quotation</text>
<text text-anchor="start" x="865.0437" y="-983.3" font-family="Helvetica,sans-Serif" font-size="11.00" fill="#000000">[table]</text>
<polygon fill="none" stroke="#000000" points="662,-953.2 662,-975.2 900,-975.2 900,-953.2 662,-953.2"/>
<image xlink:href="../../images/primaryKeys.png" width="11px" height="12px" preserveAspectRatio="xMinYMin meet" x="667" y="-970.2"/>
<text text-anchor="start" x="682" y="-960.3" font-family="Helvetica,sans-Serif" font-size="11.00" fill="#000000">id</text>
<polygon fill="#ffffff" stroke="transparent" points="662,-931.2 662,-953.2 900,-953.2 900,-931.2 662,-931.2"/>
<polygon fill="none" stroke="#000000" points="662,-931.2 662,-953.2 900,-953.2 900,-931.2 662,-931.2"/>
<image xlink:href="../../images/foreignKeys.png" width="11px" height="12px" preserveAspectRatio="xMinYMin meet" x="667" y="-948.2"/>
<text text-anchor="start" x="682" y="-938.3" font-family="Helvetica,sans-Serif" font-size="11.00" fill="#000000">transport_request_id</text>
<polygon fill="#ffffff" stroke="transparent" points="662,-909.2 662,-931.2 900,-931.2 900,-909.2 662,-909.2"/>
<polygon fill="none" stroke="#000000" points="662,-909.2 662,-931.2 900,-931.2 900,-909.2 662,-909.2"/>
<text text-anchor="start" x="682" y="-916.3" font-family="Helvetica,sans-Serif" font-size="11.00" fill="#000000">quotation_no</text>
<polygon fill="none" stroke="#000000" points="662,-887.2 662,-909.2 900,-909.2 900,-887.2 662,-887.2"/>
<image xlink:href="../../images/foreignKeys.png" width="11px" height="12px" preserveAspectRatio="xMinYMin meet" x="667" y="-904.2"/>
<text text-anchor="start" x="682" y="-894.3" font-family="Helvetica,sans-Serif" font-size="11.00" fill="#000000">transport_request_version_no</text>
<polygon fill="#ffffff" stroke="transparent" points="662,-865.2 662,-887.2 900,-887.2 900,-865.2 662,-865.2"/>
<polygon fill="none" stroke="#000000" points="662,-865.2 662,-887.2 900,-887.2 900,-865.2 662,-865.2"/>
<text text-anchor="start" x="682" y="-872.3" font-family="Helvetica,sans-Serif" font-size="11.00" fill="#000000">status</text>
<polygon fill="none" stroke="#000000" points="662,-843.2 662,-865.2 900,-865.2 900,-843.2 662,-843.2"/>
<text text-anchor="start" x="682" y="-850.3" font-family="Helvetica,sans-Serif" font-size="11.00" fill="#000000">expires_at</text>
<polygon fill="none" stroke="#000000" points="662,-821.2 662,-843.2 900,-843.2 900,-821.2 662,-821.2"/>
<text text-anchor="start" x="682" y="-828.3" font-family="Helvetica,sans-Serif" font-size="11.00" fill="#000000">total_amount</text>
<polygon fill="none" stroke="#000000" points="662,-799.2 662,-821.2 900,-821.2 900,-799.2 662,-799.2"/>
<text text-anchor="start" x="682" y="-806.3" font-family="Helvetica,sans-Serif" font-size="11.00" fill="#000000">currency</text>
<polygon fill="none" stroke="#000000" points="662,-777.2 662,-799.2 900,-799.2 900,-777.2 662,-777.2"/>
<text text-anchor="start" x="682" y="-784.3" font-family="Helvetica,sans-Serif" font-size="11.00" fill="#000000">route_policy_via</text>
<polygon fill="none" stroke="#000000" points="662,-755.2 662,-777.2 900,-777.2 900,-755.2 662,-755.2"/>
<text text-anchor="start" x="682" y="-762.3" font-family="Helvetica,sans-Serif" font-size="11.00" fill="#000000">route_policy_departure_at</text>
<polygon fill="none" stroke="#000000" points="662,-733.2 662,-755.2 900,-755.2 900,-733.2 662,-733.2"/>
<text text-anchor="start" x="682" y="-740.3" font-family="Helvetica,sans-Serif" font-size="11.00" fill="#000000">route_policy_arrival_at</text>
<polygon fill="none" stroke="#000000" points="662,-711.2 662,-733.2 900,-733.2 900,-711.2 662,-711.2"/>
<text text-anchor="start" x="682" y="-718.3" font-family="Helvetica,sans-Serif" font-size="11.00" fill="#000000">internal_approved_by</text>
<polygon fill="none" stroke="#000000" points="662,-689.2 662,-711.2 900,-711.2 900,-689.2 662,-689.2"/>
<text text-anchor="start" x="682" y="-696.3" font-family="Helvetica,sans-Serif" font-size="11.00" fill="#000000">internal_approved_at</text>
<polygon fill="none" stroke="#000000" points="662,-667.2 662,-689.2 900,-689.2 900,-667.2 662,-667.2"/>
<text text-anchor="start" x="682" y="-674.3" font-family="Helvetica,sans-Serif" font-size="11.00" fill="#000000">presented_at</text>
<polygon fill="none" stroke="#000000" points="662,-645.2 662,-667.2 900,-667.2 900,-645.2 662,-645.2"/>
<text text-anchor="start" x="682" y="-652.3" font-family="Helvetica,sans-Serif" font-size="11.00" fill="#000000">version</text>
<polygon fill="none" stroke="#000000" points="662,-623.2 662,-645.2 900,-645.2 900,-623.2 662,-623.2"/>
<image xlink:href="../../images/foreignKeys.png" width="11px" height="12px" preserveAspectRatio="xMinYMin meet" x="667" y="-640.2"/>
<text text-anchor="start" x="682" y="-630.3" font-family="Helvetica,sans-Serif" font-size="11.00" fill="#000000">replaced_by_quotation_id</text>
<polygon fill="none" stroke="#000000" points="662,-601.2 662,-623.2 900,-623.2 900,-601.2 662,-601.2"/>
<text text-anchor="start" x="682" y="-608.3" font-family="Helvetica,sans-Serif" font-size="11.00" fill="#000000">shipper_response</text>
<polygon fill="none" stroke="#000000" points="662,-579.2 662,-601.2 900,-601.2 900,-579.2 662,-579.2"/>
<text text-anchor="start" x="682" y="-586.3" font-family="Helvetica,sans-Serif" font-size="11.00" fill="#000000">responded_by</text>
<polygon fill="none" stroke="#000000" points="662,-557.2 662,-579.2 900,-579.2 900,-557.2 662,-557.2"/>
<text text-anchor="start" x="682" y="-564.3" font-family="Helvetica,sans-Serif" font-size="11.00" fill="#000000">responded_at</text>
<polygon fill="#ffffff" stroke="transparent" points="662,-538.2 662,-557.2 900,-557.2 900,-538.2 662,-538.2"/>
<polygon fill="none" stroke="#000000" points="662,-538.2 662,-557.2 900,-557.2 900,-538.2 662,-538.2"/>
<polygon fill="#ffffff" stroke="transparent" points="663,-539.2 663,-556.2 745,-556.2 745,-539.2 663,-539.2"/>
<text text-anchor="start" x="665" y="-544.3" font-family="Helvetica,sans-Serif" font-size="11.00" fill="#000000">&lt; 3</text>
<polygon fill="#ffffff" stroke="transparent" points="745,-539.2 745,-556.2 818,-556.2 818,-539.2 745,-539.2"/>
<text text-anchor="start" x="778.4431" y="-544.3" font-family="Helvetica,sans-Serif" font-size="11.00" fill="#000000"> &#160;</text>
<polygon fill="#ffffff" stroke="transparent" points="818,-539.2 818,-556.2 899,-556.2 899,-539.2 818,-539.2"/>
<text text-anchor="start" x="881.4053" y="-544.3" font-family="Helvetica,sans-Serif" font-size="11.00" fill="#000000">2 &gt;</text>
<polygon fill="#000000" stroke="#000000" points="745,-539.2 745,-556.2 745,-556.2 745,-539.2 745,-539.2"/>
<polygon fill="#000000" stroke="#000000" points="818,-539.2 818,-556.2 818,-556.2 818,-539.2 818,-539.2"/>
</a>
</g>
</g>
<!-- quotation&#45;&gt;transport_request_version -->
<g id="edge3" class="edge">
<title>quotation:w&#45;&gt;transport_request_version:e</title>
<path fill="none" stroke="#000000" d="M651.6257,-940.3506C570.7005,-908.7657 712.2616,-483.2 613.5,-483.2"/>
<polygon fill="#000000" stroke="#000000" points="661.9144,-938.1217 660.5104,-945.9975 658.9352,-945.7167 660.3393,-937.8409 661.9144,-938.1217"/>
<polyline fill="none" stroke="#000000" points="662,-942.2 658.0621,-941.498 "/>
<ellipse fill="none" stroke="#000000" cx="654.9117" cy="-940.9364" rx="3.2" ry="3.2"/>
</g>
<!-- quotation&#45;&gt;transport_request_version -->
<g id="edge4" class="edge">
<title>quotation:w&#45;&gt;transport_request_version:e</title>
<path fill="none" stroke="#000000" d="M648.0847,-894.4221C579.6298,-851.7101 705.864,-461.2 613.5,-461.2"/>
<polygon fill="#000000" stroke="#000000" points="654.2795,-896.1039 661.0568,-901.6742 658.1397,-897.152 662,-898.2 662,-898.2 662,-898.2 658.1397,-897.152 662.9432,-894.7258 654.2795,-896.1039 654.2795,-896.1039"/>
<ellipse fill="none" stroke="#000000" cx="651.1913" cy="-895.2655" rx="3.2" ry="3.2"/>
</g>
<!-- quotation&#45;&gt;quotation -->
<g id="edge2" class="edge">
<title>quotation:w&#45;&gt;quotation:e</title>
<path fill="none" stroke="#000000" d="M654.095,-646.5587C600.8642,-742.764 608.6084,-1015.2 781,-1015.2 961.5,-1015.2 961.5,-1006.5333 900,-964.2"/>
<polygon fill="#000000" stroke="#000000" points="657.6893,-640.9393 665.0327,-636.1398 659.8447,-637.5697 662,-634.2 662,-634.2 662,-634.2 659.8447,-637.5697 658.9673,-632.2602 657.6893,-640.9393 657.6893,-640.9393"/>
<ellipse fill="none" stroke="#000000" cx="655.965" cy="-643.635" rx="3.2" ry="3.2"/>
</g>
<!-- required_document -->
<g id="node3" class="node">
<title>required_document</title>
<g id="a_node3"><a xlink:href="../../tables/required_document.html" xlink:title="required_document" target="_top">
<polygon fill="#ffffff" stroke="transparent" points="690.5,-277.2 690.5,-517.2 871.5,-517.2 871.5,-277.2 690.5,-277.2"/>
<polygon fill="#f5f5f5" stroke="transparent" points="691,-494.2 691,-517.2 872,-517.2 872,-494.2 691,-494.2"/>
<polygon fill="none" stroke="#000000" points="691,-494.2 691,-517.2 872,-517.2 872,-494.2 691,-494.2"/>
<text text-anchor="start" x="696" y="-502.8" font-family="Helvetica,sans-Serif" font-weight="bold" font-size="11.00" fill="#000000">required_document</text>
<text text-anchor="start" x="837.5219" y="-502.3" font-family="Helvetica,sans-Serif" font-size="11.00" fill="#000000">[table]</text>
<polygon fill="none" stroke="#000000" points="691,-472.2 691,-494.2 872,-494.2 872,-472.2 691,-472.2"/>
<image xlink:href="../../images/primaryKeys.png" width="11px" height="12px" preserveAspectRatio="xMinYMin meet" x="696" y="-489.2"/>
<text text-anchor="start" x="715" y="-479.3" font-family="Helvetica,sans-Serif" font-size="11.00" fill="#000000">transport_request_id</text>
<polygon fill="none" stroke="#000000" points="691,-450.2 691,-472.2 872,-472.2 872,-450.2 691,-450.2"/>
<image xlink:href="../../images/primaryKeys.png" width="11px" height="12px" preserveAspectRatio="xMinYMin meet" x="696" y="-467.2"/>
<text text-anchor="start" x="715" y="-457.3" font-family="Helvetica,sans-Serif" font-size="11.00" fill="#000000">version_no</text>
<polygon fill="none" stroke="#000000" points="691,-428.2 691,-450.2 872,-450.2 872,-428.2 691,-428.2"/>
<image xlink:href="../../images/primaryKeys.png" width="11px" height="12px" preserveAspectRatio="xMinYMin meet" x="696" y="-445.2"/>
<text text-anchor="start" x="715" y="-435.3" font-family="Helvetica,sans-Serif" font-size="11.00" fill="#000000">document_no</text>
<polygon fill="none" stroke="#000000" points="691,-406.2 691,-428.2 872,-428.2 872,-406.2 691,-406.2"/>
<text text-anchor="start" x="715" y="-413.3" font-family="Helvetica,sans-Serif" font-size="11.00" fill="#000000">document_type</text>
<polygon fill="none" stroke="#000000" points="691,-384.2 691,-406.2 872,-406.2 872,-384.2 691,-384.2"/>
<text text-anchor="start" x="715" y="-391.3" font-family="Helvetica,sans-Serif" font-size="11.00" fill="#000000">file_name</text>
<polygon fill="none" stroke="#000000" points="691,-362.2 691,-384.2 872,-384.2 872,-362.2 691,-362.2"/>
<text text-anchor="start" x="715" y="-369.3" font-family="Helvetica,sans-Serif" font-size="11.00" fill="#000000">media_type</text>
<polygon fill="none" stroke="#000000" points="691,-340.2 691,-362.2 872,-362.2 872,-340.2 691,-340.2"/>
<text text-anchor="start" x="715" y="-347.3" font-family="Helvetica,sans-Serif" font-size="11.00" fill="#000000">size_bytes</text>
<polygon fill="none" stroke="#000000" points="691,-318.2 691,-340.2 872,-340.2 872,-318.2 691,-318.2"/>
<text text-anchor="start" x="715" y="-325.3" font-family="Helvetica,sans-Serif" font-size="11.00" fill="#000000">sha256</text>
<polygon fill="none" stroke="#000000" points="691,-296.2 691,-318.2 872,-318.2 872,-296.2 691,-296.2"/>
<text text-anchor="start" x="715" y="-303.3" font-family="Helvetica,sans-Serif" font-size="11.00" fill="#000000">object_key</text>
<polygon fill="#ffffff" stroke="transparent" points="691,-277.2 691,-296.2 872,-296.2 872,-277.2 691,-277.2"/>
<polygon fill="none" stroke="#000000" points="691,-277.2 691,-296.2 872,-296.2 872,-277.2 691,-277.2"/>
<polygon fill="#ffffff" stroke="transparent" points="692,-278.2 692,-295.2 758,-295.2 758,-278.2 692,-278.2"/>
<text text-anchor="start" x="694" y="-283.3" font-family="Helvetica,sans-Serif" font-size="11.00" fill="#000000">&lt; 2</text>
<polygon fill="#ffffff" stroke="transparent" points="758,-278.2 758,-295.2 815,-295.2 815,-278.2 758,-278.2"/>
<text text-anchor="start" x="783.4431" y="-283.3" font-family="Helvetica,sans-Serif" font-size="11.00" fill="#000000"> &#160;</text>
<polygon fill="#ffffff" stroke="transparent" points="815,-278.2 815,-295.2 871,-295.2 871,-278.2 815,-278.2"/>
<text text-anchor="start" x="862.8862" y="-283.3" font-family="Helvetica,sans-Serif" font-size="11.00" fill="#000000"> &#160;</text>
<polygon fill="#000000" stroke="#000000" points="758,-278.2 758,-295.2 758,-295.2 758,-278.2 758,-278.2"/>
<polygon fill="#000000" stroke="#000000" points="815,-278.2 815,-295.2 815,-295.2 815,-278.2 815,-278.2"/>
</a>
</g>
</g>
<!-- required_document&#45;&gt;transport_request_version -->
<g id="edge5" class="edge">
<title>required_document:w&#45;&gt;transport_request_version:e</title>
<path fill="none" stroke="#000000" d="M676.5492,-483.2C653.2339,-483.2 642.5625,-483.2 613.5,-483.2"/>
<polygon fill="#000000" stroke="#000000" points="683,-483.2001 691,-486.8 687,-483.2 691,-483.2 691,-483.2 691,-483.2 687,-483.2 691,-479.6 683,-483.2001 683,-483.2001"/>
<ellipse fill="none" stroke="#000000" cx="679.8" cy="-483.2001" rx="3.2" ry="3.2"/>
</g>
<!-- required_document&#45;&gt;transport_request_version -->
<g id="edge6" class="edge">
<title>required_document:w&#45;&gt;transport_request_version:e</title>
<path fill="none" stroke="#000000" d="M676.5492,-461.2C653.2339,-461.2 642.5625,-461.2 613.5,-461.2"/>
<polygon fill="#000000" stroke="#000000" points="683,-461.2001 691,-464.8 687,-461.2 691,-461.2 691,-461.2 691,-461.2 687,-461.2 691,-457.6 683,-461.2001 683,-461.2001"/>
<ellipse fill="none" stroke="#000000" cx="679.8" cy="-461.2001" rx="3.2" ry="3.2"/>
</g>
<!-- transport_request_number_counter -->
<g id="node4" class="node">
<title>transport_request_number_counter</title>
<g id="a_node4"><a xlink:href="../../tables/transport_request_number_counter.html" xlink:title="transport_request_number_counter" target="_top">
<polygon fill="#ffffff" stroke="transparent" points="8,-1116.2 8,-1202.2 305,-1202.2 305,-1116.2 8,-1116.2"/>
<polygon fill="#f5f5f5" stroke="transparent" points="8.5,-1179.2 8.5,-1202.2 305.5,-1202.2 305.5,-1179.2 8.5,-1179.2"/>
<polygon fill="none" stroke="#000000" points="8.5,-1179.2 8.5,-1202.2 305.5,-1202.2 305.5,-1179.2 8.5,-1179.2"/>
<text text-anchor="start" x="13.5" y="-1187.8" font-family="Helvetica,sans-Serif" font-weight="bold" font-size="11.00" fill="#000000">transport_request_number_counter</text>
<text text-anchor="start" x="271.0219" y="-1187.3" font-family="Helvetica,sans-Serif" font-size="11.00" fill="#000000">[table]</text>
<polygon fill="none" stroke="#000000" points="8.5,-1157.2 8.5,-1179.2 305.5,-1179.2 305.5,-1157.2 8.5,-1157.2"/>
<image xlink:href="../../images/primaryKeys.png" width="11px" height="12px" preserveAspectRatio="xMinYMin meet" x="13.5" y="-1174.2"/>
<text text-anchor="start" x="37.5" y="-1164.3" font-family="Helvetica,sans-Serif" font-size="11.00" fill="#000000">number_year</text>
<polygon fill="none" stroke="#000000" points="8.5,-1135.2 8.5,-1157.2 305.5,-1157.2 305.5,-1135.2 8.5,-1135.2"/>
<text text-anchor="start" x="37.5" y="-1142.3" font-family="Helvetica,sans-Serif" font-size="11.00" fill="#000000">last_no</text>
<polygon fill="#ffffff" stroke="transparent" points="8.5,-1116.2 8.5,-1135.2 305.5,-1135.2 305.5,-1116.2 8.5,-1116.2"/>
<polygon fill="none" stroke="#000000" points="8.5,-1116.2 8.5,-1135.2 305.5,-1135.2 305.5,-1116.2 8.5,-1116.2"/>
<polygon fill="#ffffff" stroke="transparent" points="9.5,-1117.2 9.5,-1134.2 108.5,-1134.2 108.5,-1117.2 9.5,-1117.2"/>
<text text-anchor="start" x="11.5" y="-1122.3" font-family="Helvetica,sans-Serif" font-size="11.00" fill="#000000"> &#160;</text>
<polygon fill="#ffffff" stroke="transparent" points="108.5,-1117.2 108.5,-1134.2 206.5,-1134.2 206.5,-1117.2 108.5,-1117.2"/>
<text text-anchor="start" x="154.4431" y="-1122.3" font-family="Helvetica,sans-Serif" font-size="11.00" fill="#000000"> &#160;</text>
<polygon fill="#ffffff" stroke="transparent" points="206.5,-1117.2 206.5,-1134.2 304.5,-1134.2 304.5,-1117.2 206.5,-1117.2"/>
<text text-anchor="start" x="296.3862" y="-1122.3" font-family="Helvetica,sans-Serif" font-size="11.00" fill="#000000"> &#160;</text>
<polygon fill="#000000" stroke="#000000" points="108.5,-1117.2 108.5,-1134.2 108.5,-1134.2 108.5,-1117.2 108.5,-1117.2"/>
<polygon fill="#000000" stroke="#000000" points="206.5,-1117.2 206.5,-1134.2 206.5,-1134.2 206.5,-1117.2 206.5,-1117.2"/>
</a>
</g>
</g>
<!-- review_record -->
<g id="node5" class="node">
<title>review_record</title>
<g id="a_node5"><a xlink:href="../../tables/review_record.html" xlink:title="review_record" target="_top">
<polygon fill="#ffffff" stroke="transparent" points="694.5,-38.2 694.5,-256.2 867.5,-256.2 867.5,-38.2 694.5,-38.2"/>
<polygon fill="#f5f5f5" stroke="transparent" points="695,-233.2 695,-256.2 868,-256.2 868,-233.2 695,-233.2"/>
<polygon fill="none" stroke="#000000" points="695,-233.2 695,-256.2 868,-256.2 868,-233.2 695,-233.2"/>
<text text-anchor="start" x="700" y="-241.8" font-family="Helvetica,sans-Serif" font-weight="bold" font-size="11.00" fill="#000000">review_record</text>
<text text-anchor="start" x="833.0437" y="-241.3" font-family="Helvetica,sans-Serif" font-size="11.00" fill="#000000">[table]</text>
<polygon fill="none" stroke="#000000" points="695,-211.2 695,-233.2 868,-233.2 868,-211.2 695,-211.2"/>
<image xlink:href="../../images/primaryKeys.png" width="11px" height="12px" preserveAspectRatio="xMinYMin meet" x="700" y="-228.2"/>
<text text-anchor="start" x="715" y="-218.3" font-family="Helvetica,sans-Serif" font-size="11.00" fill="#000000">id</text>
<polygon fill="#ffffff" stroke="transparent" points="695,-189.2 695,-211.2 868,-211.2 868,-189.2 695,-189.2"/>
<polygon fill="none" stroke="#000000" points="695,-189.2 695,-211.2 868,-211.2 868,-189.2 695,-189.2"/>
<image xlink:href="../../images/foreignKeys.png" width="11px" height="12px" preserveAspectRatio="xMinYMin meet" x="700" y="-206.2"/>
<text text-anchor="start" x="715" y="-196.3" font-family="Helvetica,sans-Serif" font-size="11.00" fill="#000000">transport_request_id</text>
<polygon fill="#ffffff" stroke="transparent" points="695,-167.2 695,-189.2 868,-189.2 868,-167.2 695,-167.2"/>
<polygon fill="none" stroke="#000000" points="695,-167.2 695,-189.2 868,-189.2 868,-167.2 695,-167.2"/>
<image xlink:href="../../images/foreignKeys.png" width="11px" height="12px" preserveAspectRatio="xMinYMin meet" x="700" y="-184.2"/>
<text text-anchor="start" x="715" y="-174.3" font-family="Helvetica,sans-Serif" font-size="11.00" fill="#000000">version_no</text>
<polygon fill="none" stroke="#000000" points="695,-145.2 695,-167.2 868,-167.2 868,-145.2 695,-145.2"/>
<text text-anchor="start" x="715" y="-152.3" font-family="Helvetica,sans-Serif" font-size="11.00" fill="#000000">decision</text>
<polygon fill="none" stroke="#000000" points="695,-123.2 695,-145.2 868,-145.2 868,-123.2 695,-123.2"/>
<text text-anchor="start" x="715" y="-130.3" font-family="Helvetica,sans-Serif" font-size="11.00" fill="#000000">reviewer_id</text>
<polygon fill="none" stroke="#000000" points="695,-101.2 695,-123.2 868,-123.2 868,-101.2 695,-101.2"/>
<text text-anchor="start" x="715" y="-108.3" font-family="Helvetica,sans-Serif" font-size="11.00" fill="#000000">rationale</text>
<polygon fill="none" stroke="#000000" points="695,-79.2 695,-101.2 868,-101.2 868,-79.2 695,-79.2"/>
<text text-anchor="start" x="715" y="-86.3" font-family="Helvetica,sans-Serif" font-size="11.00" fill="#000000">missing_items</text>
<polygon fill="#ffffff" stroke="transparent" points="695,-57.2 695,-79.2 868,-79.2 868,-57.2 695,-57.2"/>
<polygon fill="none" stroke="#000000" points="695,-57.2 695,-79.2 868,-79.2 868,-57.2 695,-57.2"/>
<text text-anchor="start" x="715" y="-64.3" font-family="Helvetica,sans-Serif" font-size="11.00" fill="#000000">decided_at</text>
<polygon fill="#ffffff" stroke="transparent" points="695,-38.2 695,-57.2 868,-57.2 868,-38.2 695,-38.2"/>
<polygon fill="none" stroke="#000000" points="695,-38.2 695,-57.2 868,-57.2 868,-38.2 695,-38.2"/>
<polygon fill="#ffffff" stroke="transparent" points="696,-39.2 696,-56.2 759,-56.2 759,-39.2 696,-39.2"/>
<text text-anchor="start" x="698" y="-44.3" font-family="Helvetica,sans-Serif" font-size="11.00" fill="#000000">&lt; 2</text>
<polygon fill="#ffffff" stroke="transparent" points="759,-39.2 759,-56.2 813,-56.2 813,-39.2 759,-39.2"/>
<text text-anchor="start" x="782.9431" y="-44.3" font-family="Helvetica,sans-Serif" font-size="11.00" fill="#000000"> &#160;</text>
<polygon fill="#ffffff" stroke="transparent" points="813,-39.2 813,-56.2 867,-56.2 867,-39.2 813,-39.2"/>
<text text-anchor="start" x="858.8862" y="-44.3" font-family="Helvetica,sans-Serif" font-size="11.00" fill="#000000"> &#160;</text>
<polygon fill="#000000" stroke="#000000" points="759,-39.2 759,-56.2 759,-56.2 759,-39.2 759,-39.2"/>
<polygon fill="#000000" stroke="#000000" points="813,-39.2 813,-56.2 813,-56.2 813,-39.2 813,-39.2"/>
</a>
</g>
</g>
<!-- review_record&#45;&gt;transport_request_version -->
<g id="edge7" class="edge">
<title>review_record:w&#45;&gt;transport_request_version:e</title>
<path fill="none" stroke="#000000" d="M680.6227,-202.9413C661.719,-211.7102 664.4293,-240.09 654,-267.2 636.4652,-312.78 662.3365,-483.2 613.5,-483.2"/>
<polygon fill="#000000" stroke="#000000" points="687.1416,-201.6984 695.6743,-203.7363 691.0708,-200.9492 695,-200.2 695,-200.2 695,-200.2 691.0708,-200.9492 694.3257,-196.6637 687.1416,-201.6984 687.1416,-201.6984"/>
<ellipse fill="none" stroke="#000000" cx="683.9982" cy="-202.2978" rx="3.2" ry="3.2"/>
</g>
<!-- review_record&#45;&gt;transport_request_version -->
<g id="edge8" class="edge">
<title>review_record:w&#45;&gt;transport_request_version:e</title>
<path fill="none" stroke="#000000" d="M680.5996,-180.5948C655.2254,-190.7442 665.8354,-231.3355 654,-267.2 640.1985,-309.0221 657.5405,-461.2 613.5,-461.2"/>
<polygon fill="#000000" stroke="#000000" points="687.1084,-179.5124 695.5906,-181.7512 691.0542,-178.8562 695,-178.2 695,-178.2 695,-178.2 691.0542,-178.8562 694.4094,-174.6488 687.1084,-179.5124 687.1084,-179.5124"/>
<ellipse fill="none" stroke="#000000" cx="683.9517" cy="-180.0374" rx="3.2" ry="3.2"/>
</g>
<!-- pricing_line -->
<g id="node6" class="node">
<title>pricing_line</title>
<g id="a_node6"><a xlink:href="../../tables/pricing_line.html" xlink:title="pricing_line" target="_top">
<polygon fill="#ffffff" stroke="transparent" points="949,-824.2 949,-998.2 1108,-998.2 1108,-824.2 949,-824.2"/>
<polygon fill="#f5f5f5" stroke="transparent" points="949.5,-975.2 949.5,-998.2 1108.5,-998.2 1108.5,-975.2 949.5,-975.2"/>
<polygon fill="none" stroke="#000000" points="949.5,-975.2 949.5,-998.2 1108.5,-998.2 1108.5,-975.2 949.5,-975.2"/>
<text text-anchor="start" x="954.5" y="-983.8" font-family="Helvetica,sans-Serif" font-weight="bold" font-size="11.00" fill="#000000">pricing_line</text>
<text text-anchor="start" x="1073.5437" y="-983.3" font-family="Helvetica,sans-Serif" font-size="11.00" fill="#000000">[table]</text>
<polygon fill="none" stroke="#000000" points="949.5,-953.2 949.5,-975.2 1108.5,-975.2 1108.5,-953.2 949.5,-953.2"/>
<image xlink:href="../../images/primaryKeys.png" width="11px" height="12px" preserveAspectRatio="xMinYMin meet" x="954.5" y="-970.2"/>
<text text-anchor="start" x="969.5" y="-960.3" font-family="Helvetica,sans-Serif" font-size="11.00" fill="#000000">quotation_id</text>
<polygon fill="none" stroke="#000000" points="949.5,-931.2 949.5,-953.2 1108.5,-953.2 1108.5,-931.2 949.5,-931.2"/>
<image xlink:href="../../images/primaryKeys.png" width="11px" height="12px" preserveAspectRatio="xMinYMin meet" x="954.5" y="-948.2"/>
<text text-anchor="start" x="969.5" y="-938.3" font-family="Helvetica,sans-Serif" font-size="11.00" fill="#000000">line_no</text>
<polygon fill="none" stroke="#000000" points="949.5,-909.2 949.5,-931.2 1108.5,-931.2 1108.5,-909.2 949.5,-909.2"/>
<text text-anchor="start" x="969.5" y="-916.3" font-family="Helvetica,sans-Serif" font-size="11.00" fill="#000000">description</text>
<polygon fill="none" stroke="#000000" points="949.5,-887.2 949.5,-909.2 1108.5,-909.2 1108.5,-887.2 949.5,-887.2"/>
<text text-anchor="start" x="969.5" y="-894.3" font-family="Helvetica,sans-Serif" font-size="11.00" fill="#000000">amount</text>
<polygon fill="none" stroke="#000000" points="949.5,-865.2 949.5,-887.2 1108.5,-887.2 1108.5,-865.2 949.5,-865.2"/>
<text text-anchor="start" x="969.5" y="-872.3" font-family="Helvetica,sans-Serif" font-size="11.00" fill="#000000">currency</text>
<polygon fill="none" stroke="#000000" points="949.5,-843.2 949.5,-865.2 1108.5,-865.2 1108.5,-843.2 949.5,-843.2"/>
<text text-anchor="start" x="969.5" y="-850.3" font-family="Helvetica,sans-Serif" font-size="11.00" fill="#000000">contract_reference</text>
<polygon fill="#ffffff" stroke="transparent" points="949.5,-824.2 949.5,-843.2 1108.5,-843.2 1108.5,-824.2 949.5,-824.2"/>
<polygon fill="none" stroke="#000000" points="949.5,-824.2 949.5,-843.2 1108.5,-843.2 1108.5,-824.2 949.5,-824.2"/>
<polygon fill="#ffffff" stroke="transparent" points="950.5,-825.2 950.5,-842.2 1009.5,-842.2 1009.5,-825.2 950.5,-825.2"/>
<text text-anchor="start" x="952.5" y="-830.3" font-family="Helvetica,sans-Serif" font-size="11.00" fill="#000000">&lt; 1</text>
<polygon fill="#ffffff" stroke="transparent" points="1009.5,-825.2 1009.5,-842.2 1058.5,-842.2 1058.5,-825.2 1009.5,-825.2"/>
<text text-anchor="start" x="1030.9431" y="-830.3" font-family="Helvetica,sans-Serif" font-size="11.00" fill="#000000"> &#160;</text>
<polygon fill="#ffffff" stroke="transparent" points="1058.5,-825.2 1058.5,-842.2 1107.5,-842.2 1107.5,-825.2 1058.5,-825.2"/>
<text text-anchor="start" x="1099.3862" y="-830.3" font-family="Helvetica,sans-Serif" font-size="11.00" fill="#000000"> &#160;</text>
<polygon fill="#000000" stroke="#000000" points="1009.5,-825.2 1009.5,-842.2 1009.5,-842.2 1009.5,-825.2 1009.5,-825.2"/>
<polygon fill="#000000" stroke="#000000" points="1058.5,-825.2 1058.5,-842.2 1058.5,-842.2 1058.5,-825.2 1058.5,-825.2"/>
</a>
</g>
</g>
<!-- pricing_line&#45;&gt;quotation -->
<g id="edge1" class="edge">
<title>pricing_line:w&#45;&gt;quotation:e</title>
<path fill="none" stroke="#000000" d="M934.8428,-964.2C923.4139,-964.2 916.1563,-964.2 900,-964.2"/>
<polygon fill="#000000" stroke="#000000" points="941.5,-964.2001 949.5,-967.8 945.5,-964.2 949.5,-964.2 949.5,-964.2 949.5,-964.2 945.5,-964.2 949.5,-960.6 941.5,-964.2001 941.5,-964.2001"/>
<ellipse fill="none" stroke="#000000" cx="938.3" cy="-964.2001" rx="3.2" ry="3.2"/>
</g>
</g>
</svg>
