<?xml version="1.0" encoding="UTF-8" standalone="no"?>
<!DOCTYPE svg PUBLIC "-//W3C//DTD SVG 1.1//EN"
 "http://www.w3.org/Graphics/SVG/1.1/DTD/svg11.dtd">
<!-- Generated by graphviz version 2.40.1 (20161225.0304)
 -->
<!-- Title: twoDegreesRelationshipsDiagram Pages: 1 -->
<svg width="795pt" height="459pt"
 viewBox="0.00 0.00 795.00 459.20" xmlns="http://www.w3.org/2000/svg" xmlns:xlink="http://www.w3.org/1999/xlink">
<g id="graph0" class="graph" transform="scale(1 1) rotate(0) translate(4 455.2)">
<title>twoDegreesRelationshipsDiagram</title>
<polygon fill="#ffffff" stroke="transparent" points="-4,4 -4,-455.2 791,-455.2 791,4 -4,4"/>
<text text-anchor="middle" x="72.4936" y="-7.3" font-family="Helvetica,sans-Serif" font-size="11.00" fill="#000000">Generated by SchemaSpy</text>
<!-- quotation -->
<g id="node1" class="node">
<title>quotation</title>
<g id="a_node1"><a xlink:href="../../tables/quotation.html" xlink:title="quotation" target="_top">
<polygon fill="#ffffff" stroke="transparent" points="588.5,-386.2 588.5,-447.2 698.5,-447.2 698.5,-386.2 588.5,-386.2"/>
<polygon fill="#f5f5f5" stroke="transparent" points="588.5,-423.7 588.5,-446.7 698.5,-446.7 698.5,-423.7 588.5,-423.7"/>
<polygon fill="none" stroke="#000000" points="588.5,-423.7 588.5,-446.7 698.5,-446.7 698.5,-423.7 588.5,-423.7"/>
<text text-anchor="start" x="593.5" y="-432.3" font-family="Helvetica,sans-Serif" font-weight="bold" font-size="11.00" fill="#000000">quotation</text>
<text text-anchor="start" x="664.0219" y="-431.8" font-family="Helvetica,sans-Serif" font-size="11.00" fill="#000000">[table]</text>
<polygon fill="none" stroke="#000000" points="588.5,-404.7 588.5,-423.7 698.5,-423.7 698.5,-404.7 588.5,-404.7"/>
<text text-anchor="start" x="591.5" y="-410.8" font-family="Helvetica,sans-Serif" font-size="11.00" fill="#000000">...</text>
<polygon fill="#ffffff" stroke="transparent" points="588.5,-385.7 588.5,-404.7 698.5,-404.7 698.5,-385.7 588.5,-385.7"/>
<polygon fill="none" stroke="#000000" points="588.5,-385.7 588.5,-404.7 698.5,-404.7 698.5,-385.7 588.5,-385.7"/>
<polygon fill="#ffffff" stroke="transparent" points="589.5,-386.7 589.5,-403.7 628.5,-403.7 628.5,-386.7 589.5,-386.7"/>
<text text-anchor="start" x="591.5" y="-391.8" font-family="Helvetica,sans-Serif" font-size="11.00" fill="#000000">&lt; 3</text>
<polygon fill="#ffffff" stroke="transparent" points="628.5,-386.7 628.5,-403.7 658.5,-403.7 658.5,-386.7 628.5,-386.7"/>
<text text-anchor="start" x="640.4431" y="-391.8" font-family="Helvetica,sans-Serif" font-size="11.00" fill="#000000"> &#160;</text>
<polygon fill="#ffffff" stroke="transparent" points="658.5,-386.7 658.5,-403.7 697.5,-403.7 697.5,-386.7 658.5,-386.7"/>
<text text-anchor="start" x="679.9053" y="-391.8" font-family="Helvetica,sans-Serif" font-size="11.00" fill="#000000">3 &gt;</text>
<polygon fill="#000000" stroke="#000000" points="628.5,-386.7 628.5,-403.7 628.5,-403.7 628.5,-386.7 628.5,-386.7"/>
<polygon fill="#000000" stroke="#000000" points="658.5,-386.7 658.5,-403.7 658.5,-403.7 658.5,-386.7 658.5,-386.7"/>
</a>
</g>
</g>
<!-- transport_request_version -->
<g id="node2" class="node">
<title>transport_request_version</title>
<g id="a_node2"><a xlink:href="../../tables/transport_request_version.html" xlink:title="transport_request_version" target="_top">
<polygon fill="#ffffff" stroke="transparent" points="228,-258.2 228,-363.2 459,-363.2 459,-258.2 228,-258.2"/>
<polygon fill="#f5f5f5" stroke="transparent" points="228.5,-339.7 228.5,-362.7 459.5,-362.7 459.5,-339.7 228.5,-339.7"/>
<polygon fill="none" stroke="#000000" points="228.5,-339.7 228.5,-362.7 459.5,-362.7 459.5,-339.7 228.5,-339.7"/>
<text text-anchor="start" x="233.5" y="-348.3" font-family="Helvetica,sans-Serif" font-weight="bold" font-size="11.00" fill="#000000">transport_request_version</text>
<text text-anchor="start" x="425.0219" y="-347.8" font-family="Helvetica,sans-Serif" font-size="11.00" fill="#000000">[table]</text>
<polygon fill="none" stroke="#000000" points="228.5,-317.7 228.5,-339.7 459.5,-339.7 459.5,-317.7 228.5,-317.7"/>
<image xlink:href="../../images/primaryKeys.png" width="11px" height="12px" preserveAspectRatio="xMinYMin meet" x="233.5" y="-334.7"/>
<text text-anchor="start" x="257.5" y="-324.8" font-family="Helvetica,sans-Serif" font-size="11.00" fill="#000000">transport_request_id</text>
<polygon fill="none" stroke="#000000" points="228.5,-295.7 228.5,-317.7 459.5,-317.7 459.5,-295.7 228.5,-295.7"/>
<image xlink:href="../../images/primaryKeys.png" width="11px" height="12px" preserveAspectRatio="xMinYMin meet" x="233.5" y="-312.7"/>
<text text-anchor="start" x="257.5" y="-302.8" font-family="Helvetica,sans-Serif" font-size="11.00" fill="#000000">version_no</text>
<polygon fill="none" stroke="#000000" points="228.5,-276.7 228.5,-295.7 459.5,-295.7 459.5,-276.7 228.5,-276.7"/>
<text text-anchor="start" x="231.5" y="-282.8" font-family="Helvetica,sans-Serif" font-size="11.00" fill="#000000">...</text>
<polygon fill="#ffffff" stroke="transparent" points="228.5,-257.7 228.5,-276.7 459.5,-276.7 459.5,-257.7 228.5,-257.7"/>
<polygon fill="none" stroke="#000000" points="228.5,-257.7 228.5,-276.7 459.5,-276.7 459.5,-257.7 228.5,-257.7"/>
<polygon fill="#ffffff" stroke="transparent" points="229.5,-258.7 229.5,-275.7 309.5,-275.7 309.5,-258.7 229.5,-258.7"/>
<text text-anchor="start" x="231.5" y="-263.8" font-family="Helvetica,sans-Serif" font-size="11.00" fill="#000000">&lt; 1</text>
<polygon fill="#ffffff" stroke="transparent" points="309.5,-258.7 309.5,-275.7 379.5,-275.7 379.5,-258.7 309.5,-258.7"/>
<text text-anchor="start" x="341.4431" y="-263.8" font-family="Helvetica,sans-Serif" font-size="11.00" fill="#000000"> &#160;</text>
<polygon fill="#ffffff" stroke="transparent" points="379.5,-258.7 379.5,-275.7 458.5,-275.7 458.5,-258.7 379.5,-258.7"/>
<text text-anchor="start" x="440.9053" y="-263.8" font-family="Helvetica,sans-Serif" font-size="11.00" fill="#000000">6 &gt;</text>
<polygon fill="#000000" stroke="#000000" points="309.5,-258.7 309.5,-275.7 309.5,-275.7 309.5,-258.7 309.5,-258.7"/>
<polygon fill="#000000" stroke="#000000" points="379.5,-258.7 379.5,-275.7 379.5,-275.7 379.5,-258.7 379.5,-258.7"/>
</a>
</g>
</g>
<!-- quotation&#45;&gt;transport_request_version -->
<g id="edge1" class="edge">
<title>quotation:w&#45;&gt;transport_request_version:e</title>
<path fill="none" stroke="#000000" d="M577.6887,-413.3927C543.4984,-411.3175 531.4219,-398.7337 500,-375.7 477.7608,-359.3977 487.0744,-328.7 459.5,-328.7"/>
<polygon fill="#000000" stroke="#000000" points="587.814,-409.6789 587.5866,-417.6756 585.9873,-417.6302 586.2147,-409.6334 587.814,-409.6789"/>
<polyline fill="none" stroke="#000000" points="588.5,-413.7 584.5016,-413.5863 "/>
<ellipse fill="none" stroke="#000000" cx="581.3029" cy="-413.4954" rx="3.2" ry="3.2"/>
</g>
<!-- quotation&#45;&gt;transport_request_version -->
<g id="edge2" class="edge">
<title>quotation:w&#45;&gt;transport_request_version:e</title>
<path fill="none" stroke="#000000" d="M573.724,-413.2286C542.007,-410.9878 528.0898,-400.4761 500,-375.7 473.3322,-352.1782 495.059,-306.7 459.5,-306.7"/>
<polygon fill="#000000" stroke="#000000" points="580.5041,-413.4448 588.3852,-417.2982 584.502,-413.5724 588.5,-413.7 588.5,-413.7 588.5,-413.7 584.502,-413.5724 588.6148,-410.1018 580.5041,-413.4448 580.5041,-413.4448"/>
<ellipse fill="none" stroke="#000000" cx="577.3057" cy="-413.3428" rx="3.2" ry="3.2"/>
</g>
<!-- transport_request -->
<g id="node5" class="node">
<title>transport_request</title>
<g id="a_node5"><a xlink:href="../../tables/transport_request.html" xlink:title="transport_request" target="_top">
<polygon fill="#ffffff" stroke="transparent" points="8,-301.2 8,-362.2 179,-362.2 179,-301.2 8,-301.2"/>
<polygon fill="#f5f5f5" stroke="transparent" points="8.5,-338.7 8.5,-361.7 179.5,-361.7 179.5,-338.7 8.5,-338.7"/>
<polygon fill="none" stroke="#000000" points="8.5,-338.7 8.5,-361.7 179.5,-361.7 179.5,-338.7 8.5,-338.7"/>
<text text-anchor="start" x="13.5" y="-347.3" font-family="Helvetica,sans-Serif" font-weight="bold" font-size="11.00" fill="#000000">transport_request</text>
<text text-anchor="start" x="145.0219" y="-346.8" font-family="Helvetica,sans-Serif" font-size="11.00" fill="#000000">[table]</text>
<polygon fill="none" stroke="#000000" points="8.5,-319.7 8.5,-338.7 179.5,-338.7 179.5,-319.7 8.5,-319.7"/>
<text text-anchor="start" x="11.5" y="-325.8" font-family="Helvetica,sans-Serif" font-size="11.00" fill="#000000">...</text>
<polygon fill="#ffffff" stroke="transparent" points="8.5,-300.7 8.5,-319.7 179.5,-319.7 179.5,-300.7 8.5,-300.7"/>
<polygon fill="none" stroke="#000000" points="8.5,-300.7 8.5,-319.7 179.5,-319.7 179.5,-300.7 8.5,-300.7"/>
<polygon fill="#ffffff" stroke="transparent" points="9.5,-301.7 9.5,-318.7 63.5,-318.7 63.5,-301.7 9.5,-301.7"/>
<text text-anchor="start" x="11.5" y="-306.8" font-family="Helvetica,sans-Serif" font-size="11.00" fill="#000000"> &#160;</text>
<polygon fill="#ffffff" stroke="transparent" points="63.5,-301.7 63.5,-318.7 116.5,-318.7 116.5,-301.7 63.5,-301.7"/>
<text text-anchor="start" x="86.9431" y="-306.8" font-family="Helvetica,sans-Serif" font-size="11.00" fill="#000000"> &#160;</text>
<polygon fill="#ffffff" stroke="transparent" points="116.5,-301.7 116.5,-318.7 178.5,-318.7 178.5,-301.7 116.5,-301.7"/>
<text text-anchor="start" x="160.9053" y="-306.8" font-family="Helvetica,sans-Serif" font-size="11.00" fill="#000000">1 &gt;</text>
<polygon fill="#000000" stroke="#000000" points="63.5,-301.7 63.5,-318.7 63.5,-318.7 63.5,-301.7 63.5,-301.7"/>
<polygon fill="#000000" stroke="#000000" points="116.5,-301.7 116.5,-318.7 116.5,-318.7 116.5,-301.7 116.5,-301.7"/>
</a>
</g>
</g>
<!-- transport_request_version&#45;&gt;transport_request -->
<g id="edge7" class="edge">
<title>transport_request_version:w&#45;&gt;transport_request:e</title>
<path fill="none" stroke="#000000" d="M213.9909,-328.7C202.6774,-328.7 195.4931,-328.7 179.5,-328.7"/>
<polygon fill="#000000" stroke="#000000" points="220.5,-328.7001 228.5,-332.3 224.5,-328.7 228.5,-328.7 228.5,-328.7 228.5,-328.7 224.5,-328.7 228.5,-325.1 220.5,-328.7001 220.5,-328.7001"/>
<ellipse fill="none" stroke="#000000" cx="217.3" cy="-328.7001" rx="3.2" ry="3.2"/>
</g>
<!-- required_document -->
<g id="node3" class="node">
<title>required_document</title>
<g id="a_node3"><a xlink:href="../../tables/required_document.html" xlink:title="required_document" target="_top">
<polygon fill="#ffffff" stroke="transparent" points="508,-120.7 508,-364.7 779,-364.7 779,-120.7 508,-120.7"/>
<polygon fill="#f5f5f5" stroke="transparent" points="510.5,-339.7 510.5,-362.7 777.5,-362.7 777.5,-339.7 510.5,-339.7"/>
<polygon fill="none" stroke="#000000" points="510.5,-339.7 510.5,-362.7 777.5,-362.7 777.5,-339.7 510.5,-339.7"/>
<text text-anchor="start" x="515.5" y="-348.3" font-family="Helvetica,sans-Serif" font-weight="bold" font-size="11.00" fill="#000000">required_document</text>
<text text-anchor="start" x="742.5437" y="-347.8" font-family="Helvetica,sans-Serif" font-size="11.00" fill="#000000">[table]</text>
<polygon fill="none" stroke="#000000" points="510.5,-317.7 510.5,-339.7 683.5,-339.7 683.5,-317.7 510.5,-317.7"/>
<image xlink:href="../../images/primaryKeys.png" width="11px" height="12px" preserveAspectRatio="xMinYMin meet" x="515.5" y="-334.7"/>
<text text-anchor="start" x="530.5" y="-324.8" font-family="Helvetica,sans-Serif" font-size="11.00" fill="#000000">transport_request_id</text>
<polygon fill="none" stroke="#000000" points="683.5,-317.7 683.5,-339.7 777.5,-339.7 777.5,-317.7 683.5,-317.7"/>
<text text-anchor="start" x="686.4758" y="-325.4" font-family="Helvetica,sans-Serif" font-size="11.00" fill="#000000">uuid[2147483647]</text>
<polygon fill="none" stroke="#000000" points="510.5,-295.7 510.5,-317.7 683.5,-317.7 683.5,-295.7 510.5,-295.7"/>
<image xlink:href="../../images/primaryKeys.png" width="11px" height="12px" preserveAspectRatio="xMinYMin meet" x="515.5" y="-312.7"/>
<text text-anchor="start" x="530.5" y="-302.8" font-family="Helvetica,sans-Serif" font-size="11.00" fill="#000000">version_no</text>
<polygon fill="none" stroke="#000000" points="683.5,-295.7 683.5,-317.7 777.5,-317.7 777.5,-295.7 683.5,-295.7"/>
<text text-anchor="start" x="686.5" y="-303.4" font-family="Helvetica,sans-Serif" font-size="11.00" fill="#000000">int4[10]</text>
<polygon fill="none" stroke="#000000" points="510.5,-273.7 510.5,-295.7 683.5,-295.7 683.5,-273.7 510.5,-273.7"/>
<image xlink:href="../../images/primaryKeys.png" width="11px" height="12px" preserveAspectRatio="xMinYMin meet" x="515.5" y="-290.7"/>
<text text-anchor="start" x="530.5" y="-280.8" font-family="Helvetica,sans-Serif" font-size="11.00" fill="#000000">document_no</text>
<polygon fill="none" stroke="#000000" points="683.5,-273.7 683.5,-295.7 777.5,-295.7 777.5,-273.7 683.5,-273.7"/>
<text text-anchor="start" x="686.5" y="-281.4" font-family="Helvetica,sans-Serif" font-size="11.00" fill="#000000">int4[10]</text>
<polygon fill="none" stroke="#000000" points="510.5,-251.7 510.5,-273.7 683.5,-273.7 683.5,-251.7 510.5,-251.7"/>
<text text-anchor="start" x="530.5" y="-258.8" font-family="Helvetica,sans-Serif" font-size="11.00" fill="#000000">document_type</text>
<polygon fill="none" stroke="#000000" points="683.5,-251.7 683.5,-273.7 777.5,-273.7 777.5,-251.7 683.5,-251.7"/>
<text text-anchor="start" x="686.5" y="-259.4" font-family="Helvetica,sans-Serif" font-size="11.00" fill="#000000">varchar[30]</text>
<polygon fill="none" stroke="#000000" points="510.5,-229.7 510.5,-251.7 683.5,-251.7 683.5,-229.7 510.5,-229.7"/>
<text text-anchor="start" x="530.5" y="-236.8" font-family="Helvetica,sans-Serif" font-size="11.00" fill="#000000">file_name</text>
<polygon fill="none" stroke="#000000" points="683.5,-229.7 683.5,-251.7 777.5,-251.7 777.5,-229.7 683.5,-229.7"/>
<text text-anchor="start" x="686.5" y="-237.4" font-family="Helvetica,sans-Serif" font-size="11.00" fill="#000000">varchar[255]</text>
<polygon fill="none" stroke="#000000" points="510.5,-207.7 510.5,-229.7 683.5,-229.7 683.5,-207.7 510.5,-207.7"/>
<text text-anchor="start" x="530.5" y="-214.8" font-family="Helvetica,sans-Serif" font-size="11.00" fill="#000000">media_type</text>
<polygon fill="none" stroke="#000000" points="683.5,-207.7 683.5,-229.7 777.5,-229.7 777.5,-207.7 683.5,-207.7"/>
<text text-anchor="start" x="686.5" y="-215.4" font-family="Helvetica,sans-Serif" font-size="11.00" fill="#000000">varchar[30]</text>
<polygon fill="none" stroke="#000000" points="510.5,-185.7 510.5,-207.7 683.5,-207.7 683.5,-185.7 510.5,-185.7"/>
<text text-anchor="start" x="530.5" y="-192.8" font-family="Helvetica,sans-Serif" font-size="11.00" fill="#000000">size_bytes</text>
<polygon fill="none" stroke="#000000" points="683.5,-185.7 683.5,-207.7 777.5,-207.7 777.5,-185.7 683.5,-185.7"/>
<text text-anchor="start" x="686.5" y="-193.4" font-family="Helvetica,sans-Serif" font-size="11.00" fill="#000000">int8[19]</text>
<polygon fill="none" stroke="#000000" points="510.5,-163.7 510.5,-185.7 683.5,-185.7 683.5,-163.7 510.5,-163.7"/>
<text text-anchor="start" x="530.5" y="-170.8" font-family="Helvetica,sans-Serif" font-size="11.00" fill="#000000">sha256</text>
<polygon fill="none" stroke="#000000" points="683.5,-163.7 683.5,-185.7 777.5,-185.7 777.5,-163.7 683.5,-163.7"/>
<text text-anchor="start" x="686.5" y="-171.4" font-family="Helvetica,sans-Serif" font-size="11.00" fill="#000000">bpchar[64]</text>
<polygon fill="none" stroke="#000000" points="510.5,-141.7 510.5,-163.7 683.5,-163.7 683.5,-141.7 510.5,-141.7"/>
<text text-anchor="start" x="530.5" y="-148.8" font-family="Helvetica,sans-Serif" font-size="11.00" fill="#000000">object_key</text>
<polygon fill="none" stroke="#000000" points="683.5,-141.7 683.5,-163.7 777.5,-163.7 777.5,-141.7 683.5,-141.7"/>
<text text-anchor="start" x="686.5" y="-149.4" font-family="Helvetica,sans-Serif" font-size="11.00" fill="#000000">varchar[500]</text>
<polygon fill="#ffffff" stroke="transparent" points="510.5,-122.7 510.5,-141.7 777.5,-141.7 777.5,-122.7 510.5,-122.7"/>
<polygon fill="none" stroke="#000000" points="510.5,-122.7 510.5,-141.7 777.5,-141.7 777.5,-122.7 510.5,-122.7"/>
<polygon fill="#ffffff" stroke="transparent" points="511.5,-123.7 511.5,-140.7 603.5,-140.7 603.5,-123.7 511.5,-123.7"/>
<text text-anchor="start" x="513.5" y="-128.8" font-family="Helvetica,sans-Serif" font-size="11.00" fill="#000000">&lt; 2</text>
<polygon fill="#ffffff" stroke="transparent" points="603.5,-123.7 603.5,-140.7 685.5,-140.7 685.5,-123.7 603.5,-123.7"/>
<text text-anchor="start" x="641.4431" y="-128.8" font-family="Helvetica,sans-Serif" font-size="11.00" fill="#000000"> &#160;</text>
<polygon fill="#ffffff" stroke="transparent" points="685.5,-123.7 685.5,-140.7 776.5,-140.7 776.5,-123.7 685.5,-123.7"/>
<text text-anchor="start" x="758.9053" y="-128.8" font-family="Helvetica,sans-Serif" font-size="11.00" fill="#000000">0 &gt;</text>
<polygon fill="#000000" stroke="#000000" points="603.5,-123.7 603.5,-140.7 603.5,-140.7 603.5,-123.7 603.5,-123.7"/>
<polygon fill="#000000" stroke="#000000" points="685.5,-123.7 685.5,-140.7 685.5,-140.7 685.5,-123.7 685.5,-123.7"/>
<polygon fill="none" stroke="#000000" stroke-width="2" points="509,-121.7 509,-363.7 778,-363.7 778,-121.7 509,-121.7"/>
</a>
</g>
</g>
<!-- required_document&#45;&gt;transport_request_version -->
<g id="edge3" class="edge">
<title>required_document:w&#45;&gt;transport_request_version:e</title>
<path fill="none" stroke="#000000" d="M495.776,-328.7C483.7815,-328.7 476.3229,-328.7 459.5,-328.7"/>
<polygon fill="#000000" stroke="#000000" points="502.5,-328.7001 510.5,-332.3 506.5,-328.7 510.5,-328.7 510.5,-328.7 510.5,-328.7 506.5,-328.7 510.5,-325.1 502.5,-328.7001 502.5,-328.7001"/>
<ellipse fill="none" stroke="#000000" cx="499.3" cy="-328.7001" rx="3.2" ry="3.2"/>
</g>
<!-- required_document&#45;&gt;transport_request_version -->
<g id="edge4" class="edge">
<title>required_document:w&#45;&gt;transport_request_version:e</title>
<path fill="none" stroke="#000000" d="M495.776,-306.7C483.7815,-306.7 476.3229,-306.7 459.5,-306.7"/>
<polygon fill="#000000" stroke="#000000" points="502.5,-306.7001 510.5,-310.3 506.5,-306.7 510.5,-306.7 510.5,-306.7 510.5,-306.7 506.5,-306.7 510.5,-303.1 502.5,-306.7001 502.5,-306.7001"/>
<ellipse fill="none" stroke="#000000" cx="499.3" cy="-306.7001" rx="3.2" ry="3.2"/>
</g>
<!-- review_record -->
<g id="node4" class="node">
<title>review_record</title>
<g id="a_node4"><a xlink:href="../../tables/review_record.html" xlink:title="review_record" target="_top">
<polygon fill="#ffffff" stroke="transparent" points="572.5,-38.2 572.5,-99.2 714.5,-99.2 714.5,-38.2 572.5,-38.2"/>
<polygon fill="#f5f5f5" stroke="transparent" points="572.5,-75.7 572.5,-98.7 714.5,-98.7 714.5,-75.7 572.5,-75.7"/>
<polygon fill="none" stroke="#000000" points="572.5,-75.7 572.5,-98.7 714.5,-98.7 714.5,-75.7 572.5,-75.7"/>
<text text-anchor="start" x="577.5" y="-84.3" font-family="Helvetica,sans-Serif" font-weight="bold" font-size="11.00" fill="#000000">review_record</text>
<text text-anchor="start" x="680.0219" y="-83.8" font-family="Helvetica,sans-Serif" font-size="11.00" fill="#000000">[table]</text>
<polygon fill="none" stroke="#000000" points="572.5,-56.7 572.5,-75.7 714.5,-75.7 714.5,-56.7 572.5,-56.7"/>
<text text-anchor="start" x="575.5" y="-62.8" font-family="Helvetica,sans-Serif" font-size="11.00" fill="#000000">...</text>
<polygon fill="#ffffff" stroke="transparent" points="572.5,-37.7 572.5,-56.7 714.5,-56.7 714.5,-37.7 572.5,-37.7"/>
<polygon fill="none" stroke="#000000" points="572.5,-37.7 572.5,-56.7 714.5,-56.7 714.5,-37.7 572.5,-37.7"/>
<polygon fill="#ffffff" stroke="transparent" points="573.5,-38.7 573.5,-55.7 626.5,-55.7 626.5,-38.7 573.5,-38.7"/>
<text text-anchor="start" x="575.5" y="-43.8" font-family="Helvetica,sans-Serif" font-size="11.00" fill="#000000">&lt; 2</text>
<polygon fill="#ffffff" stroke="transparent" points="626.5,-38.7 626.5,-55.7 670.5,-55.7 670.5,-38.7 626.5,-38.7"/>
<text text-anchor="start" x="645.4431" y="-43.8" font-family="Helvetica,sans-Serif" font-size="11.00" fill="#000000"> &#160;</text>
<polygon fill="#ffffff" stroke="transparent" points="670.5,-38.7 670.5,-55.7 713.5,-55.7 713.5,-38.7 670.5,-38.7"/>
<text text-anchor="start" x="705.3862" y="-43.8" font-family="Helvetica,sans-Serif" font-size="11.00" fill="#000000"> &#160;</text>
<polygon fill="#000000" stroke="#000000" points="626.5,-38.7 626.5,-55.7 626.5,-55.7 626.5,-38.7 626.5,-38.7"/>
<polygon fill="#000000" stroke="#000000" points="670.5,-38.7 670.5,-55.7 670.5,-55.7 670.5,-38.7 670.5,-38.7"/>
</a>
</g>
</g>
<!-- review_record&#45;&gt;transport_request_version -->
<g id="edge5" class="edge">
<title>review_record:w&#45;&gt;transport_request_version:e</title>
<path fill="none" stroke="#000000" d="M557.877,-66.523C530.7067,-69.8984 518.3889,-83.7918 500,-110.7 472.1987,-151.3811 508.7734,-328.7 459.5,-328.7"/>
<polygon fill="#000000" stroke="#000000" points="564.5126,-66.1496 572.7023,-69.2943 568.5063,-65.9248 572.5,-65.7 572.5,-65.7 572.5,-65.7 568.5063,-65.9248 572.2977,-62.1057 564.5126,-66.1496 564.5126,-66.1496"/>
<ellipse fill="none" stroke="#000000" cx="561.3177" cy="-66.3295" rx="3.2" ry="3.2"/>
</g>
<!-- review_record&#45;&gt;transport_request_version -->
<g id="edge6" class="edge">
<title>review_record:w&#45;&gt;transport_request_version:e</title>
<path fill="none" stroke="#000000" d="M557.893,-66.5341C530.7824,-69.9507 518.6581,-83.9778 500,-110.7 449.0767,-183.6326 548.4514,-306.7 459.5,-306.7"/>
<polygon fill="#000000" stroke="#000000" points="564.513,-66.1561 572.7053,-69.2941 568.5065,-65.9281 572.5,-65.7 572.5,-65.7 572.5,-65.7 568.5065,-65.9281 572.2947,-62.1059 564.513,-66.1561 564.513,-66.1561"/>
<ellipse fill="none" stroke="#000000" cx="561.3182" cy="-66.3386" rx="3.2" ry="3.2"/>
</g>
</g>
</svg>
