<?xml version="1.0" encoding="UTF-8" standalone="no"?>
<!DOCTYPE svg PUBLIC "-//W3C//DTD SVG 1.1//EN"
 "http://www.w3.org/Graphics/SVG/1.1/DTD/svg11.dtd">
<!-- Generated by graphviz version 2.40.1 (20161225.0304)
 -->
<!-- Title: oneDegreeRelationshipsDiagram Pages: 1 -->
<svg width="575pt" height="294pt"
 viewBox="0.00 0.00 575.00 294.20" xmlns="http://www.w3.org/2000/svg" xmlns:xlink="http://www.w3.org/1999/xlink">
<g id="graph0" class="graph" transform="scale(1 1) rotate(0) translate(4 290.2)">
<title>oneDegreeRelationshipsDiagram</title>
<polygon fill="#ffffff" stroke="transparent" points="-4,4 -4,-290.2 571,-290.2 571,4 -4,4"/>
<text text-anchor="middle" x="72.4936" y="-7.3" font-family="Helvetica,sans-Serif" font-size="11.00" fill="#000000">Generated by SchemaSpy</text>
<!-- required_document -->
<g id="node1" class="node">
<title>required_document</title>
<g id="a_node1"><a xlink:href="../../tables/required_document.html" xlink:title="required_document" target="_top">
<polygon fill="#ffffff" stroke="transparent" points="288,-38.2 288,-282.2 559,-282.2 559,-38.2 288,-38.2"/>
<polygon fill="#f5f5f5" stroke="transparent" points="290.5,-257.2 290.5,-280.2 557.5,-280.2 557.5,-257.2 290.5,-257.2"/>
<polygon fill="none" stroke="#000000" points="290.5,-257.2 290.5,-280.2 557.5,-280.2 557.5,-257.2 290.5,-257.2"/>
<text text-anchor="start" x="295.5" y="-265.8" font-family="Helvetica,sans-Serif" font-weight="bold" font-size="11.00" fill="#000000">required_document</text>
<text text-anchor="start" x="522.5437" y="-265.3" font-family="Helvetica,sans-Serif" font-size="11.00" fill="#000000">[table]</text>
<polygon fill="none" stroke="#000000" points="290.5,-235.2 290.5,-257.2 463.5,-257.2 463.5,-235.2 290.5,-235.2"/>
<image xlink:href="../../images/primaryKeys.png" width="11px" height="12px" preserveAspectRatio="xMinYMin meet" x="295.5" y="-252.2"/>
<text text-anchor="start" x="310.5" y="-242.3" font-family="Helvetica,sans-Serif" font-size="11.00" fill="#000000">transport_request_id</text>
<polygon fill="none" stroke="#000000" points="463.5,-235.2 463.5,-257.2 557.5,-257.2 557.5,-235.2 463.5,-235.2"/>
<text text-anchor="start" x="466.4758" y="-242.9" font-family="Helvetica,sans-Serif" font-size="11.00" fill="#000000">uuid[2147483647]</text>
<polygon fill="none" stroke="#000000" points="290.5,-213.2 290.5,-235.2 463.5,-235.2 463.5,-213.2 290.5,-213.2"/>
<image xlink:href="../../images/primaryKeys.png" width="11px" height="12px" preserveAspectRatio="xMinYMin meet" x="295.5" y="-230.2"/>
<text text-anchor="start" x="310.5" y="-220.3" font-family="Helvetica,sans-Serif" font-size="11.00" fill="#000000">version_no</text>
<polygon fill="none" stroke="#000000" points="463.5,-213.2 463.5,-235.2 557.5,-235.2 557.5,-213.2 463.5,-213.2"/>
<text text-anchor="start" x="466.5" y="-220.9" font-family="Helvetica,sans-Serif" font-size="11.00" fill="#000000">int4[10]</text>
<polygon fill="none" stroke="#000000" points="290.5,-191.2 290.5,-213.2 463.5,-213.2 463.5,-191.2 290.5,-191.2"/>
<image xlink:href="../../images/primaryKeys.png" width="11px" height="12px" preserveAspectRatio="xMinYMin meet" x="295.5" y="-208.2"/>
<text text-anchor="start" x="310.5" y="-198.3" font-family="Helvetica,sans-Serif" font-size="11.00" fill="#000000">document_no</text>
<polygon fill="none" stroke="#000000" points="463.5,-191.2 463.5,-213.2 557.5,-213.2 557.5,-191.2 463.5,-191.2"/>
<text text-anchor="start" x="466.5" y="-198.9" font-family="Helvetica,sans-Serif" font-size="11.00" fill="#000000">int4[10]</text>
<polygon fill="none" stroke="#000000" points="290.5,-169.2 290.5,-191.2 463.5,-191.2 463.5,-169.2 290.5,-169.2"/>
<text text-anchor="start" x="310.5" y="-176.3" font-family="Helvetica,sans-Serif" font-size="11.00" fill="#000000">document_type</text>
<polygon fill="none" stroke="#000000" points="463.5,-169.2 463.5,-191.2 557.5,-191.2 557.5,-169.2 463.5,-169.2"/>
<text text-anchor="start" x="466.5" y="-176.9" font-family="Helvetica,sans-Serif" font-size="11.00" fill="#000000">varchar[30]</text>
<polygon fill="none" stroke="#000000" points="290.5,-147.2 290.5,-169.2 463.5,-169.2 463.5,-147.2 290.5,-147.2"/>
<text text-anchor="start" x="310.5" y="-154.3" font-family="Helvetica,sans-Serif" font-size="11.00" fill="#000000">file_name</text>
<polygon fill="none" stroke="#000000" points="463.5,-147.2 463.5,-169.2 557.5,-169.2 557.5,-147.2 463.5,-147.2"/>
<text text-anchor="start" x="466.5" y="-154.9" font-family="Helvetica,sans-Serif" font-size="11.00" fill="#000000">varchar[255]</text>
<polygon fill="none" stroke="#000000" points="290.5,-125.2 290.5,-147.2 463.5,-147.2 463.5,-125.2 290.5,-125.2"/>
<text text-anchor="start" x="310.5" y="-132.3" font-family="Helvetica,sans-Serif" font-size="11.00" fill="#000000">media_type</text>
<polygon fill="none" stroke="#000000" points="463.5,-125.2 463.5,-147.2 557.5,-147.2 557.5,-125.2 463.5,-125.2"/>
<text text-anchor="start" x="466.5" y="-132.9" font-family="Helvetica,sans-Serif" font-size="11.00" fill="#000000">varchar[30]</text>
<polygon fill="none" stroke="#000000" points="290.5,-103.2 290.5,-125.2 463.5,-125.2 463.5,-103.2 290.5,-103.2"/>
<text text-anchor="start" x="310.5" y="-110.3" font-family="Helvetica,sans-Serif" font-size="11.00" fill="#000000">size_bytes</text>
<polygon fill="none" stroke="#000000" points="463.5,-103.2 463.5,-125.2 557.5,-125.2 557.5,-103.2 463.5,-103.2"/>
<text text-anchor="start" x="466.5" y="-110.9" font-family="Helvetica,sans-Serif" font-size="11.00" fill="#000000">int8[19]</text>
<polygon fill="none" stroke="#000000" points="290.5,-81.2 290.5,-103.2 463.5,-103.2 463.5,-81.2 290.5,-81.2"/>
<text text-anchor="start" x="310.5" y="-88.3" font-family="Helvetica,sans-Serif" font-size="11.00" fill="#000000">sha256</text>
<polygon fill="none" stroke="#000000" points="463.5,-81.2 463.5,-103.2 557.5,-103.2 557.5,-81.2 463.5,-81.2"/>
<text text-anchor="start" x="466.5" y="-88.9" font-family="Helvetica,sans-Serif" font-size="11.00" fill="#000000">bpchar[64]</text>
<polygon fill="none" stroke="#000000" points="290.5,-59.2 290.5,-81.2 463.5,-81.2 463.5,-59.2 290.5,-59.2"/>
<text text-anchor="start" x="310.5" y="-66.3" font-family="Helvetica,sans-Serif" font-size="11.00" fill="#000000">object_key</text>
<polygon fill="none" stroke="#000000" points="463.5,-59.2 463.5,-81.2 557.5,-81.2 557.5,-59.2 463.5,-59.2"/>
<text text-anchor="start" x="466.5" y="-66.9" font-family="Helvetica,sans-Serif" font-size="11.00" fill="#000000">varchar[500]</text>
<polygon fill="#ffffff" stroke="transparent" points="290.5,-40.2 290.5,-59.2 557.5,-59.2 557.5,-40.2 290.5,-40.2"/>
<polygon fill="none" stroke="#000000" points="290.5,-40.2 290.5,-59.2 557.5,-59.2 557.5,-40.2 290.5,-40.2"/>
<polygon fill="#ffffff" stroke="transparent" points="291.5,-41.2 291.5,-58.2 383.5,-58.2 383.5,-41.2 291.5,-41.2"/>
<text text-anchor="start" x="293.5" y="-46.3" font-family="Helvetica,sans-Serif" font-size="11.00" fill="#000000">&lt; 2</text>
<polygon fill="#ffffff" stroke="transparent" points="383.5,-41.2 383.5,-58.2 465.5,-58.2 465.5,-41.2 383.5,-41.2"/>
<text text-anchor="start" x="421.4431" y="-46.3" font-family="Helvetica,sans-Serif" font-size="11.00" fill="#000000"> &#160;</text>
<polygon fill="#ffffff" stroke="transparent" points="465.5,-41.2 465.5,-58.2 556.5,-58.2 556.5,-41.2 465.5,-41.2"/>
<text text-anchor="start" x="538.9053" y="-46.3" font-family="Helvetica,sans-Serif" font-size="11.00" fill="#000000">0 &gt;</text>
<polygon fill="#000000" stroke="#000000" points="383.5,-41.2 383.5,-58.2 383.5,-58.2 383.5,-41.2 383.5,-41.2"/>
<polygon fill="#000000" stroke="#000000" points="465.5,-41.2 465.5,-58.2 465.5,-58.2 465.5,-41.2 465.5,-41.2"/>
<polygon fill="none" stroke="#000000" stroke-width="2" points="289,-39.2 289,-281.2 558,-281.2 558,-39.2 289,-39.2"/>
</a>
</g>
</g>
<!-- transport_request_version -->
<g id="node2" class="node">
<title>transport_request_version</title>
<g id="a_node2"><a xlink:href="../../tables/transport_request_version.html" xlink:title="transport_request_version" target="_top">
<polygon fill="#ffffff" stroke="transparent" points="8,-175.7 8,-280.7 239,-280.7 239,-175.7 8,-175.7"/>
<polygon fill="#f5f5f5" stroke="transparent" points="8.5,-257.2 8.5,-280.2 239.5,-280.2 239.5,-257.2 8.5,-257.2"/>
<polygon fill="none" stroke="#000000" points="8.5,-257.2 8.5,-280.2 239.5,-280.2 239.5,-257.2 8.5,-257.2"/>
<text text-anchor="start" x="13.5" y="-265.8" font-family="Helvetica,sans-Serif" font-weight="bold" font-size="11.00" fill="#000000">transport_request_version</text>
<text text-anchor="start" x="205.0219" y="-265.3" font-family="Helvetica,sans-Serif" font-size="11.00" fill="#000000">[table]</text>
<polygon fill="none" stroke="#000000" points="8.5,-235.2 8.5,-257.2 239.5,-257.2 239.5,-235.2 8.5,-235.2"/>
<image xlink:href="../../images/primaryKeys.png" width="11px" height="12px" preserveAspectRatio="xMinYMin meet" x="13.5" y="-252.2"/>
<text text-anchor="start" x="37.5" y="-242.3" font-family="Helvetica,sans-Serif" font-size="11.00" fill="#000000">transport_request_id</text>
<polygon fill="none" stroke="#000000" points="8.5,-213.2 8.5,-235.2 239.5,-235.2 239.5,-213.2 8.5,-213.2"/>
<image xlink:href="../../images/primaryKeys.png" width="11px" height="12px" preserveAspectRatio="xMinYMin meet" x="13.5" y="-230.2"/>
<text text-anchor="start" x="37.5" y="-220.3" font-family="Helvetica,sans-Serif" font-size="11.00" fill="#000000">version_no</text>
<polygon fill="none" stroke="#000000" points="8.5,-194.2 8.5,-213.2 239.5,-213.2 239.5,-194.2 8.5,-194.2"/>
<text text-anchor="start" x="11.5" y="-200.3" font-family="Helvetica,sans-Serif" font-size="11.00" fill="#000000">...</text>
<polygon fill="#ffffff" stroke="transparent" points="8.5,-175.2 8.5,-194.2 239.5,-194.2 239.5,-175.2 8.5,-175.2"/>
<polygon fill="none" stroke="#000000" points="8.5,-175.2 8.5,-194.2 239.5,-194.2 239.5,-175.2 8.5,-175.2"/>
<polygon fill="#ffffff" stroke="transparent" points="9.5,-176.2 9.5,-193.2 89.5,-193.2 89.5,-176.2 9.5,-176.2"/>
<text text-anchor="start" x="11.5" y="-181.3" font-family="Helvetica,sans-Serif" font-size="11.00" fill="#000000">&lt; 1</text>
<polygon fill="#ffffff" stroke="transparent" points="89.5,-176.2 89.5,-193.2 159.5,-193.2 159.5,-176.2 89.5,-176.2"/>
<text text-anchor="start" x="121.4431" y="-181.3" font-family="Helvetica,sans-Serif" font-size="11.00" fill="#000000"> &#160;</text>
<polygon fill="#ffffff" stroke="transparent" points="159.5,-176.2 159.5,-193.2 238.5,-193.2 238.5,-176.2 159.5,-176.2"/>
<text text-anchor="start" x="220.9053" y="-181.3" font-family="Helvetica,sans-Serif" font-size="11.00" fill="#000000">4 &gt;</text>
<polygon fill="#000000" stroke="#000000" points="89.5,-176.2 89.5,-193.2 89.5,-193.2 89.5,-176.2 89.5,-176.2"/>
<polygon fill="#000000" stroke="#000000" points="159.5,-176.2 159.5,-193.2 159.5,-193.2 159.5,-176.2 159.5,-176.2"/>
</a>
</g>
</g>
<!-- required_document&#45;&gt;transport_request_version -->
<g id="edge1" class="edge">
<title>required_document:w&#45;&gt;transport_request_version:e</title>
<path fill="none" stroke="#000000" d="M275.776,-246.2C263.7815,-246.2 256.3229,-246.2 239.5,-246.2"/>
<polygon fill="#000000" stroke="#000000" points="282.5,-246.2001 290.5,-249.8 286.5,-246.2 290.5,-246.2 290.5,-246.2 290.5,-246.2 286.5,-246.2 290.5,-242.6 282.5,-246.2001 282.5,-246.2001"/>
<ellipse fill="none" stroke="#000000" cx="279.3" cy="-246.2001" rx="3.2" ry="3.2"/>
</g>
<!-- required_document&#45;&gt;transport_request_version -->
<g id="edge2" class="edge">
<title>required_document:w&#45;&gt;transport_request_version:e</title>
<path fill="none" stroke="#000000" d="M275.776,-224.2C263.7815,-224.2 256.3229,-224.2 239.5,-224.2"/>
<polygon fill="#000000" stroke="#000000" points="282.5,-224.2001 290.5,-227.8 286.5,-224.2 290.5,-224.2 290.5,-224.2 290.5,-224.2 286.5,-224.2 290.5,-220.6 282.5,-224.2001 282.5,-224.2001"/>
<ellipse fill="none" stroke="#000000" cx="279.3" cy="-224.2001" rx="3.2" ry="3.2"/>
</g>
</g>
</svg>
