<?xml version="1.0" encoding="UTF-8" standalone="no"?>
<!DOCTYPE svg PUBLIC "-//W3C//DTD SVG 1.1//EN"
 "http://www.w3.org/Graphics/SVG/1.1/DTD/svg11.dtd">
<!-- Generated by graphviz version 2.40.1 (20161225.0304)
 -->
<!-- Title: twoDegreesRelationshipsDiagram Pages: 1 -->
<svg width="1070pt" height="635pt"
 viewBox="0.00 0.00 1070.00 634.70" xmlns="http://www.w3.org/2000/svg" xmlns:xlink="http://www.w3.org/1999/xlink">
<g id="graph0" class="graph" transform="scale(1 1) rotate(0) translate(4 630.7)">
<title>twoDegreesRelationshipsDiagram</title>
<polygon fill="#ffffff" stroke="transparent" points="-4,4 -4,-630.7 1066,-630.7 1066,4 -4,4"/>
<text text-anchor="middle" x="72.4936" y="-7.3" font-family="Helvetica,sans-Serif" font-size="11.00" fill="#000000">Generated by SchemaSpy</text>
<!-- assigned_route_leg -->
<g id="node1" class="node">
<title>assigned_route_leg</title>
<g id="a_node1"><a xlink:href="../../tables/assigned_route_leg.html" xlink:title="assigned_route_leg" target="_top">
<polygon fill="#ffffff" stroke="transparent" points="875,-561.7 875,-622.7 1054,-622.7 1054,-561.7 875,-561.7"/>
<polygon fill="#f5f5f5" stroke="transparent" points="875.5,-599.2 875.5,-622.2 1054.5,-622.2 1054.5,-599.2 875.5,-599.2"/>
<polygon fill="none" stroke="#000000" points="875.5,-599.2 875.5,-622.2 1054.5,-622.2 1054.5,-599.2 875.5,-599.2"/>
<text text-anchor="start" x="880.5" y="-607.8" font-family="Helvetica,sans-Serif" font-weight="bold" font-size="11.00" fill="#000000">assigned_route_leg</text>
<text text-anchor="start" x="1020.0219" y="-607.3" font-family="Helvetica,sans-Serif" font-size="11.00" fill="#000000">[table]</text>
<polygon fill="none" stroke="#000000" points="875.5,-580.2 875.5,-599.2 1054.5,-599.2 1054.5,-580.2 875.5,-580.2"/>
<text text-anchor="start" x="878.5" y="-586.3" font-family="Helvetica,sans-Serif" font-size="11.00" fill="#000000">...</text>
<polygon fill="#ffffff" stroke="transparent" points="875.5,-561.2 875.5,-580.2 1054.5,-580.2 1054.5,-561.2 875.5,-561.2"/>
<polygon fill="none" stroke="#000000" points="875.5,-561.2 875.5,-580.2 1054.5,-580.2 1054.5,-561.2 875.5,-561.2"/>
<polygon fill="#ffffff" stroke="transparent" points="876.5,-562.2 876.5,-579.2 941.5,-579.2 941.5,-562.2 876.5,-562.2"/>
<text text-anchor="start" x="878.5" y="-567.3" font-family="Helvetica,sans-Serif" font-size="11.00" fill="#000000">&lt; 1</text>
<polygon fill="#ffffff" stroke="transparent" points="941.5,-562.2 941.5,-579.2 997.5,-579.2 997.5,-562.2 941.5,-562.2"/>
<text text-anchor="start" x="966.4431" y="-567.3" font-family="Helvetica,sans-Serif" font-size="11.00" fill="#000000"> &#160;</text>
<polygon fill="#ffffff" stroke="transparent" points="997.5,-562.2 997.5,-579.2 1053.5,-579.2 1053.5,-562.2 997.5,-562.2"/>
<text text-anchor="start" x="1045.3862" y="-567.3" font-family="Helvetica,sans-Serif" font-size="11.00" fill="#000000"> &#160;</text>
<polygon fill="#000000" stroke="#000000" points="941.5,-562.2 941.5,-579.2 941.5,-579.2 941.5,-562.2 941.5,-562.2"/>
<polygon fill="#000000" stroke="#000000" points="997.5,-562.2 997.5,-579.2 997.5,-579.2 997.5,-562.2 997.5,-562.2"/>
</a>
</g>
</g>
<!-- quotation -->
<g id="node2" class="node">
<title>quotation</title>
<g id="a_node2"><a xlink:href="../../tables/quotation.html" xlink:title="quotation" target="_top">
<polygon fill="#ffffff" stroke="transparent" points="588,-389.7 588,-582.7 826,-582.7 826,-389.7 588,-389.7"/>
<polygon fill="#f5f5f5" stroke="transparent" points="588,-559.2 588,-582.2 826,-582.2 826,-559.2 588,-559.2"/>
<polygon fill="none" stroke="#000000" points="588,-559.2 588,-582.2 826,-582.2 826,-559.2 588,-559.2"/>
<text text-anchor="start" x="593" y="-567.8" font-family="Helvetica,sans-Serif" font-weight="bold" font-size="11.00" fill="#000000">quotation</text>
<text text-anchor="start" x="791.0437" y="-567.3" font-family="Helvetica,sans-Serif" font-size="11.00" fill="#000000">[table]</text>
<polygon fill="none" stroke="#000000" points="588,-537.2 588,-559.2 826,-559.2 826,-537.2 588,-537.2"/>
<image xlink:href="../../images/primaryKeys.png" width="11px" height="12px" preserveAspectRatio="xMinYMin meet" x="593" y="-554.2"/>
<text text-anchor="start" x="608" y="-544.3" font-family="Helvetica,sans-Serif" font-size="11.00" fill="#000000">id</text>
<polygon fill="#ffffff" stroke="transparent" points="588,-515.2 588,-537.2 826,-537.2 826,-515.2 588,-515.2"/>
<polygon fill="none" stroke="#000000" points="588,-515.2 588,-537.2 826,-537.2 826,-515.2 588,-515.2"/>
<image xlink:href="../../images/foreignKeys.png" width="11px" height="12px" preserveAspectRatio="xMinYMin meet" x="593" y="-532.2"/>
<text text-anchor="start" x="608" y="-522.3" font-family="Helvetica,sans-Serif" font-size="11.00" fill="#000000">transport_request_id</text>
<polygon fill="#ffffff" stroke="transparent" points="588,-493.2 588,-515.2 826,-515.2 826,-493.2 588,-493.2"/>
<polygon fill="none" stroke="#000000" points="588,-493.2 588,-515.2 826,-515.2 826,-493.2 588,-493.2"/>
<text text-anchor="start" x="608" y="-500.3" font-family="Helvetica,sans-Serif" font-size="11.00" fill="#000000">quotation_no</text>
<polygon fill="none" stroke="#000000" points="588,-471.2 588,-493.2 826,-493.2 826,-471.2 588,-471.2"/>
<image xlink:href="../../images/foreignKeys.png" width="11px" height="12px" preserveAspectRatio="xMinYMin meet" x="593" y="-488.2"/>
<text text-anchor="start" x="608" y="-478.3" font-family="Helvetica,sans-Serif" font-size="11.00" fill="#000000">transport_request_version_no</text>
<polygon fill="#ffffff" stroke="transparent" points="588,-449.2 588,-471.2 826,-471.2 826,-449.2 588,-449.2"/>
<polygon fill="none" stroke="#000000" points="588,-449.2 588,-471.2 826,-471.2 826,-449.2 588,-449.2"/>
<text text-anchor="start" x="608" y="-456.3" font-family="Helvetica,sans-Serif" font-size="11.00" fill="#000000">status</text>
<polygon fill="none" stroke="#000000" points="588,-427.2 588,-449.2 826,-449.2 826,-427.2 588,-427.2"/>
<image xlink:href="../../images/foreignKeys.png" width="11px" height="12px" preserveAspectRatio="xMinYMin meet" x="593" y="-444.2"/>
<text text-anchor="start" x="608" y="-434.3" font-family="Helvetica,sans-Serif" font-size="11.00" fill="#000000">replaced_by_quotation_id</text>
<polygon fill="none" stroke="#000000" points="588,-408.2 588,-427.2 826,-427.2 826,-408.2 588,-408.2"/>
<text text-anchor="start" x="591" y="-414.3" font-family="Helvetica,sans-Serif" font-size="11.00" fill="#000000">...</text>
<polygon fill="#ffffff" stroke="transparent" points="588,-389.2 588,-408.2 826,-408.2 826,-389.2 588,-389.2"/>
<polygon fill="none" stroke="#000000" points="588,-389.2 588,-408.2 826,-408.2 826,-389.2 588,-389.2"/>
<polygon fill="#ffffff" stroke="transparent" points="589,-390.2 589,-407.2 671,-407.2 671,-390.2 589,-390.2"/>
<text text-anchor="start" x="591" y="-395.3" font-family="Helvetica,sans-Serif" font-size="11.00" fill="#000000">&lt; 3</text>
<polygon fill="#ffffff" stroke="transparent" points="671,-390.2 671,-407.2 744,-407.2 744,-390.2 671,-390.2"/>
<text text-anchor="start" x="704.4431" y="-395.3" font-family="Helvetica,sans-Serif" font-size="11.00" fill="#000000"> &#160;</text>
<polygon fill="#ffffff" stroke="transparent" points="744,-390.2 744,-407.2 825,-407.2 825,-390.2 744,-390.2"/>
<text text-anchor="start" x="807.4053" y="-395.3" font-family="Helvetica,sans-Serif" font-size="11.00" fill="#000000">3 &gt;</text>
<polygon fill="#000000" stroke="#000000" points="671,-390.2 671,-407.2 671,-407.2 671,-390.2 671,-390.2"/>
<polygon fill="#000000" stroke="#000000" points="744,-390.2 744,-407.2 744,-407.2 744,-390.2 744,-390.2"/>
</a>
</g>
</g>
<!-- assigned_route_leg&#45;&gt;quotation -->
<g id="edge1" class="edge">
<title>assigned_route_leg:w&#45;&gt;quotation:e</title>
<path fill="none" stroke="#000000" d="M861.5753,-584.4968C848.543,-573.7274 848.5408,-548.2 826,-548.2"/>
<polygon fill="#000000" stroke="#000000" points="867.9207,-586.64 874.348,-592.6107 871.7103,-587.92 875.5,-589.2 875.5,-589.2 875.5,-589.2 871.7103,-587.92 876.652,-585.7893 867.9207,-586.64 867.9207,-586.64"/>
<ellipse fill="none" stroke="#000000" cx="864.8889" cy="-585.6159" rx="3.2" ry="3.2"/>
</g>
<!-- transport_request_version -->
<g id="node4" class="node">
<title>transport_request_version</title>
<g id="a_node4"><a xlink:href="../../tables/transport_request_version.html" xlink:title="transport_request_version" target="_top">
<polygon fill="#ffffff" stroke="transparent" points="228,-38.2 228,-370.2 539,-370.2 539,-38.2 228,-38.2"/>
<polygon fill="#f5f5f5" stroke="transparent" points="230.5,-345.2 230.5,-368.2 537.5,-368.2 537.5,-345.2 230.5,-345.2"/>
<polygon fill="none" stroke="#000000" points="230.5,-345.2 230.5,-368.2 537.5,-368.2 537.5,-345.2 230.5,-345.2"/>
<text text-anchor="start" x="235.5" y="-353.8" font-family="Helvetica,sans-Serif" font-weight="bold" font-size="11.00" fill="#000000">transport_request_version</text>
<text text-anchor="start" x="502.5437" y="-353.3" font-family="Helvetica,sans-Serif" font-size="11.00" fill="#000000">[table]</text>
<polygon fill="none" stroke="#000000" points="230.5,-323.2 230.5,-345.2 443.5,-345.2 443.5,-323.2 230.5,-323.2"/>
<image xlink:href="../../images/primaryKeys.png" width="11px" height="12px" preserveAspectRatio="xMinYMin meet" x="235.5" y="-340.2"/>
<text text-anchor="start" x="250.5" y="-330.3" font-family="Helvetica,sans-Serif" font-size="11.00" fill="#000000">transport_request_id</text>
<polygon fill="none" stroke="#000000" points="443.5,-323.2 443.5,-345.2 537.5,-345.2 537.5,-323.2 443.5,-323.2"/>
<text text-anchor="start" x="446.4758" y="-330.9" font-family="Helvetica,sans-Serif" font-size="11.00" fill="#000000">uuid[2147483647]</text>
<polygon fill="none" stroke="#000000" points="230.5,-301.2 230.5,-323.2 443.5,-323.2 443.5,-301.2 230.5,-301.2"/>
<image xlink:href="../../images/primaryKeys.png" width="11px" height="12px" preserveAspectRatio="xMinYMin meet" x="235.5" y="-318.2"/>
<text text-anchor="start" x="250.5" y="-308.3" font-family="Helvetica,sans-Serif" font-size="11.00" fill="#000000">version_no</text>
<polygon fill="none" stroke="#000000" points="443.5,-301.2 443.5,-323.2 537.5,-323.2 537.5,-301.2 443.5,-301.2"/>
<text text-anchor="start" x="446.5" y="-308.9" font-family="Helvetica,sans-Serif" font-size="11.00" fill="#000000">int4[10]</text>
<polygon fill="none" stroke="#000000" points="230.5,-279.2 230.5,-301.2 443.5,-301.2 443.5,-279.2 230.5,-279.2"/>
<text text-anchor="start" x="250.5" y="-286.3" font-family="Helvetica,sans-Serif" font-size="11.00" fill="#000000">origin_unlocode</text>
<polygon fill="none" stroke="#000000" points="443.5,-279.2 443.5,-301.2 537.5,-301.2 537.5,-279.2 443.5,-279.2"/>
<text text-anchor="start" x="446.5" y="-286.9" font-family="Helvetica,sans-Serif" font-size="11.00" fill="#000000">bpchar[5]</text>
<polygon fill="none" stroke="#000000" points="230.5,-257.2 230.5,-279.2 443.5,-279.2 443.5,-257.2 230.5,-257.2"/>
<text text-anchor="start" x="250.5" y="-264.3" font-family="Helvetica,sans-Serif" font-size="11.00" fill="#000000">destination_unlocode</text>
<polygon fill="none" stroke="#000000" points="443.5,-257.2 443.5,-279.2 537.5,-279.2 537.5,-257.2 443.5,-257.2"/>
<text text-anchor="start" x="446.5" y="-264.9" font-family="Helvetica,sans-Serif" font-size="11.00" fill="#000000">bpchar[5]</text>
<polygon fill="none" stroke="#000000" points="230.5,-235.2 230.5,-257.2 443.5,-257.2 443.5,-235.2 230.5,-235.2"/>
<text text-anchor="start" x="250.5" y="-242.3" font-family="Helvetica,sans-Serif" font-size="11.00" fill="#000000">submitted_by</text>
<polygon fill="none" stroke="#000000" points="443.5,-235.2 443.5,-257.2 537.5,-257.2 537.5,-235.2 443.5,-235.2"/>
<text text-anchor="start" x="446.4758" y="-242.9" font-family="Helvetica,sans-Serif" font-size="11.00" fill="#000000">uuid[2147483647]</text>
<polygon fill="none" stroke="#000000" points="230.5,-213.2 230.5,-235.2 443.5,-235.2 443.5,-213.2 230.5,-213.2"/>
<text text-anchor="start" x="250.5" y="-220.3" font-family="Helvetica,sans-Serif" font-size="11.00" fill="#000000">submitted_at</text>
<polygon fill="none" stroke="#000000" points="443.5,-213.2 443.5,-235.2 537.5,-235.2 537.5,-213.2 443.5,-213.2"/>
<text text-anchor="start" x="446.5" y="-220.9" font-family="Helvetica,sans-Serif" font-size="11.00" fill="#000000">timestamptz[35,6]</text>
<polygon fill="none" stroke="#000000" points="230.5,-191.2 230.5,-213.2 443.5,-213.2 443.5,-191.2 230.5,-191.2"/>
<text text-anchor="start" x="250.5" y="-198.3" font-family="Helvetica,sans-Serif" font-size="11.00" fill="#000000">consignee_company_id</text>
<polygon fill="none" stroke="#000000" points="443.5,-191.2 443.5,-213.2 537.5,-213.2 537.5,-191.2 443.5,-191.2"/>
<text text-anchor="start" x="446.4758" y="-198.9" font-family="Helvetica,sans-Serif" font-size="11.00" fill="#000000">uuid[2147483647]</text>
<polygon fill="none" stroke="#000000" points="230.5,-169.2 230.5,-191.2 443.5,-191.2 443.5,-169.2 230.5,-169.2"/>
<text text-anchor="start" x="250.5" y="-176.3" font-family="Helvetica,sans-Serif" font-size="11.00" fill="#000000">arrival_deadline</text>
<polygon fill="none" stroke="#000000" points="443.5,-169.2 443.5,-191.2 537.5,-191.2 537.5,-169.2 443.5,-169.2"/>
<text text-anchor="start" x="446.5" y="-176.9" font-family="Helvetica,sans-Serif" font-size="11.00" fill="#000000">timestamptz[35,6]</text>
<polygon fill="none" stroke="#000000" points="230.5,-147.2 230.5,-169.2 443.5,-169.2 443.5,-147.2 230.5,-147.2"/>
<text text-anchor="start" x="250.5" y="-154.3" font-family="Helvetica,sans-Serif" font-size="11.00" fill="#000000">cargo_category</text>
<polygon fill="none" stroke="#000000" points="443.5,-147.2 443.5,-169.2 537.5,-169.2 537.5,-147.2 443.5,-147.2"/>
<text text-anchor="start" x="446.5" y="-154.9" font-family="Helvetica,sans-Serif" font-size="11.00" fill="#000000">varchar[30]</text>
<polygon fill="none" stroke="#000000" points="230.5,-125.2 230.5,-147.2 443.5,-147.2 443.5,-125.2 230.5,-125.2"/>
<text text-anchor="start" x="250.5" y="-132.3" font-family="Helvetica,sans-Serif" font-size="11.00" fill="#000000">package_type</text>
<polygon fill="none" stroke="#000000" points="443.5,-125.2 443.5,-147.2 537.5,-147.2 537.5,-125.2 443.5,-125.2"/>
<text text-anchor="start" x="446.5" y="-132.9" font-family="Helvetica,sans-Serif" font-size="11.00" fill="#000000">varchar[30]</text>
<polygon fill="none" stroke="#000000" points="230.5,-103.2 230.5,-125.2 443.5,-125.2 443.5,-103.2 230.5,-103.2"/>
<text text-anchor="start" x="250.5" y="-110.3" font-family="Helvetica,sans-Serif" font-size="11.00" fill="#000000">package_count</text>
<polygon fill="none" stroke="#000000" points="443.5,-103.2 443.5,-125.2 537.5,-125.2 537.5,-103.2 443.5,-103.2"/>
<text text-anchor="start" x="446.5" y="-110.9" font-family="Helvetica,sans-Serif" font-size="11.00" fill="#000000">int4[10]</text>
<polygon fill="none" stroke="#000000" points="230.5,-81.2 230.5,-103.2 443.5,-103.2 443.5,-81.2 230.5,-81.2"/>
<text text-anchor="start" x="250.5" y="-88.3" font-family="Helvetica,sans-Serif" font-size="11.00" fill="#000000">gross_weight_kg</text>
<polygon fill="none" stroke="#000000" points="443.5,-81.2 443.5,-103.2 537.5,-103.2 537.5,-81.2 443.5,-81.2"/>
<text text-anchor="start" x="446.5" y="-88.9" font-family="Helvetica,sans-Serif" font-size="11.00" fill="#000000">numeric[12,3]</text>
<polygon fill="none" stroke="#000000" points="230.5,-59.2 230.5,-81.2 443.5,-81.2 443.5,-59.2 230.5,-59.2"/>
<text text-anchor="start" x="250.5" y="-66.3" font-family="Helvetica,sans-Serif" font-size="11.00" fill="#000000">volume_m3</text>
<polygon fill="none" stroke="#000000" points="443.5,-59.2 443.5,-81.2 537.5,-81.2 537.5,-59.2 443.5,-59.2"/>
<text text-anchor="start" x="446.5" y="-66.9" font-family="Helvetica,sans-Serif" font-size="11.00" fill="#000000">numeric[12,3]</text>
<polygon fill="#ffffff" stroke="transparent" points="230.5,-40.2 230.5,-59.2 537.5,-59.2 537.5,-40.2 230.5,-40.2"/>
<polygon fill="none" stroke="#000000" points="230.5,-40.2 230.5,-59.2 537.5,-59.2 537.5,-40.2 230.5,-40.2"/>
<polygon fill="#ffffff" stroke="transparent" points="231.5,-41.2 231.5,-58.2 336.5,-58.2 336.5,-41.2 231.5,-41.2"/>
<text text-anchor="start" x="233.5" y="-46.3" font-family="Helvetica,sans-Serif" font-size="11.00" fill="#000000">&lt; 1</text>
<polygon fill="#ffffff" stroke="transparent" points="336.5,-41.2 336.5,-58.2 432.5,-58.2 432.5,-41.2 336.5,-41.2"/>
<text text-anchor="start" x="381.4431" y="-46.3" font-family="Helvetica,sans-Serif" font-size="11.00" fill="#000000"> &#160;</text>
<polygon fill="#ffffff" stroke="transparent" points="432.5,-41.2 432.5,-58.2 536.5,-58.2 536.5,-41.2 432.5,-41.2"/>
<text text-anchor="start" x="518.9053" y="-46.3" font-family="Helvetica,sans-Serif" font-size="11.00" fill="#000000">6 &gt;</text>
<polygon fill="#000000" stroke="#000000" points="336.5,-41.2 336.5,-58.2 336.5,-58.2 336.5,-41.2 336.5,-41.2"/>
<polygon fill="#000000" stroke="#000000" points="432.5,-41.2 432.5,-58.2 432.5,-58.2 432.5,-41.2 432.5,-41.2"/>
<polygon fill="none" stroke="#000000" stroke-width="2" points="229,-39.2 229,-369.2 538,-369.2 538,-39.2 229,-39.2"/>
</a>
</g>
</g>
<!-- quotation&#45;&gt;transport_request_version -->
<g id="edge3" class="edge">
<title>quotation:w&#45;&gt;transport_request_version:e</title>
<path fill="none" stroke="#000000" d="M577.3668,-525.0725C510.6498,-509.3375 621.7719,-334.2 537.5,-334.2"/>
<polygon fill="#000000" stroke="#000000" points="587.6263,-522.1379 586.7826,-530.0933 585.1916,-529.9246 586.0352,-521.9692 587.6263,-522.1379"/>
<polyline fill="none" stroke="#000000" points="588,-526.2 584.0223,-525.7782 "/>
<ellipse fill="none" stroke="#000000" cx="580.8401" cy="-525.4407" rx="3.2" ry="3.2"/>
</g>
<!-- quotation&#45;&gt;transport_request_version -->
<g id="edge4" class="edge">
<title>quotation:w&#45;&gt;transport_request_version:e</title>
<path fill="none" stroke="#000000" d="M573.6854,-479.6649C523.6948,-458.5175 610.6229,-312.2 537.5,-312.2"/>
<polygon fill="#000000" stroke="#000000" points="580.1226,-480.8049 587.3722,-485.7448 584.0613,-481.5024 588,-482.2 588,-482.2 588,-482.2 584.0613,-481.5024 588.6278,-478.6552 580.1226,-480.8049 580.1226,-480.8049"/>
<ellipse fill="none" stroke="#000000" cx="576.9716" cy="-480.2468" rx="3.2" ry="3.2"/>
</g>
<!-- pricing_line -->
<g id="node3" class="node">
<title>pricing_line</title>
<g id="a_node3"><a xlink:href="../../tables/pricing_line.html" xlink:title="pricing_line" target="_top">
<polygon fill="#ffffff" stroke="transparent" points="903,-479.7 903,-540.7 1026,-540.7 1026,-479.7 903,-479.7"/>
<polygon fill="#f5f5f5" stroke="transparent" points="903.5,-517.2 903.5,-540.2 1026.5,-540.2 1026.5,-517.2 903.5,-517.2"/>
<polygon fill="none" stroke="#000000" points="903.5,-517.2 903.5,-540.2 1026.5,-540.2 1026.5,-517.2 903.5,-517.2"/>
<text text-anchor="start" x="908.5" y="-525.8" font-family="Helvetica,sans-Serif" font-weight="bold" font-size="11.00" fill="#000000">pricing_line</text>
<text text-anchor="start" x="992.0219" y="-525.3" font-family="Helvetica,sans-Serif" font-size="11.00" fill="#000000">[table]</text>
<polygon fill="none" stroke="#000000" points="903.5,-498.2 903.5,-517.2 1026.5,-517.2 1026.5,-498.2 903.5,-498.2"/>
<text text-anchor="start" x="906.5" y="-504.3" font-family="Helvetica,sans-Serif" font-size="11.00" fill="#000000">...</text>
<polygon fill="#ffffff" stroke="transparent" points="903.5,-479.2 903.5,-498.2 1026.5,-498.2 1026.5,-479.2 903.5,-479.2"/>
<polygon fill="none" stroke="#000000" points="903.5,-479.2 903.5,-498.2 1026.5,-498.2 1026.5,-479.2 903.5,-479.2"/>
<polygon fill="#ffffff" stroke="transparent" points="904.5,-480.2 904.5,-497.2 951.5,-497.2 951.5,-480.2 904.5,-480.2"/>
<text text-anchor="start" x="906.5" y="-485.3" font-family="Helvetica,sans-Serif" font-size="11.00" fill="#000000">&lt; 1</text>
<polygon fill="#ffffff" stroke="transparent" points="951.5,-480.2 951.5,-497.2 988.5,-497.2 988.5,-480.2 951.5,-480.2"/>
<text text-anchor="start" x="966.9431" y="-485.3" font-family="Helvetica,sans-Serif" font-size="11.00" fill="#000000"> &#160;</text>
<polygon fill="#ffffff" stroke="transparent" points="988.5,-480.2 988.5,-497.2 1025.5,-497.2 1025.5,-480.2 988.5,-480.2"/>
<text text-anchor="start" x="1017.3862" y="-485.3" font-family="Helvetica,sans-Serif" font-size="11.00" fill="#000000"> &#160;</text>
<polygon fill="#000000" stroke="#000000" points="951.5,-480.2 951.5,-497.2 951.5,-497.2 951.5,-480.2 951.5,-480.2"/>
<polygon fill="#000000" stroke="#000000" points="988.5,-480.2 988.5,-497.2 988.5,-497.2 988.5,-480.2 988.5,-480.2"/>
</a>
</g>
</g>
<!-- pricing_line&#45;&gt;quotation -->
<g id="edge2" class="edge">
<title>pricing_line:w&#45;&gt;quotation:e</title>
<path fill="none" stroke="#000000" d="M889.179,-509.4043C863.8756,-517.9205 859.4877,-548.2 826,-548.2"/>
<polygon fill="#000000" stroke="#000000" points="895.5931,-508.4171 904.0477,-510.7581 899.5466,-507.8086 903.5,-507.2 903.5,-507.2 903.5,-507.2 899.5466,-507.8086 902.9523,-503.6419 895.5931,-508.4171 895.5931,-508.4171"/>
<ellipse fill="none" stroke="#000000" cx="892.4304" cy="-508.9039" rx="3.2" ry="3.2"/>
</g>
<!-- transport_request -->
<g id="node7" class="node">
<title>transport_request</title>
<g id="a_node7"><a xlink:href="../../tables/transport_request.html" xlink:title="transport_request" target="_top">
<polygon fill="#ffffff" stroke="transparent" points="8,-219.7 8,-368.7 179,-368.7 179,-219.7 8,-219.7"/>
<polygon fill="#f5f5f5" stroke="transparent" points="8.5,-345.2 8.5,-368.2 179.5,-368.2 179.5,-345.2 8.5,-345.2"/>
<polygon fill="none" stroke="#000000" points="8.5,-345.2 8.5,-368.2 179.5,-368.2 179.5,-345.2 8.5,-345.2"/>
<text text-anchor="start" x="13.5" y="-353.8" font-family="Helvetica,sans-Serif" font-weight="bold" font-size="11.00" fill="#000000">transport_request</text>
<text text-anchor="start" x="145.0219" y="-353.3" font-family="Helvetica,sans-Serif" font-size="11.00" fill="#000000">[table]</text>
<polygon fill="none" stroke="#000000" points="8.5,-323.2 8.5,-345.2 179.5,-345.2 179.5,-323.2 8.5,-323.2"/>
<image xlink:href="../../images/primaryKeys.png" width="11px" height="12px" preserveAspectRatio="xMinYMin meet" x="13.5" y="-340.2"/>
<text text-anchor="start" x="29.5" y="-330.3" font-family="Helvetica,sans-Serif" font-size="11.00" fill="#000000">id</text>
<polygon fill="#ffffff" stroke="transparent" points="8.5,-301.2 8.5,-323.2 179.5,-323.2 179.5,-301.2 8.5,-301.2"/>
<polygon fill="none" stroke="#000000" points="8.5,-301.2 8.5,-323.2 179.5,-323.2 179.5,-301.2 8.5,-301.2"/>
<text text-anchor="start" x="29.5" y="-308.3" font-family="Helvetica,sans-Serif" font-size="11.00" fill="#000000">shipper_company_id</text>
<polygon fill="#ffffff" stroke="transparent" points="8.5,-279.2 8.5,-301.2 179.5,-301.2 179.5,-279.2 8.5,-279.2"/>
<polygon fill="none" stroke="#000000" points="8.5,-279.2 8.5,-301.2 179.5,-301.2 179.5,-279.2 8.5,-279.2"/>
<text text-anchor="start" x="29.5" y="-286.3" font-family="Helvetica,sans-Serif" font-size="11.00" fill="#000000">status</text>
<polygon fill="#ffffff" stroke="transparent" points="8.5,-257.2 8.5,-279.2 179.5,-279.2 179.5,-257.2 8.5,-257.2"/>
<polygon fill="none" stroke="#000000" points="8.5,-257.2 8.5,-279.2 179.5,-279.2 179.5,-257.2 8.5,-257.2"/>
<text text-anchor="start" x="29.5" y="-264.3" font-family="Helvetica,sans-Serif" font-size="11.00" fill="#000000">request_number</text>
<polygon fill="none" stroke="#000000" points="8.5,-238.2 8.5,-257.2 179.5,-257.2 179.5,-238.2 8.5,-238.2"/>
<text text-anchor="start" x="11.5" y="-244.3" font-family="Helvetica,sans-Serif" font-size="11.00" fill="#000000">...</text>
<polygon fill="#ffffff" stroke="transparent" points="8.5,-219.2 8.5,-238.2 179.5,-238.2 179.5,-219.2 8.5,-219.2"/>
<polygon fill="none" stroke="#000000" points="8.5,-219.2 8.5,-238.2 179.5,-238.2 179.5,-219.2 8.5,-219.2"/>
<polygon fill="#ffffff" stroke="transparent" points="9.5,-220.2 9.5,-237.2 63.5,-237.2 63.5,-220.2 9.5,-220.2"/>
<text text-anchor="start" x="11.5" y="-225.3" font-family="Helvetica,sans-Serif" font-size="11.00" fill="#000000"> &#160;</text>
<polygon fill="#ffffff" stroke="transparent" points="63.5,-220.2 63.5,-237.2 116.5,-237.2 116.5,-220.2 63.5,-220.2"/>
<text text-anchor="start" x="86.9431" y="-225.3" font-family="Helvetica,sans-Serif" font-size="11.00" fill="#000000"> &#160;</text>
<polygon fill="#ffffff" stroke="transparent" points="116.5,-220.2 116.5,-237.2 178.5,-237.2 178.5,-220.2 116.5,-220.2"/>
<text text-anchor="start" x="160.9053" y="-225.3" font-family="Helvetica,sans-Serif" font-size="11.00" fill="#000000">1 &gt;</text>
<polygon fill="#000000" stroke="#000000" points="63.5,-220.2 63.5,-237.2 63.5,-237.2 63.5,-220.2 63.5,-220.2"/>
<polygon fill="#000000" stroke="#000000" points="116.5,-220.2 116.5,-237.2 116.5,-237.2 116.5,-220.2 116.5,-220.2"/>
</a>
</g>
</g>
<!-- transport_request_version&#45;&gt;transport_request -->
<g id="edge9" class="edge">
<title>transport_request_version:w&#45;&gt;transport_request:e</title>
<path fill="none" stroke="#000000" d="M215.776,-334.2C203.7815,-334.2 196.3229,-334.2 179.5,-334.2"/>
<polygon fill="#000000" stroke="#000000" points="222.5,-334.2001 230.5,-337.8 226.5,-334.2 230.5,-334.2 230.5,-334.2 230.5,-334.2 226.5,-334.2 230.5,-330.6 222.5,-334.2001 222.5,-334.2001"/>
<ellipse fill="none" stroke="#000000" cx="219.3" cy="-334.2001" rx="3.2" ry="3.2"/>
</g>
<!-- required_document -->
<g id="node5" class="node">
<title>required_document</title>
<g id="a_node5"><a xlink:href="../../tables/required_document.html" xlink:title="required_document" target="_top">
<polygon fill="#ffffff" stroke="transparent" points="616.5,-241.7 616.5,-368.7 797.5,-368.7 797.5,-241.7 616.5,-241.7"/>
<polygon fill="#f5f5f5" stroke="transparent" points="617,-345.2 617,-368.2 798,-368.2 798,-345.2 617,-345.2"/>
<polygon fill="none" stroke="#000000" points="617,-345.2 617,-368.2 798,-368.2 798,-345.2 617,-345.2"/>
<text text-anchor="start" x="622" y="-353.8" font-family="Helvetica,sans-Serif" font-weight="bold" font-size="11.00" fill="#000000">required_document</text>
<text text-anchor="start" x="763.5219" y="-353.3" font-family="Helvetica,sans-Serif" font-size="11.00" fill="#000000">[table]</text>
<polygon fill="none" stroke="#000000" points="617,-323.2 617,-345.2 798,-345.2 798,-323.2 617,-323.2"/>
<image xlink:href="../../images/primaryKeys.png" width="11px" height="12px" preserveAspectRatio="xMinYMin meet" x="622" y="-340.2"/>
<text text-anchor="start" x="641" y="-330.3" font-family="Helvetica,sans-Serif" font-size="11.00" fill="#000000">transport_request_id</text>
<polygon fill="none" stroke="#000000" points="617,-301.2 617,-323.2 798,-323.2 798,-301.2 617,-301.2"/>
<image xlink:href="../../images/primaryKeys.png" width="11px" height="12px" preserveAspectRatio="xMinYMin meet" x="622" y="-318.2"/>
<text text-anchor="start" x="641" y="-308.3" font-family="Helvetica,sans-Serif" font-size="11.00" fill="#000000">version_no</text>
<polygon fill="none" stroke="#000000" points="617,-279.2 617,-301.2 798,-301.2 798,-279.2 617,-279.2"/>
<image xlink:href="../../images/primaryKeys.png" width="11px" height="12px" preserveAspectRatio="xMinYMin meet" x="622" y="-296.2"/>
<text text-anchor="start" x="641" y="-286.3" font-family="Helvetica,sans-Serif" font-size="11.00" fill="#000000">document_no</text>
<polygon fill="none" stroke="#000000" points="617,-260.2 617,-279.2 798,-279.2 798,-260.2 617,-260.2"/>
<text text-anchor="start" x="620" y="-266.3" font-family="Helvetica,sans-Serif" font-size="11.00" fill="#000000">...</text>
<polygon fill="#ffffff" stroke="transparent" points="617,-241.2 617,-260.2 798,-260.2 798,-241.2 617,-241.2"/>
<polygon fill="none" stroke="#000000" points="617,-241.2 617,-260.2 798,-260.2 798,-241.2 617,-241.2"/>
<polygon fill="#ffffff" stroke="transparent" points="618,-242.2 618,-259.2 684,-259.2 684,-242.2 618,-242.2"/>
<text text-anchor="start" x="620" y="-247.3" font-family="Helvetica,sans-Serif" font-size="11.00" fill="#000000">&lt; 2</text>
<polygon fill="#ffffff" stroke="transparent" points="684,-242.2 684,-259.2 741,-259.2 741,-242.2 684,-242.2"/>
<text text-anchor="start" x="709.4431" y="-247.3" font-family="Helvetica,sans-Serif" font-size="11.00" fill="#000000"> &#160;</text>
<polygon fill="#ffffff" stroke="transparent" points="741,-242.2 741,-259.2 797,-259.2 797,-242.2 741,-242.2"/>
<text text-anchor="start" x="788.8862" y="-247.3" font-family="Helvetica,sans-Serif" font-size="11.00" fill="#000000"> &#160;</text>
<polygon fill="#000000" stroke="#000000" points="684,-242.2 684,-259.2 684,-259.2 684,-242.2 684,-242.2"/>
<polygon fill="#000000" stroke="#000000" points="741,-242.2 741,-259.2 741,-259.2 741,-242.2 741,-242.2"/>
</a>
</g>
</g>
<!-- required_document&#45;&gt;transport_request_version -->
<g id="edge5" class="edge">
<title>required_document:w&#45;&gt;transport_request_version:e</title>
<path fill="none" stroke="#000000" d="M602.5093,-334.2C578.3602,-334.2 567.4505,-334.2 537.5,-334.2"/>
<polygon fill="#000000" stroke="#000000" points="609,-334.2001 617,-337.8 613,-334.2 617,-334.2 617,-334.2 617,-334.2 613,-334.2 617,-330.6 609,-334.2001 609,-334.2001"/>
<ellipse fill="none" stroke="#000000" cx="605.8" cy="-334.2001" rx="3.2" ry="3.2"/>
</g>
<!-- required_document&#45;&gt;transport_request_version -->
<g id="edge6" class="edge">
<title>required_document:w&#45;&gt;transport_request_version:e</title>
<path fill="none" stroke="#000000" d="M602.5093,-312.2C578.3602,-312.2 567.4505,-312.2 537.5,-312.2"/>
<polygon fill="#000000" stroke="#000000" points="609,-312.2001 617,-315.8 613,-312.2 617,-312.2 617,-312.2 617,-312.2 613,-312.2 617,-308.6 609,-312.2001 609,-312.2001"/>
<ellipse fill="none" stroke="#000000" cx="605.8" cy="-312.2001" rx="3.2" ry="3.2"/>
</g>
<!-- review_record -->
<g id="node6" class="node">
<title>review_record</title>
<g id="a_node6"><a xlink:href="../../tables/review_record.html" xlink:title="review_record" target="_top">
<polygon fill="#ffffff" stroke="transparent" points="620.5,-71.7 620.5,-220.7 793.5,-220.7 793.5,-71.7 620.5,-71.7"/>
<polygon fill="#f5f5f5" stroke="transparent" points="621,-197.2 621,-220.2 794,-220.2 794,-197.2 621,-197.2"/>
<polygon fill="none" stroke="#000000" points="621,-197.2 621,-220.2 794,-220.2 794,-197.2 621,-197.2"/>
<text text-anchor="start" x="626" y="-205.8" font-family="Helvetica,sans-Serif" font-weight="bold" font-size="11.00" fill="#000000">review_record</text>
<text text-anchor="start" x="759.0437" y="-205.3" font-family="Helvetica,sans-Serif" font-size="11.00" fill="#000000">[table]</text>
<polygon fill="none" stroke="#000000" points="621,-175.2 621,-197.2 794,-197.2 794,-175.2 621,-175.2"/>
<image xlink:href="../../images/primaryKeys.png" width="11px" height="12px" preserveAspectRatio="xMinYMin meet" x="626" y="-192.2"/>
<text text-anchor="start" x="641" y="-182.3" font-family="Helvetica,sans-Serif" font-size="11.00" fill="#000000">id</text>
<polygon fill="#ffffff" stroke="transparent" points="621,-153.2 621,-175.2 794,-175.2 794,-153.2 621,-153.2"/>
<polygon fill="none" stroke="#000000" points="621,-153.2 621,-175.2 794,-175.2 794,-153.2 621,-153.2"/>
<image xlink:href="../../images/foreignKeys.png" width="11px" height="12px" preserveAspectRatio="xMinYMin meet" x="626" y="-170.2"/>
<text text-anchor="start" x="641" y="-160.3" font-family="Helvetica,sans-Serif" font-size="11.00" fill="#000000">transport_request_id</text>
<polygon fill="#ffffff" stroke="transparent" points="621,-131.2 621,-153.2 794,-153.2 794,-131.2 621,-131.2"/>
<polygon fill="none" stroke="#000000" points="621,-131.2 621,-153.2 794,-153.2 794,-131.2 621,-131.2"/>
<image xlink:href="../../images/foreignKeys.png" width="11px" height="12px" preserveAspectRatio="xMinYMin meet" x="626" y="-148.2"/>
<text text-anchor="start" x="641" y="-138.3" font-family="Helvetica,sans-Serif" font-size="11.00" fill="#000000">version_no</text>
<polygon fill="#ffffff" stroke="transparent" points="621,-109.2 621,-131.2 794,-131.2 794,-109.2 621,-109.2"/>
<polygon fill="none" stroke="#000000" points="621,-109.2 621,-131.2 794,-131.2 794,-109.2 621,-109.2"/>
<text text-anchor="start" x="641" y="-116.3" font-family="Helvetica,sans-Serif" font-size="11.00" fill="#000000">decided_at</text>
<polygon fill="none" stroke="#000000" points="621,-90.2 621,-109.2 794,-109.2 794,-90.2 621,-90.2"/>
<text text-anchor="start" x="624" y="-96.3" font-family="Helvetica,sans-Serif" font-size="11.00" fill="#000000">...</text>
<polygon fill="#ffffff" stroke="transparent" points="621,-71.2 621,-90.2 794,-90.2 794,-71.2 621,-71.2"/>
<polygon fill="none" stroke="#000000" points="621,-71.2 621,-90.2 794,-90.2 794,-71.2 621,-71.2"/>
<polygon fill="#ffffff" stroke="transparent" points="622,-72.2 622,-89.2 685,-89.2 685,-72.2 622,-72.2"/>
<text text-anchor="start" x="624" y="-77.3" font-family="Helvetica,sans-Serif" font-size="11.00" fill="#000000">&lt; 2</text>
<polygon fill="#ffffff" stroke="transparent" points="685,-72.2 685,-89.2 739,-89.2 739,-72.2 685,-72.2"/>
<text text-anchor="start" x="708.9431" y="-77.3" font-family="Helvetica,sans-Serif" font-size="11.00" fill="#000000"> &#160;</text>
<polygon fill="#ffffff" stroke="transparent" points="739,-72.2 739,-89.2 793,-89.2 793,-72.2 739,-72.2"/>
<text text-anchor="start" x="784.8862" y="-77.3" font-family="Helvetica,sans-Serif" font-size="11.00" fill="#000000"> &#160;</text>
<polygon fill="#000000" stroke="#000000" points="685,-72.2 685,-89.2 685,-89.2 685,-72.2 685,-72.2"/>
<polygon fill="#000000" stroke="#000000" points="739,-72.2 739,-89.2 739,-89.2 739,-72.2 739,-72.2"/>
</a>
</g>
</g>
<!-- review_record&#45;&gt;transport_request_version -->
<g id="edge7" class="edge">
<title>review_record:w&#45;&gt;transport_request_version:e</title>
<path fill="none" stroke="#000000" d="M606.7395,-166.2276C547.0585,-185.4078 616.2521,-334.2 537.5,-334.2"/>
<polygon fill="#000000" stroke="#000000" points="613.0797,-165.3262 621.5068,-167.7642 617.0398,-164.7631 621,-164.2 621,-164.2 621,-164.2 617.0398,-164.7631 620.4932,-160.6358 613.0797,-165.3262 613.0797,-165.3262"/>
<ellipse fill="none" stroke="#000000" cx="609.9115" cy="-165.7767" rx="3.2" ry="3.2"/>
</g>
<!-- review_record&#45;&gt;transport_request_version -->
<g id="edge8" class="edge">
<title>review_record:w&#45;&gt;transport_request_version:e</title>
<path fill="none" stroke="#000000" d="M606.7395,-144.2276C547.0585,-163.4078 616.2521,-312.2 537.5,-312.2"/>
<polygon fill="#000000" stroke="#000000" points="613.0797,-143.3262 621.5068,-145.7642 617.0398,-142.7631 621,-142.2 621,-142.2 621,-142.2 617.0398,-142.7631 620.4932,-138.6358 613.0797,-143.3262 613.0797,-143.3262"/>
<ellipse fill="none" stroke="#000000" cx="609.9115" cy="-143.7767" rx="3.2" ry="3.2"/>
</g>
</g>
</svg>
