<?xml version="1.0" encoding="UTF-8" standalone="no"?>
<!DOCTYPE svg PUBLIC "-//W3C//DTD SVG 1.1//EN"
 "http://www.w3.org/Graphics/SVG/1.1/DTD/svg11.dtd">
<!-- Generated by graphviz version 2.40.1 (20161225.0304)
 -->
<!-- Title: oneDegreeRelationshipsDiagramImplied Pages: 1 -->
<svg width="841pt" height="391pt"
 viewBox="0.00 0.00 840.56 391.20" xmlns="http://www.w3.org/2000/svg" xmlns:xlink="http://www.w3.org/1999/xlink">
<g id="graph0" class="graph" transform="scale(1 1) rotate(0) translate(4 387.2)">
<title>oneDegreeRelationshipsDiagramImplied</title>
<polygon fill="#ffffff" stroke="transparent" points="-4,4 -4,-387.2 836.5629,-387.2 836.5629,4 -4,4"/>
<text text-anchor="middle" x="72.4936" y="-7.3" font-family="Helvetica,sans-Serif" font-size="11.00" fill="#000000">Generated by SchemaSpy</text>
<!-- candidate_leg -->
<g id="node1" class="node">
<title>candidate_leg</title>
<g id="a_node1"><a xlink:href="../../tables/candidate_leg.html" xlink:title="candidate_leg" target="_top">
<polygon fill="#ffffff" stroke="transparent" points="659.5629,-208.2 659.5629,-379.2 824.5629,-379.2 824.5629,-208.2 659.5629,-208.2"/>
<polygon fill="#f5f5f5" stroke="transparent" points="660.0629,-355.7 660.0629,-378.7 825.0629,-378.7 825.0629,-355.7 660.0629,-355.7"/>
<polygon fill="none" stroke="#000000" points="660.0629,-355.7 660.0629,-378.7 825.0629,-378.7 825.0629,-355.7 660.0629,-355.7"/>
<text text-anchor="start" x="665.0629" y="-364.3" font-family="Helvetica,sans-Serif" font-weight="bold" font-size="11.00" fill="#000000">candidate_leg</text>
<text text-anchor="start" x="790.1066" y="-363.8" font-family="Helvetica,sans-Serif" font-size="11.00" fill="#000000">[table]</text>
<polygon fill="none" stroke="#000000" points="660.0629,-333.7 660.0629,-355.7 825.0629,-355.7 825.0629,-333.7 660.0629,-333.7"/>
<image xlink:href="../../images/primaryKeys.png" width="11px" height="12px" preserveAspectRatio="xMinYMin meet" x="665.063" y="-350.7"/>
<text text-anchor="start" x="680.0629" y="-340.8" font-family="Helvetica,sans-Serif" font-size="11.00" fill="#000000">routing_case_id</text>
<polygon fill="none" stroke="#000000" points="660.0629,-311.7 660.0629,-333.7 825.0629,-333.7 825.0629,-311.7 660.0629,-311.7"/>
<image xlink:href="../../images/primaryKeys.png" width="11px" height="12px" preserveAspectRatio="xMinYMin meet" x="665.063" y="-328.7"/>
<text text-anchor="start" x="680.0629" y="-318.8" font-family="Helvetica,sans-Serif" font-size="11.00" fill="#000000">route_version_no</text>
<polygon fill="none" stroke="#000000" points="660.0629,-289.7 660.0629,-311.7 825.0629,-311.7 825.0629,-289.7 660.0629,-289.7"/>
<image xlink:href="../../images/primaryKeys.png" width="11px" height="12px" preserveAspectRatio="xMinYMin meet" x="665.063" y="-306.7"/>
<text text-anchor="start" x="680.0629" y="-296.8" font-family="Helvetica,sans-Serif" font-size="11.00" fill="#000000">candidate_no</text>
<polygon fill="none" stroke="#000000" points="660.0629,-267.7 660.0629,-289.7 825.0629,-289.7 825.0629,-267.7 660.0629,-267.7"/>
<image xlink:href="../../images/primaryKeys.png" width="11px" height="12px" preserveAspectRatio="xMinYMin meet" x="665.063" y="-284.7"/>
<text text-anchor="start" x="680.0629" y="-274.8" font-family="Helvetica,sans-Serif" font-size="11.00" fill="#000000">leg_no</text>
<polygon fill="none" stroke="#000000" points="660.0629,-245.7 660.0629,-267.7 825.0629,-267.7 825.0629,-245.7 660.0629,-245.7"/>
<image xlink:href="../../images/foreignKeys.png" width="11px" height="12px" preserveAspectRatio="xMinYMin meet" x="665.063" y="-262.7"/>
<text text-anchor="start" x="680.0629" y="-252.8" font-family="Helvetica,sans-Serif" font-size="11.00" fill="#000000">voyage_number</text>
<polygon fill="none" stroke="#000000" points="660.0629,-226.7 660.0629,-245.7 825.0629,-245.7 825.0629,-226.7 660.0629,-226.7"/>
<text text-anchor="start" x="663.0629" y="-232.8" font-family="Helvetica,sans-Serif" font-size="11.00" fill="#000000">...</text>
<polygon fill="#ffffff" stroke="transparent" points="660.0629,-207.7 660.0629,-226.7 825.0629,-226.7 825.0629,-207.7 660.0629,-207.7"/>
<polygon fill="none" stroke="#000000" points="660.0629,-207.7 660.0629,-226.7 825.0629,-226.7 825.0629,-207.7 660.0629,-207.7"/>
<polygon fill="#ffffff" stroke="transparent" points="661.0629,-208.7 661.0629,-225.7 722.0629,-225.7 722.0629,-208.7 661.0629,-208.7"/>
<text text-anchor="start" x="663.0629" y="-213.8" font-family="Helvetica,sans-Serif" font-size="11.00" fill="#000000">&lt; 3</text>
<polygon fill="#ffffff" stroke="transparent" points="722.0629,-208.7 722.0629,-225.7 773.0629,-225.7 773.0629,-208.7 722.0629,-208.7"/>
<text text-anchor="start" x="744.506" y="-213.8" font-family="Helvetica,sans-Serif" font-size="11.00" fill="#000000"> &#160;</text>
<polygon fill="#ffffff" stroke="transparent" points="773.0629,-208.7 773.0629,-225.7 824.0629,-225.7 824.0629,-208.7 773.0629,-208.7"/>
<text text-anchor="start" x="815.9491" y="-213.8" font-family="Helvetica,sans-Serif" font-size="11.00" fill="#000000"> &#160;</text>
<polygon fill="#000000" stroke="#000000" points="722.0629,-208.7 722.0629,-225.7 722.0629,-225.7 722.0629,-208.7 722.0629,-208.7"/>
<polygon fill="#000000" stroke="#000000" points="773.0629,-208.7 773.0629,-225.7 773.0629,-225.7 773.0629,-208.7 773.0629,-208.7"/>
</a>
</g>
</g>
<!-- route_candidate -->
<g id="node2" class="node">
<title>route_candidate</title>
<g id="a_node2"><a xlink:href="../../tables/route_candidate.html" xlink:title="route_candidate" target="_top">
<polygon fill="#ffffff" stroke="transparent" points="268.5629,-40.7 268.5629,-284.7 610.5629,-284.7 610.5629,-40.7 268.5629,-40.7"/>
<polygon fill="#f5f5f5" stroke="transparent" points="270.5629,-259.7 270.5629,-282.7 608.5629,-282.7 608.5629,-259.7 270.5629,-259.7"/>
<polygon fill="none" stroke="#000000" points="270.5629,-259.7 270.5629,-282.7 608.5629,-282.7 608.5629,-259.7 270.5629,-259.7"/>
<text text-anchor="start" x="275.5629" y="-268.3" font-family="Helvetica,sans-Serif" font-weight="bold" font-size="11.00" fill="#000000">route_candidate</text>
<text text-anchor="start" x="573.6066" y="-267.8" font-family="Helvetica,sans-Serif" font-size="11.00" fill="#000000">[table]</text>
<polygon fill="none" stroke="#000000" points="270.5629,-237.7 270.5629,-259.7 514.5629,-259.7 514.5629,-237.7 270.5629,-237.7"/>
<image xlink:href="../../images/primaryKeys.png" width="11px" height="12px" preserveAspectRatio="xMinYMin meet" x="275.563" y="-254.7"/>
<text text-anchor="start" x="290.5629" y="-244.8" font-family="Helvetica,sans-Serif" font-size="11.00" fill="#000000">routing_case_id</text>
<polygon fill="none" stroke="#000000" points="514.5629,-237.7 514.5629,-259.7 608.5629,-259.7 608.5629,-237.7 514.5629,-237.7"/>
<text text-anchor="start" x="517.5387" y="-245.4" font-family="Helvetica,sans-Serif" font-size="11.00" fill="#000000">uuid[2147483647]</text>
<polygon fill="none" stroke="#000000" points="270.5629,-215.7 270.5629,-237.7 514.5629,-237.7 514.5629,-215.7 270.5629,-215.7"/>
<image xlink:href="../../images/primaryKeys.png" width="11px" height="12px" preserveAspectRatio="xMinYMin meet" x="275.563" y="-232.7"/>
<text text-anchor="start" x="290.5629" y="-222.8" font-family="Helvetica,sans-Serif" font-size="11.00" fill="#000000">route_version_no</text>
<polygon fill="none" stroke="#000000" points="514.5629,-215.7 514.5629,-237.7 608.5629,-237.7 608.5629,-215.7 514.5629,-215.7"/>
<text text-anchor="start" x="517.5629" y="-223.4" font-family="Helvetica,sans-Serif" font-size="11.00" fill="#000000">int4[10]</text>
<polygon fill="none" stroke="#000000" points="270.5629,-193.7 270.5629,-215.7 514.5629,-215.7 514.5629,-193.7 270.5629,-193.7"/>
<image xlink:href="../../images/primaryKeys.png" width="11px" height="12px" preserveAspectRatio="xMinYMin meet" x="275.563" y="-210.7"/>
<text text-anchor="start" x="290.5629" y="-200.8" font-family="Helvetica,sans-Serif" font-size="11.00" fill="#000000">candidate_no</text>
<polygon fill="none" stroke="#000000" points="514.5629,-193.7 514.5629,-215.7 608.5629,-215.7 608.5629,-193.7 514.5629,-193.7"/>
<text text-anchor="start" x="517.5629" y="-201.4" font-family="Helvetica,sans-Serif" font-size="11.00" fill="#000000">int4[10]</text>
<polygon fill="none" stroke="#000000" points="270.5629,-171.7 270.5629,-193.7 514.5629,-193.7 514.5629,-171.7 270.5629,-171.7"/>
<text text-anchor="start" x="290.5629" y="-178.8" font-family="Helvetica,sans-Serif" font-size="11.00" fill="#000000">conforming</text>
<polygon fill="none" stroke="#000000" points="514.5629,-171.7 514.5629,-193.7 608.5629,-193.7 608.5629,-171.7 514.5629,-171.7"/>
<text text-anchor="start" x="517.5629" y="-179.4" font-family="Helvetica,sans-Serif" font-size="11.00" fill="#000000">bool[1]</text>
<polygon fill="none" stroke="#000000" points="270.5629,-149.7 270.5629,-171.7 514.5629,-171.7 514.5629,-149.7 270.5629,-149.7"/>
<text text-anchor="start" x="290.5629" y="-156.8" font-family="Helvetica,sans-Serif" font-size="11.00" fill="#000000">estimated_arrival_at</text>
<polygon fill="none" stroke="#000000" points="514.5629,-149.7 514.5629,-171.7 608.5629,-171.7 608.5629,-149.7 514.5629,-149.7"/>
<text text-anchor="start" x="517.5629" y="-157.4" font-family="Helvetica,sans-Serif" font-size="11.00" fill="#000000">timestamptz[35,6]</text>
<polygon fill="none" stroke="#000000" points="270.5629,-127.7 270.5629,-149.7 514.5629,-149.7 514.5629,-127.7 270.5629,-127.7"/>
<text text-anchor="start" x="290.5629" y="-134.8" font-family="Helvetica,sans-Serif" font-size="11.00" fill="#000000">min_connection_slack_minutes</text>
<polygon fill="none" stroke="#000000" points="514.5629,-127.7 514.5629,-149.7 608.5629,-149.7 608.5629,-127.7 514.5629,-127.7"/>
<text text-anchor="start" x="517.5629" y="-135.4" font-family="Helvetica,sans-Serif" font-size="11.00" fill="#000000">int4[10]</text>
<polygon fill="none" stroke="#000000" points="270.5629,-105.7 270.5629,-127.7 514.5629,-127.7 514.5629,-105.7 270.5629,-105.7"/>
<text text-anchor="start" x="290.5629" y="-112.8" font-family="Helvetica,sans-Serif" font-size="11.00" fill="#000000">evaluated_at</text>
<polygon fill="none" stroke="#000000" points="514.5629,-105.7 514.5629,-127.7 608.5629,-127.7 608.5629,-105.7 514.5629,-105.7"/>
<text text-anchor="start" x="517.5629" y="-113.4" font-family="Helvetica,sans-Serif" font-size="11.00" fill="#000000">timestamptz[35,6]</text>
<polygon fill="none" stroke="#000000" points="270.5629,-83.7 270.5629,-105.7 514.5629,-105.7 514.5629,-83.7 270.5629,-83.7"/>
<text text-anchor="start" x="290.5629" y="-90.8" font-family="Helvetica,sans-Serif" font-size="11.00" fill="#000000">oldest_info_acquired_at</text>
<polygon fill="none" stroke="#000000" points="514.5629,-83.7 514.5629,-105.7 608.5629,-105.7 608.5629,-83.7 514.5629,-83.7"/>
<text text-anchor="start" x="517.5629" y="-91.4" font-family="Helvetica,sans-Serif" font-size="11.00" fill="#000000">timestamptz[35,6]</text>
<polygon fill="none" stroke="#000000" points="270.5629,-61.7 270.5629,-83.7 514.5629,-83.7 514.5629,-61.7 270.5629,-61.7"/>
<text text-anchor="start" x="290.5629" y="-68.8" font-family="Helvetica,sans-Serif" font-size="11.00" fill="#000000">info_insufficient</text>
<polygon fill="none" stroke="#000000" points="514.5629,-61.7 514.5629,-83.7 608.5629,-83.7 608.5629,-61.7 514.5629,-61.7"/>
<text text-anchor="start" x="517.5629" y="-69.4" font-family="Helvetica,sans-Serif" font-size="11.00" fill="#000000">bool[1]</text>
<polygon fill="#ffffff" stroke="transparent" points="270.5629,-42.7 270.5629,-61.7 608.5629,-61.7 608.5629,-42.7 270.5629,-42.7"/>
<polygon fill="none" stroke="#000000" points="270.5629,-42.7 270.5629,-61.7 608.5629,-61.7 608.5629,-42.7 270.5629,-42.7"/>
<polygon fill="#ffffff" stroke="transparent" points="271.5629,-43.7 271.5629,-60.7 386.5629,-60.7 386.5629,-43.7 271.5629,-43.7"/>
<text text-anchor="start" x="273.5629" y="-48.8" font-family="Helvetica,sans-Serif" font-size="11.00" fill="#000000">&lt; 2</text>
<polygon fill="#ffffff" stroke="transparent" points="386.5629,-43.7 386.5629,-60.7 492.5629,-60.7 492.5629,-43.7 386.5629,-43.7"/>
<text text-anchor="start" x="436.506" y="-48.8" font-family="Helvetica,sans-Serif" font-size="11.00" fill="#000000"> &#160;</text>
<polygon fill="#ffffff" stroke="transparent" points="492.5629,-43.7 492.5629,-60.7 607.5629,-60.7 607.5629,-43.7 492.5629,-43.7"/>
<text text-anchor="start" x="589.9682" y="-48.8" font-family="Helvetica,sans-Serif" font-size="11.00" fill="#000000">9 &gt;</text>
<polygon fill="#000000" stroke="#000000" points="386.5629,-43.7 386.5629,-60.7 386.5629,-60.7 386.5629,-43.7 386.5629,-43.7"/>
<polygon fill="#000000" stroke="#000000" points="492.5629,-43.7 492.5629,-60.7 492.5629,-60.7 492.5629,-43.7 492.5629,-43.7"/>
<polygon fill="none" stroke="#000000" stroke-width="2" points="269.5629,-41.7 269.5629,-283.7 609.5629,-283.7 609.5629,-41.7 269.5629,-41.7"/>
</a>
</g>
</g>
<!-- candidate_leg&#45;&gt;route_candidate -->
<g id="edge1" class="edge">
<title>candidate_leg:w&#45;&gt;route_candidate:e</title>
<path fill="none" stroke="#000000" d="M645.9345,-296.575C621.5138,-278.2 650.9291,-204.7 608.5629,-204.7"/>
<polygon fill="#000000" stroke="#000000" points="652.3835,-298.4578 659.0539,-304.1557 656.2232,-299.5789 660.0629,-300.7 660.0629,-300.7 660.0629,-300.7 656.2232,-299.5789 661.0719,-297.2443 652.3835,-298.4578 652.3835,-298.4578"/>
<ellipse fill="none" stroke="#000000" cx="649.3118" cy="-297.561" rx="3.2" ry="3.2"/>
</g>
<!-- candidate_leg&#45;&gt;route_candidate -->
<g id="edge2" class="edge">
<title>candidate_leg:w&#45;&gt;route_candidate:e</title>
<path fill="none" stroke="#000000" d="M645.9345,-318.575C621.5138,-300.2 650.9291,-226.7 608.5629,-226.7"/>
<polygon fill="#000000" stroke="#000000" points="652.3835,-320.4578 659.0539,-326.1557 656.2232,-321.5789 660.0629,-322.7 660.0629,-322.7 660.0629,-322.7 656.2232,-321.5789 661.0719,-319.2443 652.3835,-320.4578 652.3835,-320.4578"/>
<ellipse fill="none" stroke="#000000" cx="649.3118" cy="-319.561" rx="3.2" ry="3.2"/>
</g>
<!-- candidate_leg&#45;&gt;route_candidate -->
<g id="edge3" class="edge">
<title>candidate_leg:w&#45;&gt;route_candidate:e</title>
<path fill="none" stroke="#000000" d="M645.9345,-340.575C621.5138,-322.2 650.9291,-248.7 608.5629,-248.7"/>
<polygon fill="#000000" stroke="#000000" points="652.3835,-342.4578 659.0539,-348.1557 656.2232,-343.5789 660.0629,-344.7 660.0629,-344.7 660.0629,-344.7 656.2232,-343.5789 661.0719,-341.2443 652.3835,-342.4578 652.3835,-342.4578"/>
<ellipse fill="none" stroke="#000000" cx="649.3118" cy="-341.561" rx="3.2" ry="3.2"/>
</g>
<!-- route_version -->
<g id="node4" class="node">
<title>route_version</title>
<g id="a_node4"><a xlink:href="../../tables/route_version.html" xlink:title="route_version" target="_top">
<polygon fill="#ffffff" stroke="transparent" points="17.5629,-156.2 17.5629,-283.2 219.5629,-283.2 219.5629,-156.2 17.5629,-156.2"/>
<polygon fill="#f5f5f5" stroke="transparent" points="17.5629,-259.7 17.5629,-282.7 219.5629,-282.7 219.5629,-259.7 17.5629,-259.7"/>
<polygon fill="none" stroke="#000000" points="17.5629,-259.7 17.5629,-282.7 219.5629,-282.7 219.5629,-259.7 17.5629,-259.7"/>
<text text-anchor="start" x="22.5629" y="-268.3" font-family="Helvetica,sans-Serif" font-weight="bold" font-size="11.00" fill="#000000">route_version</text>
<text text-anchor="start" x="184.6066" y="-267.8" font-family="Helvetica,sans-Serif" font-size="11.00" fill="#000000">[table]</text>
<polygon fill="none" stroke="#000000" points="17.5629,-237.7 17.5629,-259.7 219.5629,-259.7 219.5629,-237.7 17.5629,-237.7"/>
<image xlink:href="../../images/primaryKeys.png" width="11px" height="12px" preserveAspectRatio="xMinYMin meet" x="22.5629" y="-254.7"/>
<text text-anchor="start" x="37.5629" y="-244.8" font-family="Helvetica,sans-Serif" font-size="11.00" fill="#000000">routing_case_id</text>
<polygon fill="none" stroke="#000000" points="17.5629,-215.7 17.5629,-237.7 219.5629,-237.7 219.5629,-215.7 17.5629,-215.7"/>
<image xlink:href="../../images/primaryKeys.png" width="11px" height="12px" preserveAspectRatio="xMinYMin meet" x="22.5629" y="-232.7"/>
<text text-anchor="start" x="37.5629" y="-222.8" font-family="Helvetica,sans-Serif" font-size="11.00" fill="#000000">route_version_no</text>
<polygon fill="none" stroke="#000000" points="17.5629,-193.7 17.5629,-215.7 219.5629,-215.7 219.5629,-193.7 17.5629,-193.7"/>
<image xlink:href="../../images/foreignKeys.png" width="11px" height="12px" preserveAspectRatio="xMinYMin meet" x="22.5629" y="-210.7"/>
<text text-anchor="start" x="37.5629" y="-200.8" font-family="Helvetica,sans-Serif" font-size="11.00" fill="#000000">selected_candidate_no</text>
<polygon fill="none" stroke="#000000" points="17.5629,-174.7 17.5629,-193.7 219.5629,-193.7 219.5629,-174.7 17.5629,-174.7"/>
<text text-anchor="start" x="20.5629" y="-180.8" font-family="Helvetica,sans-Serif" font-size="11.00" fill="#000000">...</text>
<polygon fill="#ffffff" stroke="transparent" points="17.5629,-155.7 17.5629,-174.7 219.5629,-174.7 219.5629,-155.7 17.5629,-155.7"/>
<polygon fill="none" stroke="#000000" points="17.5629,-155.7 17.5629,-174.7 219.5629,-174.7 219.5629,-155.7 17.5629,-155.7"/>
<polygon fill="#ffffff" stroke="transparent" points="18.5629,-156.7 18.5629,-173.7 88.5629,-173.7 88.5629,-156.7 18.5629,-156.7"/>
<text text-anchor="start" x="20.5629" y="-161.8" font-family="Helvetica,sans-Serif" font-size="11.00" fill="#000000">&lt; 4</text>
<polygon fill="#ffffff" stroke="transparent" points="88.5629,-156.7 88.5629,-173.7 149.5629,-173.7 149.5629,-156.7 88.5629,-156.7"/>
<text text-anchor="start" x="116.006" y="-161.8" font-family="Helvetica,sans-Serif" font-size="11.00" fill="#000000"> &#160;</text>
<polygon fill="#ffffff" stroke="transparent" points="149.5629,-156.7 149.5629,-173.7 218.5629,-173.7 218.5629,-156.7 149.5629,-156.7"/>
<text text-anchor="start" x="200.9682" y="-161.8" font-family="Helvetica,sans-Serif" font-size="11.00" fill="#000000">4 &gt;</text>
<polygon fill="#000000" stroke="#000000" points="88.5629,-156.7 88.5629,-173.7 88.5629,-173.7 88.5629,-156.7 88.5629,-156.7"/>
<polygon fill="#000000" stroke="#000000" points="149.5629,-156.7 149.5629,-173.7 149.5629,-173.7 149.5629,-156.7 149.5629,-156.7"/>
</a>
</g>
</g>
<!-- route_candidate&#45;&gt;route_version -->
<g id="edge7" class="edge">
<title>route_candidate:w&#45;&gt;route_version:e</title>
<path fill="none" stroke="#000000" d="M255.8389,-226.7C243.8444,-226.7 236.3858,-226.7 219.5629,-226.7"/>
<polygon fill="#000000" stroke="#000000" points="262.5629,-226.7001 270.5629,-230.3 266.5629,-226.7 270.5629,-226.7 270.5629,-226.7 270.5629,-226.7 266.5629,-226.7 270.5629,-223.1 262.5629,-226.7001 262.5629,-226.7001"/>
<ellipse fill="none" stroke="#000000" cx="259.3629" cy="-226.7001" rx="3.2" ry="3.2"/>
</g>
<!-- route_candidate&#45;&gt;route_version -->
<g id="edge8" class="edge">
<title>route_candidate:w&#45;&gt;route_version:e</title>
<path fill="none" stroke="#000000" d="M255.8389,-248.7C243.8444,-248.7 236.3858,-248.7 219.5629,-248.7"/>
<polygon fill="#000000" stroke="#000000" points="262.5629,-248.7001 270.5629,-252.3 266.5629,-248.7 270.5629,-248.7 270.5629,-248.7 270.5629,-248.7 266.5629,-248.7 270.5629,-245.1 262.5629,-248.7001 262.5629,-248.7001"/>
<ellipse fill="none" stroke="#000000" cx="259.3629" cy="-248.7001" rx="3.2" ry="3.2"/>
</g>
<!-- exclusion_reason -->
<g id="node3" class="node">
<title>exclusion_reason</title>
<g id="a_node3"><a xlink:href="../../tables/exclusion_reason.html" xlink:title="exclusion_reason" target="_top">
<polygon fill="#ffffff" stroke="transparent" points="660.0629,-38.2 660.0629,-187.2 824.0629,-187.2 824.0629,-38.2 660.0629,-38.2"/>
<polygon fill="#f5f5f5" stroke="transparent" points="660.0629,-163.7 660.0629,-186.7 824.0629,-186.7 824.0629,-163.7 660.0629,-163.7"/>
<polygon fill="none" stroke="#000000" points="660.0629,-163.7 660.0629,-186.7 824.0629,-186.7 824.0629,-163.7 660.0629,-163.7"/>
<text text-anchor="start" x="665.0629" y="-172.3" font-family="Helvetica,sans-Serif" font-weight="bold" font-size="11.00" fill="#000000">exclusion_reason</text>
<text text-anchor="start" x="789.5848" y="-171.8" font-family="Helvetica,sans-Serif" font-size="11.00" fill="#000000">[table]</text>
<polygon fill="none" stroke="#000000" points="660.0629,-141.7 660.0629,-163.7 824.0629,-163.7 824.0629,-141.7 660.0629,-141.7"/>
<image xlink:href="../../images/primaryKeys.png" width="11px" height="12px" preserveAspectRatio="xMinYMin meet" x="665.063" y="-158.7"/>
<text text-anchor="start" x="689.0629" y="-148.8" font-family="Helvetica,sans-Serif" font-size="11.00" fill="#000000">routing_case_id</text>
<polygon fill="none" stroke="#000000" points="660.0629,-119.7 660.0629,-141.7 824.0629,-141.7 824.0629,-119.7 660.0629,-119.7"/>
<image xlink:href="../../images/primaryKeys.png" width="11px" height="12px" preserveAspectRatio="xMinYMin meet" x="665.063" y="-136.7"/>
<text text-anchor="start" x="689.0629" y="-126.8" font-family="Helvetica,sans-Serif" font-size="11.00" fill="#000000">route_version_no</text>
<polygon fill="none" stroke="#000000" points="660.0629,-97.7 660.0629,-119.7 824.0629,-119.7 824.0629,-97.7 660.0629,-97.7"/>
<image xlink:href="../../images/primaryKeys.png" width="11px" height="12px" preserveAspectRatio="xMinYMin meet" x="665.063" y="-114.7"/>
<text text-anchor="start" x="689.0629" y="-104.8" font-family="Helvetica,sans-Serif" font-size="11.00" fill="#000000">candidate_no</text>
<polygon fill="none" stroke="#000000" points="660.0629,-75.7 660.0629,-97.7 824.0629,-97.7 824.0629,-75.7 660.0629,-75.7"/>
<image xlink:href="../../images/primaryKeys.png" width="11px" height="12px" preserveAspectRatio="xMinYMin meet" x="665.063" y="-92.7"/>
<text text-anchor="start" x="689.0629" y="-82.8" font-family="Helvetica,sans-Serif" font-size="11.00" fill="#000000">reason_no</text>
<polygon fill="none" stroke="#000000" points="660.0629,-56.7 660.0629,-75.7 824.0629,-75.7 824.0629,-56.7 660.0629,-56.7"/>
<text text-anchor="start" x="663.0629" y="-62.8" font-family="Helvetica,sans-Serif" font-size="11.00" fill="#000000">...</text>
<polygon fill="#ffffff" stroke="transparent" points="660.0629,-37.7 660.0629,-56.7 824.0629,-56.7 824.0629,-37.7 660.0629,-37.7"/>
<polygon fill="none" stroke="#000000" points="660.0629,-37.7 660.0629,-56.7 824.0629,-56.7 824.0629,-37.7 660.0629,-37.7"/>
<polygon fill="#ffffff" stroke="transparent" points="661.0629,-38.7 661.0629,-55.7 721.0629,-55.7 721.0629,-38.7 661.0629,-38.7"/>
<text text-anchor="start" x="663.0629" y="-43.8" font-family="Helvetica,sans-Serif" font-size="11.00" fill="#000000">&lt; 3</text>
<polygon fill="#ffffff" stroke="transparent" points="721.0629,-38.7 721.0629,-55.7 772.0629,-55.7 772.0629,-38.7 721.0629,-38.7"/>
<text text-anchor="start" x="743.506" y="-43.8" font-family="Helvetica,sans-Serif" font-size="11.00" fill="#000000"> &#160;</text>
<polygon fill="#ffffff" stroke="transparent" points="772.0629,-38.7 772.0629,-55.7 823.0629,-55.7 823.0629,-38.7 772.0629,-38.7"/>
<text text-anchor="start" x="814.9491" y="-43.8" font-family="Helvetica,sans-Serif" font-size="11.00" fill="#000000"> &#160;</text>
<polygon fill="#000000" stroke="#000000" points="721.0629,-38.7 721.0629,-55.7 721.0629,-55.7 721.0629,-38.7 721.0629,-38.7"/>
<polygon fill="#000000" stroke="#000000" points="772.0629,-38.7 772.0629,-55.7 772.0629,-55.7 772.0629,-38.7 772.0629,-38.7"/>
</a>
</g>
</g>
<!-- exclusion_reason&#45;&gt;route_candidate -->
<g id="edge4" class="edge">
<title>exclusion_reason:w&#45;&gt;route_candidate:e</title>
<path fill="none" stroke="#000000" d="M645.9345,-112.825C621.5138,-131.2 650.9291,-204.7 608.5629,-204.7"/>
<polygon fill="#000000" stroke="#000000" points="652.3835,-110.9422 661.0719,-112.1557 656.2232,-109.8211 660.0629,-108.7 660.0629,-108.7 660.0629,-108.7 656.2232,-109.8211 659.0539,-105.2443 652.3835,-110.9422 652.3835,-110.9422"/>
<ellipse fill="none" stroke="#000000" cx="649.3118" cy="-111.839" rx="3.2" ry="3.2"/>
</g>
<!-- exclusion_reason&#45;&gt;route_candidate -->
<g id="edge5" class="edge">
<title>exclusion_reason:w&#45;&gt;route_candidate:e</title>
<path fill="none" stroke="#000000" d="M645.9345,-134.825C621.5138,-153.2 650.9291,-226.7 608.5629,-226.7"/>
<polygon fill="#000000" stroke="#000000" points="652.3835,-132.9422 661.0719,-134.1557 656.2232,-131.8211 660.0629,-130.7 660.0629,-130.7 660.0629,-130.7 656.2232,-131.8211 659.0539,-127.2443 652.3835,-132.9422 652.3835,-132.9422"/>
<ellipse fill="none" stroke="#000000" cx="649.3118" cy="-133.839" rx="3.2" ry="3.2"/>
</g>
<!-- exclusion_reason&#45;&gt;route_candidate -->
<g id="edge6" class="edge">
<title>exclusion_reason:w&#45;&gt;route_candidate:e</title>
<path fill="none" stroke="#000000" d="M645.9345,-156.825C621.5138,-175.2 650.9291,-248.7 608.5629,-248.7"/>
<polygon fill="#000000" stroke="#000000" points="652.3835,-154.9422 661.0719,-156.1557 656.2232,-153.8211 660.0629,-152.7 660.0629,-152.7 660.0629,-152.7 656.2232,-153.8211 659.0539,-149.2443 652.3835,-154.9422 652.3835,-154.9422"/>
<ellipse fill="none" stroke="#000000" cx="649.3118" cy="-155.839" rx="3.2" ry="3.2"/>
</g>
<!-- route_version&#45;&gt;route_candidate -->
<g id="edge9" class="edge">
<title>route_version:w&#45;&gt;route_candidate:e</title>
<path fill="none" stroke="#000000" d="M4.0815,-232.7133C-5.0225,-244.9124 3.0058,-272.6429 17.5629,-287.2 83.5595,-353.1966 134.5188,-294.5414 227.5629,-287.2 227.5629,-287.2 608.5629,-226.7 608.5629,-226.7"/>
<polygon fill="#000000" stroke="#000000" points="10.2568,-229.9589 19.0294,-229.9878 13.9098,-228.3295 17.5629,-226.7 17.5629,-226.7 17.5629,-226.7 13.9098,-228.3295 16.0964,-223.4122 10.2568,-229.9589 10.2568,-229.9589"/>
<ellipse fill="none" stroke="#000000" cx="7.3343" cy="-231.2625" rx="3.2" ry="3.2"/>
</g>
<!-- route_version&#45;&gt;route_candidate -->
<g id="edge10" class="edge">
<title>route_version:w&#45;&gt;route_candidate:e</title>
<path fill="none" stroke="#000000" d="M31.9971,-251.3463C79.442,-260.0445 227.5629,-287.2 227.5629,-287.2 227.5629,-287.2 608.5629,-248.7 608.5629,-248.7"/>
<polygon fill="#000000" stroke="#000000" points="25.4318,-250.1427 18.2121,-245.159 21.4973,-249.4213 17.5629,-248.7 17.5629,-248.7 17.5629,-248.7 21.4973,-249.4213 16.9137,-252.241 25.4318,-250.1427 25.4318,-250.1427"/>
<ellipse fill="none" stroke="#000000" cx="28.5793" cy="-250.7197" rx="3.2" ry="3.2"/>
</g>
<!-- route_version&#45;&gt;route_candidate -->
<g id="edge11" class="edge">
<title>route_version:w&#45;&gt;route_candidate:e</title>
<path fill="none" stroke="#000000" d="M31.6677,-201.1738C78.7523,-189.4027 227.5629,-152.2 227.5629,-152.2 227.5629,-152.2 608.5629,-204.7 608.5629,-204.7"/>
<polygon fill="#000000" stroke="#000000" points="25.3241,-202.7597 16.6898,-201.2075 21.4435,-203.7298 17.5629,-204.7 17.5629,-204.7 17.5629,-204.7 21.4435,-203.7298 18.4361,-208.1925 25.3241,-202.7597 25.3241,-202.7597"/>
<ellipse fill="none" stroke="#000000" cx="28.4285" cy="-201.9835" rx="3.2" ry="3.2"/>
</g>
</g>
</svg>
