<?xml version="1.0" encoding="UTF-8" standalone="no"?>
<!DOCTYPE svg PUBLIC "-//W3C//DTD SVG 1.1//EN"
 "http://www.w3.org/Graphics/SVG/1.1/DTD/svg11.dtd">
<!-- Generated by graphviz version 2.40.1 (20161225.0304)
 -->
<!-- Title: oneDegreeRelationshipsDiagram Pages: 1 -->
<svg width="548pt" height="250pt"
 viewBox="0.00 0.00 548.00 250.20" xmlns="http://www.w3.org/2000/svg" xmlns:xlink="http://www.w3.org/1999/xlink">
<g id="graph0" class="graph" transform="scale(1 1) rotate(0) translate(4 246.2)">
<title>oneDegreeRelationshipsDiagram</title>
<polygon fill="#ffffff" stroke="transparent" points="-4,4 -4,-246.2 544,-246.2 544,4 -4,4"/>
<text text-anchor="middle" x="72.4936" y="-7.3" font-family="Helvetica,sans-Serif" font-size="11.00" fill="#000000">Generated by SchemaSpy</text>
<!-- scheduled_leg -->
<g id="node1" class="node">
<title>scheduled_leg</title>
<g id="a_node1"><a xlink:href="../../tables/scheduled_leg.html" xlink:title="scheduled_leg" target="_top">
<polygon fill="#ffffff" stroke="transparent" points="271,-38.2 271,-238.2 532,-238.2 532,-38.2 271,-38.2"/>
<polygon fill="#f5f5f5" stroke="transparent" points="273.5,-213.2 273.5,-236.2 530.5,-236.2 530.5,-213.2 273.5,-213.2"/>
<polygon fill="none" stroke="#000000" points="273.5,-213.2 273.5,-236.2 530.5,-236.2 530.5,-213.2 273.5,-213.2"/>
<text text-anchor="start" x="278.5" y="-221.8" font-family="Helvetica,sans-Serif" font-weight="bold" font-size="11.00" fill="#000000">scheduled_leg</text>
<text text-anchor="start" x="495.5437" y="-221.3" font-family="Helvetica,sans-Serif" font-size="11.00" fill="#000000">[table]</text>
<polygon fill="none" stroke="#000000" points="273.5,-191.2 273.5,-213.2 438.5,-213.2 438.5,-191.2 273.5,-191.2"/>
<image xlink:href="../../images/primaryKeys.png" width="11px" height="12px" preserveAspectRatio="xMinYMin meet" x="278.5" y="-208.2"/>
<text text-anchor="start" x="293.5" y="-198.3" font-family="Helvetica,sans-Serif" font-size="11.00" fill="#000000">tracking_number</text>
<polygon fill="none" stroke="#000000" points="438.5,-191.2 438.5,-213.2 530.5,-213.2 530.5,-191.2 438.5,-191.2"/>
<text text-anchor="start" x="441.5" y="-198.9" font-family="Helvetica,sans-Serif" font-size="11.00" fill="#000000">varchar[20]</text>
<polygon fill="none" stroke="#000000" points="273.5,-169.2 273.5,-191.2 438.5,-191.2 438.5,-169.2 273.5,-169.2"/>
<image xlink:href="../../images/primaryKeys.png" width="11px" height="12px" preserveAspectRatio="xMinYMin meet" x="278.5" y="-186.2"/>
<text text-anchor="start" x="293.5" y="-176.3" font-family="Helvetica,sans-Serif" font-size="11.00" fill="#000000">leg_no</text>
<polygon fill="none" stroke="#000000" points="438.5,-169.2 438.5,-191.2 530.5,-191.2 530.5,-169.2 438.5,-169.2"/>
<text text-anchor="start" x="441.5" y="-176.9" font-family="Helvetica,sans-Serif" font-size="11.00" fill="#000000">int4[10]</text>
<polygon fill="none" stroke="#000000" points="273.5,-147.2 273.5,-169.2 438.5,-169.2 438.5,-147.2 273.5,-147.2"/>
<text text-anchor="start" x="293.5" y="-154.3" font-family="Helvetica,sans-Serif" font-size="11.00" fill="#000000">voyage_number</text>
<polygon fill="none" stroke="#000000" points="438.5,-147.2 438.5,-169.2 530.5,-169.2 530.5,-147.2 438.5,-147.2"/>
<text text-anchor="start" x="441.5" y="-154.9" font-family="Helvetica,sans-Serif" font-size="11.00" fill="#000000">varchar[30]</text>
<polygon fill="none" stroke="#000000" points="273.5,-125.2 273.5,-147.2 438.5,-147.2 438.5,-125.2 273.5,-125.2"/>
<text text-anchor="start" x="293.5" y="-132.3" font-family="Helvetica,sans-Serif" font-size="11.00" fill="#000000">load_unlocode</text>
<polygon fill="none" stroke="#000000" points="438.5,-125.2 438.5,-147.2 530.5,-147.2 530.5,-125.2 438.5,-125.2"/>
<text text-anchor="start" x="441.5" y="-132.9" font-family="Helvetica,sans-Serif" font-size="11.00" fill="#000000">bpchar[5]</text>
<polygon fill="none" stroke="#000000" points="273.5,-103.2 273.5,-125.2 438.5,-125.2 438.5,-103.2 273.5,-103.2"/>
<text text-anchor="start" x="293.5" y="-110.3" font-family="Helvetica,sans-Serif" font-size="11.00" fill="#000000">discharge_unlocode</text>
<polygon fill="none" stroke="#000000" points="438.5,-103.2 438.5,-125.2 530.5,-125.2 530.5,-103.2 438.5,-103.2"/>
<text text-anchor="start" x="441.5" y="-110.9" font-family="Helvetica,sans-Serif" font-size="11.00" fill="#000000">bpchar[5]</text>
<polygon fill="none" stroke="#000000" points="273.5,-81.2 273.5,-103.2 438.5,-103.2 438.5,-81.2 273.5,-81.2"/>
<text text-anchor="start" x="293.5" y="-88.3" font-family="Helvetica,sans-Serif" font-size="11.00" fill="#000000">departure_at</text>
<polygon fill="none" stroke="#000000" points="438.5,-81.2 438.5,-103.2 530.5,-103.2 530.5,-81.2 438.5,-81.2"/>
<text text-anchor="start" x="441.1023" y="-88.9" font-family="Helvetica,sans-Serif" font-size="11.00" fill="#000000">timestamptz[35,6]</text>
<polygon fill="none" stroke="#000000" points="273.5,-59.2 273.5,-81.2 438.5,-81.2 438.5,-59.2 273.5,-59.2"/>
<text text-anchor="start" x="293.5" y="-66.3" font-family="Helvetica,sans-Serif" font-size="11.00" fill="#000000">arrival_at</text>
<polygon fill="none" stroke="#000000" points="438.5,-59.2 438.5,-81.2 530.5,-81.2 530.5,-59.2 438.5,-59.2"/>
<text text-anchor="start" x="441.1023" y="-66.9" font-family="Helvetica,sans-Serif" font-size="11.00" fill="#000000">timestamptz[35,6]</text>
<polygon fill="#ffffff" stroke="transparent" points="273.5,-40.2 273.5,-59.2 530.5,-59.2 530.5,-40.2 273.5,-40.2"/>
<polygon fill="none" stroke="#000000" points="273.5,-40.2 273.5,-59.2 530.5,-59.2 530.5,-40.2 273.5,-40.2"/>
<polygon fill="#ffffff" stroke="transparent" points="274.5,-41.2 274.5,-58.2 362.5,-58.2 362.5,-41.2 274.5,-41.2"/>
<text text-anchor="start" x="276.5" y="-46.3" font-family="Helvetica,sans-Serif" font-size="11.00" fill="#000000">&lt; 1</text>
<polygon fill="#ffffff" stroke="transparent" points="362.5,-41.2 362.5,-58.2 441.5,-58.2 441.5,-41.2 362.5,-41.2"/>
<text text-anchor="start" x="398.9431" y="-46.3" font-family="Helvetica,sans-Serif" font-size="11.00" fill="#000000"> &#160;</text>
<polygon fill="#ffffff" stroke="transparent" points="441.5,-41.2 441.5,-58.2 529.5,-58.2 529.5,-41.2 441.5,-41.2"/>
<text text-anchor="start" x="511.9053" y="-46.3" font-family="Helvetica,sans-Serif" font-size="11.00" fill="#000000">0 &gt;</text>
<polygon fill="#000000" stroke="#000000" points="362.5,-41.2 362.5,-58.2 362.5,-58.2 362.5,-41.2 362.5,-41.2"/>
<polygon fill="#000000" stroke="#000000" points="441.5,-41.2 441.5,-58.2 441.5,-58.2 441.5,-41.2 441.5,-41.2"/>
<polygon fill="none" stroke="#000000" stroke-width="2" points="272,-39.2 272,-237.2 531,-237.2 531,-39.2 272,-39.2"/>
</a>
</g>
</g>
<!-- tracking_record -->
<g id="node2" class="node">
<title>tracking_record</title>
<g id="a_node2"><a xlink:href="../../tables/tracking_record.html" xlink:title="tracking_record" target="_top">
<polygon fill="#ffffff" stroke="transparent" points="8,-65.7 8,-236.7 222,-236.7 222,-65.7 8,-65.7"/>
<polygon fill="#f5f5f5" stroke="transparent" points="8,-213.2 8,-236.2 222,-236.2 222,-213.2 8,-213.2"/>
<polygon fill="none" stroke="#000000" points="8,-213.2 8,-236.2 222,-236.2 222,-213.2 8,-213.2"/>
<text text-anchor="start" x="13" y="-221.8" font-family="Helvetica,sans-Serif" font-weight="bold" font-size="11.00" fill="#000000">tracking_record</text>
<text text-anchor="start" x="187.0437" y="-221.3" font-family="Helvetica,sans-Serif" font-size="11.00" fill="#000000">[table]</text>
<polygon fill="none" stroke="#000000" points="8,-191.2 8,-213.2 222,-213.2 222,-191.2 8,-191.2"/>
<image xlink:href="../../images/primaryKeys.png" width="11px" height="12px" preserveAspectRatio="xMinYMin meet" x="13" y="-208.2"/>
<text text-anchor="start" x="28" y="-198.3" font-family="Helvetica,sans-Serif" font-size="11.00" fill="#000000">tracking_number</text>
<polygon fill="#ffffff" stroke="transparent" points="8,-169.2 8,-191.2 222,-191.2 222,-169.2 8,-169.2"/>
<polygon fill="none" stroke="#000000" points="8,-169.2 8,-191.2 222,-191.2 222,-169.2 8,-169.2"/>
<text text-anchor="start" x="28" y="-176.3" font-family="Helvetica,sans-Serif" font-size="11.00" fill="#000000">booking_id</text>
<polygon fill="#ffffff" stroke="transparent" points="8,-147.2 8,-169.2 222,-169.2 222,-147.2 8,-147.2"/>
<polygon fill="none" stroke="#000000" points="8,-147.2 8,-169.2 222,-169.2 222,-147.2 8,-147.2"/>
<text text-anchor="start" x="28" y="-154.3" font-family="Helvetica,sans-Serif" font-size="11.00" fill="#000000">shipper_company_id</text>
<polygon fill="none" stroke="#000000" points="8,-125.2 8,-147.2 222,-147.2 222,-125.2 8,-125.2"/>
<image xlink:href="../../images/foreignKeys.png" width="11px" height="12px" preserveAspectRatio="xMinYMin meet" x="13" y="-142.2"/>
<text text-anchor="start" x="28" y="-132.3" font-family="Helvetica,sans-Serif" font-size="11.00" fill="#000000">status_basis_milestone_no</text>
<polygon fill="#ffffff" stroke="transparent" points="8,-103.2 8,-125.2 222,-125.2 222,-103.2 8,-103.2"/>
<polygon fill="none" stroke="#000000" points="8,-103.2 8,-125.2 222,-125.2 222,-103.2 8,-103.2"/>
<text text-anchor="start" x="28" y="-110.3" font-family="Helvetica,sans-Serif" font-size="11.00" fill="#000000">created_at</text>
<polygon fill="none" stroke="#000000" points="8,-84.2 8,-103.2 222,-103.2 222,-84.2 8,-84.2"/>
<text text-anchor="start" x="11" y="-90.3" font-family="Helvetica,sans-Serif" font-size="11.00" fill="#000000">...</text>
<polygon fill="#ffffff" stroke="transparent" points="8,-65.2 8,-84.2 222,-84.2 222,-65.2 8,-65.2"/>
<polygon fill="none" stroke="#000000" points="8,-65.2 8,-84.2 222,-84.2 222,-65.2 8,-65.2"/>
<polygon fill="#ffffff" stroke="transparent" points="9,-66.2 9,-83.2 83,-83.2 83,-66.2 9,-66.2"/>
<text text-anchor="start" x="11" y="-71.3" font-family="Helvetica,sans-Serif" font-size="11.00" fill="#000000">&lt; 2</text>
<polygon fill="#ffffff" stroke="transparent" points="83,-66.2 83,-83.2 148,-83.2 148,-66.2 83,-66.2"/>
<text text-anchor="start" x="112.4431" y="-71.3" font-family="Helvetica,sans-Serif" font-size="11.00" fill="#000000"> &#160;</text>
<polygon fill="#ffffff" stroke="transparent" points="148,-66.2 148,-83.2 221,-83.2 221,-66.2 148,-66.2"/>
<text text-anchor="start" x="203.4053" y="-71.3" font-family="Helvetica,sans-Serif" font-size="11.00" fill="#000000">2 &gt;</text>
<polygon fill="#000000" stroke="#000000" points="83,-66.2 83,-83.2 83,-83.2 83,-66.2 83,-66.2"/>
<polygon fill="#000000" stroke="#000000" points="148,-66.2 148,-83.2 148,-83.2 148,-66.2 148,-66.2"/>
</a>
</g>
</g>
<!-- scheduled_leg&#45;&gt;tracking_record -->
<g id="edge1" class="edge">
<title>scheduled_leg:w&#45;&gt;tracking_record:e</title>
<path fill="none" stroke="#000000" d="M259.0156,-202.2C246.6771,-202.2 239.1667,-202.2 222,-202.2"/>
<polygon fill="#000000" stroke="#000000" points="265.5,-202.2001 273.5,-205.8 269.5,-202.2 273.5,-202.2 273.5,-202.2 273.5,-202.2 269.5,-202.2 273.5,-198.6 265.5,-202.2001 265.5,-202.2001"/>
<ellipse fill="none" stroke="#000000" cx="262.3" cy="-202.2001" rx="3.2" ry="3.2"/>
</g>
</g>
</svg>
