<?xml version="1.0" encoding="UTF-8" standalone="no"?>
<!DOCTYPE svg PUBLIC "-//W3C//DTD SVG 1.1//EN"
 "http://www.w3.org/Graphics/SVG/1.1/DTD/svg11.dtd">
<!-- Generated by graphviz version 2.40.1 (20161225.0304)
 -->
<!-- Title: oneDegreeRelationshipsDiagram Pages: 1 -->
<svg width="552pt" height="547pt"
 viewBox="0.00 0.00 552.36 547.13" xmlns="http://www.w3.org/2000/svg" xmlns:xlink="http://www.w3.org/1999/xlink">
<g id="graph0" class="graph" transform="scale(1 1) rotate(0) translate(4 543.1258)">
<title>oneDegreeRelationshipsDiagram</title>
<polygon fill="#ffffff" stroke="transparent" points="-4,4 -4,-543.1258 548.3562,-543.1258 548.3562,4 -4,4"/>
<text text-anchor="middle" x="72.4936" y="-7.3" font-family="Helvetica,sans-Serif" font-size="11.00" fill="#000000">Generated by SchemaSpy</text>
<!-- milestone -->
<g id="node1" class="node">
<title>milestone</title>
<g id="a_node1"><a xlink:href="../../tables/milestone.html" xlink:title="milestone" target="_top">
<polygon fill="#ffffff" stroke="transparent" points="377.8562,-244.7 377.8562,-393.7 529.8562,-393.7 529.8562,-244.7 377.8562,-244.7"/>
<polygon fill="#f5f5f5" stroke="transparent" points="377.8562,-370.2 377.8562,-393.2 529.8562,-393.2 529.8562,-370.2 377.8562,-370.2"/>
<polygon fill="none" stroke="#000000" points="377.8562,-370.2 377.8562,-393.2 529.8562,-393.2 529.8562,-370.2 377.8562,-370.2"/>
<text text-anchor="start" x="382.8562" y="-378.8" font-family="Helvetica,sans-Serif" font-weight="bold" font-size="11.00" fill="#000000">milestone</text>
<text text-anchor="start" x="494.8999" y="-378.3" font-family="Helvetica,sans-Serif" font-size="11.00" fill="#000000">[table]</text>
<polygon fill="none" stroke="#000000" points="377.8562,-348.2 377.8562,-370.2 529.8562,-370.2 529.8562,-348.2 377.8562,-348.2"/>
<image xlink:href="../../images/primaryKeys.png" width="11px" height="12px" preserveAspectRatio="xMinYMin meet" x="382.856" y="-365.2"/>
<text text-anchor="start" x="397.8562" y="-355.3" font-family="Helvetica,sans-Serif" font-size="11.00" fill="#000000">tracking_number</text>
<polygon fill="none" stroke="#000000" points="377.8562,-326.2 377.8562,-348.2 529.8562,-348.2 529.8562,-326.2 377.8562,-326.2"/>
<image xlink:href="../../images/primaryKeys.png" width="11px" height="12px" preserveAspectRatio="xMinYMin meet" x="382.856" y="-343.2"/>
<text text-anchor="start" x="397.8562" y="-333.3" font-family="Helvetica,sans-Serif" font-size="11.00" fill="#000000">milestone_no</text>
<polygon fill="#ffffff" stroke="transparent" points="377.8562,-304.2 377.8562,-326.2 529.8562,-326.2 529.8562,-304.2 377.8562,-304.2"/>
<polygon fill="none" stroke="#000000" points="377.8562,-304.2 377.8562,-326.2 529.8562,-326.2 529.8562,-304.2 377.8562,-304.2"/>
<text text-anchor="start" x="397.8562" y="-311.3" font-family="Helvetica,sans-Serif" font-size="11.00" fill="#000000">source_kind</text>
<polygon fill="#ffffff" stroke="transparent" points="377.8562,-282.2 377.8562,-304.2 529.8562,-304.2 529.8562,-282.2 377.8562,-282.2"/>
<polygon fill="none" stroke="#000000" points="377.8562,-282.2 377.8562,-304.2 529.8562,-304.2 529.8562,-282.2 377.8562,-282.2"/>
<text text-anchor="start" x="397.8562" y="-289.3" font-family="Helvetica,sans-Serif" font-size="11.00" fill="#000000">source_ref</text>
<polygon fill="none" stroke="#000000" points="377.8562,-263.2 377.8562,-282.2 529.8562,-282.2 529.8562,-263.2 377.8562,-263.2"/>
<text text-anchor="start" x="380.8562" y="-269.3" font-family="Helvetica,sans-Serif" font-size="11.00" fill="#000000">...</text>
<polygon fill="#ffffff" stroke="transparent" points="377.8562,-244.2 377.8562,-263.2 529.8562,-263.2 529.8562,-244.2 377.8562,-244.2"/>
<polygon fill="none" stroke="#000000" points="377.8562,-244.2 377.8562,-263.2 529.8562,-263.2 529.8562,-244.2 377.8562,-244.2"/>
<polygon fill="#ffffff" stroke="transparent" points="378.8562,-245.2 378.8562,-262.2 431.8562,-262.2 431.8562,-245.2 378.8562,-245.2"/>
<text text-anchor="start" x="380.8562" y="-250.3" font-family="Helvetica,sans-Serif" font-size="11.00" fill="#000000">&lt; 1</text>
<polygon fill="#ffffff" stroke="transparent" points="431.8562,-245.2 431.8562,-262.2 475.8562,-262.2 475.8562,-245.2 431.8562,-245.2"/>
<text text-anchor="start" x="450.7993" y="-250.3" font-family="Helvetica,sans-Serif" font-size="11.00" fill="#000000"> &#160;</text>
<polygon fill="#ffffff" stroke="transparent" points="475.8562,-245.2 475.8562,-262.2 528.8562,-262.2 528.8562,-245.2 475.8562,-245.2"/>
<text text-anchor="start" x="511.2615" y="-250.3" font-family="Helvetica,sans-Serif" font-size="11.00" fill="#000000">2 &gt;</text>
<polygon fill="#000000" stroke="#000000" points="431.8562,-245.2 431.8562,-262.2 431.8562,-262.2 431.8562,-245.2 431.8562,-245.2"/>
<polygon fill="#000000" stroke="#000000" points="475.8562,-245.2 475.8562,-262.2 475.8562,-262.2 475.8562,-245.2 475.8562,-245.2"/>
</a>
</g>
</g>
<!-- tracking_record -->
<g id="node2" class="node">
<title>tracking_record</title>
<g id="a_node2"><a xlink:href="../../tables/tracking_record.html" xlink:title="tracking_record" target="_top">
<polygon fill="#ffffff" stroke="transparent" points="10.3562,-38.2 10.3562,-458.2 322.3562,-458.2 322.3562,-38.2 10.3562,-38.2"/>
<polygon fill="#f5f5f5" stroke="transparent" points="12.3562,-433.2 12.3562,-456.2 320.3562,-456.2 320.3562,-433.2 12.3562,-433.2"/>
<polygon fill="none" stroke="#000000" points="12.3562,-433.2 12.3562,-456.2 320.3562,-456.2 320.3562,-433.2 12.3562,-433.2"/>
<text text-anchor="start" x="17.3562" y="-441.8" font-family="Helvetica,sans-Serif" font-weight="bold" font-size="11.00" fill="#000000">tracking_record</text>
<text text-anchor="start" x="285.3999" y="-441.3" font-family="Helvetica,sans-Serif" font-size="11.00" fill="#000000">[table]</text>
<polygon fill="none" stroke="#000000" points="12.3562,-411.2 12.3562,-433.2 226.3562,-433.2 226.3562,-411.2 12.3562,-411.2"/>
<image xlink:href="../../images/primaryKeys.png" width="11px" height="12px" preserveAspectRatio="xMinYMin meet" x="17.3562" y="-428.2"/>
<text text-anchor="start" x="32.3562" y="-418.3" font-family="Helvetica,sans-Serif" font-size="11.00" fill="#000000">tracking_number</text>
<polygon fill="none" stroke="#000000" points="226.3562,-411.2 226.3562,-433.2 320.3562,-433.2 320.3562,-411.2 226.3562,-411.2"/>
<text text-anchor="start" x="229.3562" y="-418.9" font-family="Helvetica,sans-Serif" font-size="11.00" fill="#000000">varchar[20]</text>
<polygon fill="#ffffff" stroke="transparent" points="12.3562,-389.2 12.3562,-411.2 226.3562,-411.2 226.3562,-389.2 12.3562,-389.2"/>
<polygon fill="none" stroke="#000000" points="12.3562,-389.2 12.3562,-411.2 226.3562,-411.2 226.3562,-389.2 12.3562,-389.2"/>
<text text-anchor="start" x="32.3562" y="-396.3" font-family="Helvetica,sans-Serif" font-size="11.00" fill="#000000">booking_id</text>
<polygon fill="none" stroke="#000000" points="226.3562,-389.2 226.3562,-411.2 320.3562,-411.2 320.3562,-389.2 226.3562,-389.2"/>
<text text-anchor="start" x="229.332" y="-396.9" font-family="Helvetica,sans-Serif" font-size="11.00" fill="#000000">uuid[2147483647]</text>
<polygon fill="#ffffff" stroke="transparent" points="12.3562,-367.2 12.3562,-389.2 226.3562,-389.2 226.3562,-367.2 12.3562,-367.2"/>
<polygon fill="none" stroke="#000000" points="12.3562,-367.2 12.3562,-389.2 226.3562,-389.2 226.3562,-367.2 12.3562,-367.2"/>
<text text-anchor="start" x="32.3562" y="-374.3" font-family="Helvetica,sans-Serif" font-size="11.00" fill="#000000">shipper_company_id</text>
<polygon fill="none" stroke="#000000" points="226.3562,-367.2 226.3562,-389.2 320.3562,-389.2 320.3562,-367.2 226.3562,-367.2"/>
<text text-anchor="start" x="229.332" y="-374.9" font-family="Helvetica,sans-Serif" font-size="11.00" fill="#000000">uuid[2147483647]</text>
<polygon fill="none" stroke="#000000" points="12.3562,-345.2 12.3562,-367.2 226.3562,-367.2 226.3562,-345.2 12.3562,-345.2"/>
<text text-anchor="start" x="32.3562" y="-352.3" font-family="Helvetica,sans-Serif" font-size="11.00" fill="#000000">consignee_company_id</text>
<polygon fill="none" stroke="#000000" points="226.3562,-345.2 226.3562,-367.2 320.3562,-367.2 320.3562,-345.2 226.3562,-345.2"/>
<text text-anchor="start" x="229.332" y="-352.9" font-family="Helvetica,sans-Serif" font-size="11.00" fill="#000000">uuid[2147483647]</text>
<polygon fill="none" stroke="#000000" points="12.3562,-323.2 12.3562,-345.2 226.3562,-345.2 226.3562,-323.2 12.3562,-323.2"/>
<text text-anchor="start" x="32.3562" y="-330.3" font-family="Helvetica,sans-Serif" font-size="11.00" fill="#000000">booking_status</text>
<polygon fill="none" stroke="#000000" points="226.3562,-323.2 226.3562,-345.2 320.3562,-345.2 320.3562,-323.2 226.3562,-323.2"/>
<text text-anchor="start" x="229.3562" y="-330.9" font-family="Helvetica,sans-Serif" font-size="11.00" fill="#000000">varchar[30]</text>
<polygon fill="none" stroke="#000000" points="12.3562,-301.2 12.3562,-323.2 226.3562,-323.2 226.3562,-301.2 12.3562,-301.2"/>
<text text-anchor="start" x="32.3562" y="-308.3" font-family="Helvetica,sans-Serif" font-size="11.00" fill="#000000">routing_case_number</text>
<polygon fill="none" stroke="#000000" points="226.3562,-301.2 226.3562,-323.2 320.3562,-323.2 320.3562,-301.2 226.3562,-301.2"/>
<text text-anchor="start" x="229.3562" y="-308.9" font-family="Helvetica,sans-Serif" font-size="11.00" fill="#000000">varchar[20]</text>
<polygon fill="none" stroke="#000000" points="12.3562,-279.2 12.3562,-301.2 226.3562,-301.2 226.3562,-279.2 12.3562,-279.2"/>
<text text-anchor="start" x="32.3562" y="-286.3" font-family="Helvetica,sans-Serif" font-size="11.00" fill="#000000">route_version_no</text>
<polygon fill="none" stroke="#000000" points="226.3562,-279.2 226.3562,-301.2 320.3562,-301.2 320.3562,-279.2 226.3562,-279.2"/>
<text text-anchor="start" x="229.3562" y="-286.9" font-family="Helvetica,sans-Serif" font-size="11.00" fill="#000000">int4[10]</text>
<polygon fill="none" stroke="#000000" points="12.3562,-257.2 12.3562,-279.2 226.3562,-279.2 226.3562,-257.2 12.3562,-257.2"/>
<text text-anchor="start" x="32.3562" y="-264.3" font-family="Helvetica,sans-Serif" font-size="11.00" fill="#000000">current_status</text>
<polygon fill="none" stroke="#000000" points="226.3562,-257.2 226.3562,-279.2 320.3562,-279.2 320.3562,-257.2 226.3562,-257.2"/>
<text text-anchor="start" x="229.3562" y="-264.9" font-family="Helvetica,sans-Serif" font-size="11.00" fill="#000000">varchar[30]</text>
<polygon fill="none" stroke="#000000" points="12.3562,-235.2 12.3562,-257.2 226.3562,-257.2 226.3562,-235.2 12.3562,-235.2"/>
<image xlink:href="../../images/foreignKeys.png" width="11px" height="12px" preserveAspectRatio="xMinYMin meet" x="17.3562" y="-252.2"/>
<text text-anchor="start" x="32.3562" y="-242.3" font-family="Helvetica,sans-Serif" font-size="11.00" fill="#000000">status_basis_milestone_no</text>
<polygon fill="none" stroke="#000000" points="226.3562,-235.2 226.3562,-257.2 320.3562,-257.2 320.3562,-235.2 226.3562,-235.2"/>
<text text-anchor="start" x="229.3562" y="-242.9" font-family="Helvetica,sans-Serif" font-size="11.00" fill="#000000">int4[10]</text>
<polygon fill="none" stroke="#000000" points="12.3562,-213.2 12.3562,-235.2 226.3562,-235.2 226.3562,-213.2 12.3562,-213.2"/>
<text text-anchor="start" x="32.3562" y="-220.3" font-family="Helvetica,sans-Serif" font-size="11.00" fill="#000000">under_review_reason</text>
<polygon fill="none" stroke="#000000" points="226.3562,-213.2 226.3562,-235.2 320.3562,-235.2 320.3562,-213.2 226.3562,-213.2"/>
<text text-anchor="start" x="229.3562" y="-220.9" font-family="Helvetica,sans-Serif" font-size="11.00" fill="#000000">varchar[1000]</text>
<polygon fill="none" stroke="#000000" points="12.3562,-191.2 12.3562,-213.2 226.3562,-213.2 226.3562,-191.2 12.3562,-191.2"/>
<text text-anchor="start" x="32.3562" y="-198.3" font-family="Helvetica,sans-Serif" font-size="11.00" fill="#000000">procedure_stage</text>
<polygon fill="none" stroke="#000000" points="226.3562,-191.2 226.3562,-213.2 320.3562,-213.2 320.3562,-191.2 226.3562,-191.2"/>
<text text-anchor="start" x="229.3562" y="-198.9" font-family="Helvetica,sans-Serif" font-size="11.00" fill="#000000">varchar[30]</text>
<polygon fill="none" stroke="#000000" points="12.3562,-169.2 12.3562,-191.2 226.3562,-191.2 226.3562,-169.2 12.3562,-169.2"/>
<text text-anchor="start" x="32.3562" y="-176.3" font-family="Helvetica,sans-Serif" font-size="11.00" fill="#000000">original_eta</text>
<polygon fill="none" stroke="#000000" points="226.3562,-169.2 226.3562,-191.2 320.3562,-191.2 320.3562,-169.2 226.3562,-169.2"/>
<text text-anchor="start" x="229.3562" y="-176.9" font-family="Helvetica,sans-Serif" font-size="11.00" fill="#000000">timestamptz[35,6]</text>
<polygon fill="none" stroke="#000000" points="12.3562,-147.2 12.3562,-169.2 226.3562,-169.2 226.3562,-147.2 12.3562,-147.2"/>
<text text-anchor="start" x="32.3562" y="-154.3" font-family="Helvetica,sans-Serif" font-size="11.00" fill="#000000">latest_eta</text>
<polygon fill="none" stroke="#000000" points="226.3562,-147.2 226.3562,-169.2 320.3562,-169.2 320.3562,-147.2 226.3562,-147.2"/>
<text text-anchor="start" x="229.3562" y="-154.9" font-family="Helvetica,sans-Serif" font-size="11.00" fill="#000000">timestamptz[35,6]</text>
<polygon fill="none" stroke="#000000" points="12.3562,-125.2 12.3562,-147.2 226.3562,-147.2 226.3562,-125.2 12.3562,-125.2"/>
<text text-anchor="start" x="32.3562" y="-132.3" font-family="Helvetica,sans-Serif" font-size="11.00" fill="#000000">last_acquired_at</text>
<polygon fill="none" stroke="#000000" points="226.3562,-125.2 226.3562,-147.2 320.3562,-147.2 320.3562,-125.2 226.3562,-125.2"/>
<text text-anchor="start" x="229.3562" y="-132.9" font-family="Helvetica,sans-Serif" font-size="11.00" fill="#000000">timestamptz[35,6]</text>
<polygon fill="none" stroke="#000000" points="12.3562,-103.2 12.3562,-125.2 226.3562,-125.2 226.3562,-103.2 12.3562,-103.2"/>
<text text-anchor="start" x="32.3562" y="-110.3" font-family="Helvetica,sans-Serif" font-size="11.00" fill="#000000">version</text>
<polygon fill="none" stroke="#000000" points="226.3562,-103.2 226.3562,-125.2 320.3562,-125.2 320.3562,-103.2 226.3562,-103.2"/>
<text text-anchor="start" x="229.3562" y="-110.9" font-family="Helvetica,sans-Serif" font-size="11.00" fill="#000000">int8[19]</text>
<polygon fill="#ffffff" stroke="transparent" points="12.3562,-81.2 12.3562,-103.2 226.3562,-103.2 226.3562,-81.2 12.3562,-81.2"/>
<polygon fill="none" stroke="#000000" points="12.3562,-81.2 12.3562,-103.2 226.3562,-103.2 226.3562,-81.2 12.3562,-81.2"/>
<text text-anchor="start" x="32.3562" y="-88.3" font-family="Helvetica,sans-Serif" font-size="11.00" fill="#000000">created_at</text>
<polygon fill="none" stroke="#000000" points="226.3562,-81.2 226.3562,-103.2 320.3562,-103.2 320.3562,-81.2 226.3562,-81.2"/>
<text text-anchor="start" x="229.3562" y="-88.9" font-family="Helvetica,sans-Serif" font-size="11.00" fill="#000000">timestamptz[35,6]</text>
<polygon fill="none" stroke="#000000" points="12.3562,-59.2 12.3562,-81.2 226.3562,-81.2 226.3562,-59.2 12.3562,-59.2"/>
<text text-anchor="start" x="32.3562" y="-66.3" font-family="Helvetica,sans-Serif" font-size="11.00" fill="#000000">updated_at</text>
<polygon fill="none" stroke="#000000" points="226.3562,-59.2 226.3562,-81.2 320.3562,-81.2 320.3562,-59.2 226.3562,-59.2"/>
<text text-anchor="start" x="229.3562" y="-66.9" font-family="Helvetica,sans-Serif" font-size="11.00" fill="#000000">timestamptz[35,6]</text>
<polygon fill="#ffffff" stroke="transparent" points="12.3562,-40.2 12.3562,-59.2 320.3562,-59.2 320.3562,-40.2 12.3562,-40.2"/>
<polygon fill="none" stroke="#000000" points="12.3562,-40.2 12.3562,-59.2 320.3562,-59.2 320.3562,-40.2 12.3562,-40.2"/>
<polygon fill="#ffffff" stroke="transparent" points="13.3562,-41.2 13.3562,-58.2 118.3562,-58.2 118.3562,-41.2 13.3562,-41.2"/>
<text text-anchor="start" x="15.3562" y="-46.3" font-family="Helvetica,sans-Serif" font-size="11.00" fill="#000000">&lt; 2</text>
<polygon fill="#ffffff" stroke="transparent" points="118.3562,-41.2 118.3562,-58.2 214.3562,-58.2 214.3562,-41.2 118.3562,-41.2"/>
<text text-anchor="start" x="163.2993" y="-46.3" font-family="Helvetica,sans-Serif" font-size="11.00" fill="#000000"> &#160;</text>
<polygon fill="#ffffff" stroke="transparent" points="214.3562,-41.2 214.3562,-58.2 319.3562,-58.2 319.3562,-41.2 214.3562,-41.2"/>
<text text-anchor="start" x="301.7615" y="-46.3" font-family="Helvetica,sans-Serif" font-size="11.00" fill="#000000">2 &gt;</text>
<polygon fill="#000000" stroke="#000000" points="118.3562,-41.2 118.3562,-58.2 118.3562,-58.2 118.3562,-41.2 118.3562,-41.2"/>
<polygon fill="#000000" stroke="#000000" points="214.3562,-41.2 214.3562,-58.2 214.3562,-58.2 214.3562,-41.2 214.3562,-41.2"/>
<polygon fill="none" stroke="#000000" stroke-width="2" points="11.3562,-39.2 11.3562,-457.2 321.3562,-457.2 321.3562,-39.2 11.3562,-39.2"/>
</a>
</g>
</g>
<!-- milestone&#45;&gt;tracking_record -->
<g id="edge1" class="edge">
<title>milestone:w&#45;&gt;tracking_record:e</title>
<path fill="none" stroke="#000000" d="M363.7756,-363.3336C344.2989,-377.3494 352.3419,-422.2 320.3562,-422.2"/>
<polygon fill="#000000" stroke="#000000" points="370.1802,-361.4535 378.8703,-362.6542 374.0182,-360.3267 377.8562,-359.2 377.8562,-359.2 377.8562,-359.2 374.0182,-360.3267 376.8422,-355.7458 370.1802,-361.4535 370.1802,-361.4535"/>
<ellipse fill="none" stroke="#000000" cx="367.1097" cy="-362.3549" rx="3.2" ry="3.2"/>
</g>
<!-- tracking_record&#45;&gt;milestone -->
<g id="edge3" class="edge">
<title>tracking_record:w&#45;&gt;milestone:e</title>
<path fill="none" stroke="#000000" d="M24.4339,-238.1482C82.5204,-199.4239 330.3562,-34.2 330.3562,-34.2 390.8348,-88.4627 309.3776,-343.4373 369.8562,-397.7 369.8562,-397.7 529.8562,-337.2 529.8562,-337.2"/>
<polygon fill="#000000" stroke="#000000" points="19.0126,-241.7624 10.3593,-243.2046 15.6844,-243.9812 12.3562,-246.2 12.3562,-246.2 12.3562,-246.2 15.6844,-243.9812 14.3532,-249.1954 19.0126,-241.7624 19.0126,-241.7624"/>
<ellipse fill="none" stroke="#000000" cx="21.6752" cy="-239.9873" rx="3.2" ry="3.2"/>
</g>
<!-- tracking_record&#45;&gt;milestone -->
<g id="edge4" class="edge">
<title>tracking_record:w&#45;&gt;milestone:e</title>
<path fill="none" stroke="#000000" d="M3.7004,-428.7323C-15.2015,-465.2161 31.503,-636.0027 330.3562,-462.2 355.994,-447.29 338.0142,-419.6074 363.3562,-404.2 379.176,-394.582 517.0227,-411.0443 529.8562,-397.7 541.7173,-385.3669 546.9673,-359.2 529.8562,-359.2"/>
<polygon fill="#000000" stroke="#000000" points="9.3081,-419.4891 14.1272,-425.8748 12.8501,-426.8386 8.031,-420.4529 9.3081,-419.4891"/>
<polyline fill="none" stroke="#000000" points="12.3562,-422.2 9.1634,-424.6095 "/>
<ellipse fill="none" stroke="#000000" cx="6.6091" cy="-426.5372" rx="3.2" ry="3.2"/>
</g>
<!-- scheduled_leg -->
<g id="node3" class="node">
<title>scheduled_leg</title>
<g id="a_node3"><a xlink:href="../../tables/scheduled_leg.html" xlink:title="scheduled_leg" target="_top">
<polygon fill="#ffffff" stroke="transparent" points="371.3562,-414.7 371.3562,-519.7 536.3562,-519.7 536.3562,-414.7 371.3562,-414.7"/>
<polygon fill="#f5f5f5" stroke="transparent" points="371.8562,-496.2 371.8562,-519.2 536.8562,-519.2 536.8562,-496.2 371.8562,-496.2"/>
<polygon fill="none" stroke="#000000" points="371.8562,-496.2 371.8562,-519.2 536.8562,-519.2 536.8562,-496.2 371.8562,-496.2"/>
<text text-anchor="start" x="376.8562" y="-504.8" font-family="Helvetica,sans-Serif" font-weight="bold" font-size="11.00" fill="#000000">scheduled_leg</text>
<text text-anchor="start" x="501.8999" y="-504.3" font-family="Helvetica,sans-Serif" font-size="11.00" fill="#000000">[table]</text>
<polygon fill="none" stroke="#000000" points="371.8562,-474.2 371.8562,-496.2 536.8562,-496.2 536.8562,-474.2 371.8562,-474.2"/>
<image xlink:href="../../images/primaryKeys.png" width="11px" height="12px" preserveAspectRatio="xMinYMin meet" x="376.856" y="-491.2"/>
<text text-anchor="start" x="391.8562" y="-481.3" font-family="Helvetica,sans-Serif" font-size="11.00" fill="#000000">tracking_number</text>
<polygon fill="none" stroke="#000000" points="371.8562,-452.2 371.8562,-474.2 536.8562,-474.2 536.8562,-452.2 371.8562,-452.2"/>
<image xlink:href="../../images/primaryKeys.png" width="11px" height="12px" preserveAspectRatio="xMinYMin meet" x="376.856" y="-469.2"/>
<text text-anchor="start" x="391.8562" y="-459.3" font-family="Helvetica,sans-Serif" font-size="11.00" fill="#000000">leg_no</text>
<polygon fill="none" stroke="#000000" points="371.8562,-433.2 371.8562,-452.2 536.8562,-452.2 536.8562,-433.2 371.8562,-433.2"/>
<text text-anchor="start" x="374.8562" y="-439.3" font-family="Helvetica,sans-Serif" font-size="11.00" fill="#000000">...</text>
<polygon fill="#ffffff" stroke="transparent" points="371.8562,-414.2 371.8562,-433.2 536.8562,-433.2 536.8562,-414.2 371.8562,-414.2"/>
<polygon fill="none" stroke="#000000" points="371.8562,-414.2 371.8562,-433.2 536.8562,-433.2 536.8562,-414.2 371.8562,-414.2"/>
<polygon fill="#ffffff" stroke="transparent" points="372.8562,-415.2 372.8562,-432.2 433.8562,-432.2 433.8562,-415.2 372.8562,-415.2"/>
<text text-anchor="start" x="374.8562" y="-420.3" font-family="Helvetica,sans-Serif" font-size="11.00" fill="#000000">&lt; 1</text>
<polygon fill="#ffffff" stroke="transparent" points="433.8562,-415.2 433.8562,-432.2 484.8562,-432.2 484.8562,-415.2 433.8562,-415.2"/>
<text text-anchor="start" x="456.2993" y="-420.3" font-family="Helvetica,sans-Serif" font-size="11.00" fill="#000000"> &#160;</text>
<polygon fill="#ffffff" stroke="transparent" points="484.8562,-415.2 484.8562,-432.2 535.8562,-432.2 535.8562,-415.2 484.8562,-415.2"/>
<text text-anchor="start" x="527.7424" y="-420.3" font-family="Helvetica,sans-Serif" font-size="11.00" fill="#000000"> &#160;</text>
<polygon fill="#000000" stroke="#000000" points="433.8562,-415.2 433.8562,-432.2 433.8562,-432.2 433.8562,-415.2 433.8562,-415.2"/>
<polygon fill="#000000" stroke="#000000" points="484.8562,-415.2 484.8562,-432.2 484.8562,-432.2 484.8562,-415.2 484.8562,-415.2"/>
</a>
</g>
</g>
<!-- scheduled_leg&#45;&gt;tracking_record -->
<g id="edge2" class="edge">
<title>scheduled_leg:w&#45;&gt;tracking_record:e</title>
<path fill="none" stroke="#000000" d="M358.1552,-480.6692C340.992,-466.2239 350.5878,-422.2 320.3562,-422.2"/>
<polygon fill="#000000" stroke="#000000" points="364.2608,-482.6882 370.7259,-488.618 368.0585,-483.9441 371.8562,-485.2 371.8562,-485.2 371.8562,-485.2 368.0585,-483.9441 372.9865,-481.782 364.2608,-482.6882 364.2608,-482.6882"/>
<ellipse fill="none" stroke="#000000" cx="361.2226" cy="-481.6835" rx="3.2" ry="3.2"/>
</g>
</g>
</svg>
