<?xml version="1.0" encoding="UTF-8" standalone="no"?>
<!DOCTYPE svg PUBLIC "-//W3C//DTD SVG 1.1//EN"
 "http://www.w3.org/Graphics/SVG/1.1/DTD/svg11.dtd">
<!-- Generated by graphviz version 2.40.1 (20161225.0304)
 -->
<!-- Title: orphans Pages: 1 -->
<svg width="338pt" height="172pt"
 viewBox="0.00 0.00 338.00 172.00" xmlns="http://www.w3.org/2000/svg" xmlns:xlink="http://www.w3.org/1999/xlink">
<g id="graph0" class="graph" transform="scale(1 1) rotate(0) translate(4 168)">
<title>orphans</title>
<polygon fill="#ffffff" stroke="transparent" points="-4,4 -4,-168 334,-168 334,4 -4,4"/>
<!-- kpi_observation -->
<g id="node1" class="node">
<title>kpi_observation</title>
<g id="a_node1"><a xlink:href="../../tables/kpi_observation.html" xlink:title="kpi_observation" target="_top">
<polygon fill="#ffffff" stroke="transparent" points="8,-4 8,-160 322,-160 322,-4 8,-4"/>
<polygon fill="#f5f5f5" stroke="transparent" points="10,-135 10,-158 320,-158 320,-135 10,-135"/>
<polygon fill="none" stroke="#000000" points="10,-135 10,-158 320,-158 320,-135 10,-135"/>
<text text-anchor="start" x="15" y="-143.6" font-family="Helvetica,sans-Serif" font-weight="bold" font-size="11.00" fill="#000000">kpi_observation</text>
<text text-anchor="start" x="285.0437" y="-143.1" font-family="Helvetica,sans-Serif" font-size="11.00" fill="#000000">[table]</text>
<polygon fill="none" stroke="#000000" points="10,-113 10,-135 226,-135 226,-113 10,-113"/>
<image xlink:href="../../images/primaryKeys.png" width="11px" height="12px" preserveAspectRatio="xMinYMin meet" x="15" y="-130"/>
<text text-anchor="start" x="30" y="-120.1" font-family="Helvetica,sans-Serif" font-size="11.00" fill="#000000">transport_request_id</text>
<polygon fill="none" stroke="#000000" points="226,-113 226,-135 320,-135 320,-113 226,-113"/>
<text text-anchor="start" x="228.9758" y="-120.7" font-family="Helvetica,sans-Serif" font-size="11.00" fill="#000000">uuid[2147483647]</text>
<polygon fill="none" stroke="#000000" points="10,-91 10,-113 226,-113 226,-91 10,-91"/>
<text text-anchor="start" x="30" y="-98.1" font-family="Helvetica,sans-Serif" font-size="11.00" fill="#000000">shipper_company_id</text>
<polygon fill="none" stroke="#000000" points="226,-91 226,-113 320,-113 320,-91 226,-91"/>
<text text-anchor="start" x="228.9758" y="-98.7" font-family="Helvetica,sans-Serif" font-size="11.00" fill="#000000">uuid[2147483647]</text>
<polygon fill="#ffffff" stroke="transparent" points="10,-69 10,-91 226,-91 226,-69 10,-69"/>
<polygon fill="none" stroke="#000000" points="10,-69 10,-91 226,-91 226,-69 10,-69"/>
<text text-anchor="start" x="30" y="-76.1" font-family="Helvetica,sans-Serif" font-size="11.00" fill="#000000">submitted_at</text>
<polygon fill="none" stroke="#000000" points="226,-69 226,-91 320,-91 320,-69 226,-69"/>
<text text-anchor="start" x="229" y="-76.7" font-family="Helvetica,sans-Serif" font-size="11.00" fill="#000000">timestamptz[35,6]</text>
<polygon fill="none" stroke="#000000" points="10,-47 10,-69 226,-69 226,-47 10,-47"/>
<text text-anchor="start" x="30" y="-54.1" font-family="Helvetica,sans-Serif" font-size="11.00" fill="#000000">excluded</text>
<polygon fill="none" stroke="#000000" points="226,-47 226,-69 320,-69 320,-47 226,-47"/>
<text text-anchor="start" x="229" y="-54.7" font-family="Helvetica,sans-Serif" font-size="11.00" fill="#000000">bool[1]</text>
<polygon fill="none" stroke="#000000" points="10,-25 10,-47 226,-47 226,-25 10,-25"/>
<text text-anchor="start" x="30" y="-32.1" font-family="Helvetica,sans-Serif" font-size="11.00" fill="#000000">transport_request_number</text>
<polygon fill="none" stroke="#000000" points="226,-25 226,-47 320,-47 320,-25 226,-25"/>
<text text-anchor="start" x="229" y="-32.7" font-family="Helvetica,sans-Serif" font-size="11.00" fill="#000000">varchar[20]</text>
<polygon fill="#ffffff" stroke="transparent" points="10,-6 10,-25 320,-25 320,-6 10,-6"/>
<polygon fill="none" stroke="#000000" points="10,-6 10,-25 320,-25 320,-6 10,-6"/>
<polygon fill="#ffffff" stroke="transparent" points="11,-7 11,-24 117,-24 117,-7 11,-7"/>
<text text-anchor="start" x="13" y="-12.1" font-family="Helvetica,sans-Serif" font-size="11.00" fill="#000000">&lt; 0</text>
<polygon fill="#ffffff" stroke="transparent" points="117,-7 117,-24 214,-24 214,-7 117,-7"/>
<text text-anchor="start" x="162.4431" y="-12.1" font-family="Helvetica,sans-Serif" font-size="11.00" fill="#000000"> &#160;</text>
<polygon fill="#ffffff" stroke="transparent" points="214,-7 214,-24 319,-24 319,-7 214,-7"/>
<text text-anchor="start" x="301.4053" y="-12.1" font-family="Helvetica,sans-Serif" font-size="11.00" fill="#000000">0 &gt;</text>
<polygon fill="#000000" stroke="#000000" points="117,-7 117,-24 117,-24 117,-7 117,-7"/>
<polygon fill="#000000" stroke="#000000" points="214,-7 214,-24 214,-24 214,-7 214,-7"/>
<polygon fill="none" stroke="#000000" stroke-width="2" points="9,-5 9,-159 321,-159 321,-5 9,-5"/>
</a>
</g>
</g>
</g>
</svg>
