<?xml version="1.0" encoding="UTF-8" standalone="no"?>
<!DOCTYPE svg PUBLIC "-//W3C//DTD SVG 1.1//EN"
 "http://www.w3.org/Graphics/SVG/1.1/DTD/svg11.dtd">
<!-- Generated by graphviz version 2.40.1 (20161225.0304)
 -->
<!-- Title: oneDegreeRelationshipsDiagram Pages: 1 -->
<svg width="549pt" height="250pt"
 viewBox="0.00 0.00 549.00 250.20" xmlns="http://www.w3.org/2000/svg" xmlns:xlink="http://www.w3.org/1999/xlink">
<g id="graph0" class="graph" transform="scale(1 1) rotate(0) translate(4 246.2)">
<title>oneDegreeRelationshipsDiagram</title>
<polygon fill="#ffffff" stroke="transparent" points="-4,4 -4,-246.2 545,-246.2 545,4 -4,4"/>
<text text-anchor="middle" x="72.4936" y="-7.3" font-family="Helvetica,sans-Serif" font-size="11.00" fill="#000000">Generated by SchemaSpy</text>
<!-- spring_session_attributes -->
<g id="node1" class="node">
<title>spring_session_attributes</title>
<g id="a_node1"><a xlink:href="../../tables/spring_session_attributes.html" xlink:title="spring_session_attributes" target="_top">
<polygon fill="#ffffff" stroke="transparent" points="307,-131.7 307,-236.7 533,-236.7 533,-131.7 307,-131.7"/>
<polygon fill="#f5f5f5" stroke="transparent" points="307,-213.2 307,-236.2 533,-236.2 533,-213.2 307,-213.2"/>
<polygon fill="none" stroke="#000000" points="307,-213.2 307,-236.2 533,-236.2 533,-213.2 307,-213.2"/>
<text text-anchor="start" x="312" y="-221.8" font-family="Helvetica,sans-Serif" font-weight="bold" font-size="11.00" fill="#000000">spring_session_attributes</text>
<text text-anchor="start" x="498.5219" y="-221.3" font-family="Helvetica,sans-Serif" font-size="11.00" fill="#000000">[table]</text>
<polygon fill="none" stroke="#000000" points="307,-191.2 307,-213.2 533,-213.2 533,-191.2 307,-191.2"/>
<image xlink:href="../../images/primaryKeys.png" width="11px" height="12px" preserveAspectRatio="xMinYMin meet" x="312" y="-208.2"/>
<text text-anchor="start" x="336" y="-198.3" font-family="Helvetica,sans-Serif" font-size="11.00" fill="#000000">session_primary_id</text>
<polygon fill="none" stroke="#000000" points="307,-169.2 307,-191.2 533,-191.2 533,-169.2 307,-169.2"/>
<image xlink:href="../../images/primaryKeys.png" width="11px" height="12px" preserveAspectRatio="xMinYMin meet" x="312" y="-186.2"/>
<text text-anchor="start" x="336" y="-176.3" font-family="Helvetica,sans-Serif" font-size="11.00" fill="#000000">attribute_name</text>
<polygon fill="none" stroke="#000000" points="307,-150.2 307,-169.2 533,-169.2 533,-150.2 307,-150.2"/>
<text text-anchor="start" x="310" y="-156.3" font-family="Helvetica,sans-Serif" font-size="11.00" fill="#000000">...</text>
<polygon fill="#ffffff" stroke="transparent" points="307,-131.2 307,-150.2 533,-150.2 533,-131.2 307,-131.2"/>
<polygon fill="none" stroke="#000000" points="307,-131.2 307,-150.2 533,-150.2 533,-131.2 307,-131.2"/>
<polygon fill="#ffffff" stroke="transparent" points="308,-132.2 308,-149.2 389,-149.2 389,-132.2 308,-132.2"/>
<text text-anchor="start" x="310" y="-137.3" font-family="Helvetica,sans-Serif" font-size="11.00" fill="#000000">&lt; 1</text>
<polygon fill="#ffffff" stroke="transparent" points="389,-132.2 389,-149.2 461,-149.2 461,-132.2 389,-132.2"/>
<text text-anchor="start" x="421.9431" y="-137.3" font-family="Helvetica,sans-Serif" font-size="11.00" fill="#000000"> &#160;</text>
<polygon fill="#ffffff" stroke="transparent" points="461,-132.2 461,-149.2 532,-149.2 532,-132.2 461,-132.2"/>
<text text-anchor="start" x="523.8862" y="-137.3" font-family="Helvetica,sans-Serif" font-size="11.00" fill="#000000"> &#160;</text>
<polygon fill="#000000" stroke="#000000" points="389,-132.2 389,-149.2 389,-149.2 389,-132.2 389,-132.2"/>
<polygon fill="#000000" stroke="#000000" points="461,-132.2 461,-149.2 461,-149.2 461,-132.2 461,-132.2"/>
</a>
</g>
</g>
<!-- spring_session -->
<g id="node2" class="node">
<title>spring_session</title>
<g id="a_node2"><a xlink:href="../../tables/spring_session.html" xlink:title="spring_session" target="_top">
<polygon fill="#ffffff" stroke="transparent" points="8,-38.2 8,-238.2 258,-238.2 258,-38.2 8,-38.2"/>
<polygon fill="#f5f5f5" stroke="transparent" points="10,-213.2 10,-236.2 256,-236.2 256,-213.2 10,-213.2"/>
<polygon fill="none" stroke="#000000" points="10,-213.2 10,-236.2 256,-236.2 256,-213.2 10,-213.2"/>
<text text-anchor="start" x="15" y="-221.8" font-family="Helvetica,sans-Serif" font-weight="bold" font-size="11.00" fill="#000000">spring_session</text>
<text text-anchor="start" x="221.0437" y="-221.3" font-family="Helvetica,sans-Serif" font-size="11.00" fill="#000000">[table]</text>
<polygon fill="none" stroke="#000000" points="10,-191.2 10,-213.2 189,-213.2 189,-191.2 10,-191.2"/>
<image xlink:href="../../images/primaryKeys.png" width="11px" height="12px" preserveAspectRatio="xMinYMin meet" x="15" y="-208.2"/>
<text text-anchor="start" x="30" y="-198.3" font-family="Helvetica,sans-Serif" font-size="11.00" fill="#000000">primary_id</text>
<polygon fill="none" stroke="#000000" points="189,-191.2 189,-213.2 256,-213.2 256,-191.2 189,-191.2"/>
<text text-anchor="start" x="192" y="-198.9" font-family="Helvetica,sans-Serif" font-size="11.00" fill="#000000">bpchar[36]</text>
<polygon fill="#ffffff" stroke="transparent" points="10,-169.2 10,-191.2 189,-191.2 189,-169.2 10,-169.2"/>
<polygon fill="none" stroke="#000000" points="10,-169.2 10,-191.2 189,-191.2 189,-169.2 10,-169.2"/>
<text text-anchor="start" x="30" y="-176.3" font-family="Helvetica,sans-Serif" font-size="11.00" fill="#000000">session_id</text>
<polygon fill="none" stroke="#000000" points="189,-169.2 189,-191.2 256,-191.2 256,-169.2 189,-169.2"/>
<text text-anchor="start" x="192" y="-176.9" font-family="Helvetica,sans-Serif" font-size="11.00" fill="#000000">bpchar[36]</text>
<polygon fill="none" stroke="#000000" points="10,-147.2 10,-169.2 189,-169.2 189,-147.2 10,-147.2"/>
<text text-anchor="start" x="30" y="-154.3" font-family="Helvetica,sans-Serif" font-size="11.00" fill="#000000">creation_time</text>
<polygon fill="none" stroke="#000000" points="189,-147.2 189,-169.2 256,-169.2 256,-147.2 189,-147.2"/>
<text text-anchor="start" x="192" y="-154.9" font-family="Helvetica,sans-Serif" font-size="11.00" fill="#000000">int8[19]</text>
<polygon fill="none" stroke="#000000" points="10,-125.2 10,-147.2 189,-147.2 189,-125.2 10,-125.2"/>
<text text-anchor="start" x="30" y="-132.3" font-family="Helvetica,sans-Serif" font-size="11.00" fill="#000000">last_access_time</text>
<polygon fill="none" stroke="#000000" points="189,-125.2 189,-147.2 256,-147.2 256,-125.2 189,-125.2"/>
<text text-anchor="start" x="192" y="-132.9" font-family="Helvetica,sans-Serif" font-size="11.00" fill="#000000">int8[19]</text>
<polygon fill="none" stroke="#000000" points="10,-103.2 10,-125.2 189,-125.2 189,-103.2 10,-103.2"/>
<text text-anchor="start" x="30" y="-110.3" font-family="Helvetica,sans-Serif" font-size="11.00" fill="#000000">max_inactive_interval</text>
<polygon fill="none" stroke="#000000" points="189,-103.2 189,-125.2 256,-125.2 256,-103.2 189,-103.2"/>
<text text-anchor="start" x="192" y="-110.9" font-family="Helvetica,sans-Serif" font-size="11.00" fill="#000000">int4[10]</text>
<polygon fill="#ffffff" stroke="transparent" points="10,-81.2 10,-103.2 189,-103.2 189,-81.2 10,-81.2"/>
<polygon fill="none" stroke="#000000" points="10,-81.2 10,-103.2 189,-103.2 189,-81.2 10,-81.2"/>
<text text-anchor="start" x="30" y="-88.3" font-family="Helvetica,sans-Serif" font-size="11.00" fill="#000000">expiry_time</text>
<polygon fill="none" stroke="#000000" points="189,-81.2 189,-103.2 256,-103.2 256,-81.2 189,-81.2"/>
<text text-anchor="start" x="192" y="-88.9" font-family="Helvetica,sans-Serif" font-size="11.00" fill="#000000">int8[19]</text>
<polygon fill="#ffffff" stroke="transparent" points="10,-59.2 10,-81.2 189,-81.2 189,-59.2 10,-59.2"/>
<polygon fill="none" stroke="#000000" points="10,-59.2 10,-81.2 189,-81.2 189,-59.2 10,-59.2"/>
<text text-anchor="start" x="30" y="-66.3" font-family="Helvetica,sans-Serif" font-size="11.00" fill="#000000">principal_name</text>
<polygon fill="none" stroke="#000000" points="189,-59.2 189,-81.2 256,-81.2 256,-59.2 189,-59.2"/>
<text text-anchor="start" x="191.9365" y="-66.9" font-family="Helvetica,sans-Serif" font-size="11.00" fill="#000000">varchar[100]</text>
<polygon fill="#ffffff" stroke="transparent" points="10,-40.2 10,-59.2 256,-59.2 256,-40.2 10,-40.2"/>
<polygon fill="none" stroke="#000000" points="10,-40.2 10,-59.2 256,-59.2 256,-40.2 10,-40.2"/>
<polygon fill="#ffffff" stroke="transparent" points="11,-41.2 11,-58.2 96,-58.2 96,-41.2 11,-41.2"/>
<text text-anchor="start" x="13" y="-46.3" font-family="Helvetica,sans-Serif" font-size="11.00" fill="#000000">&lt; 0</text>
<polygon fill="#ffffff" stroke="transparent" points="96,-41.2 96,-58.2 171,-58.2 171,-41.2 96,-41.2"/>
<text text-anchor="start" x="130.4431" y="-46.3" font-family="Helvetica,sans-Serif" font-size="11.00" fill="#000000"> &#160;</text>
<polygon fill="#ffffff" stroke="transparent" points="171,-41.2 171,-58.2 255,-58.2 255,-41.2 171,-41.2"/>
<text text-anchor="start" x="237.4053" y="-46.3" font-family="Helvetica,sans-Serif" font-size="11.00" fill="#000000">1 &gt;</text>
<polygon fill="#000000" stroke="#000000" points="96,-41.2 96,-58.2 96,-58.2 96,-41.2 96,-41.2"/>
<polygon fill="#000000" stroke="#000000" points="171,-41.2 171,-58.2 171,-58.2 171,-41.2 171,-41.2"/>
<polygon fill="none" stroke="#000000" stroke-width="2" points="9,-39.2 9,-237.2 257,-237.2 257,-39.2 9,-39.2"/>
</a>
</g>
</g>
<!-- spring_session_attributes&#45;&gt;spring_session -->
<g id="edge1" class="edge">
<title>spring_session_attributes:w&#45;&gt;spring_session:e</title>
<path fill="none" stroke="#000000" d="M292.276,-202.2C280.2815,-202.2 272.8229,-202.2 256,-202.2"/>
<polygon fill="#000000" stroke="#000000" points="299,-202.2001 307,-205.8 303,-202.2 307,-202.2 307,-202.2 307,-202.2 303,-202.2 307,-198.6 299,-202.2001 299,-202.2001"/>
<ellipse fill="none" stroke="#000000" cx="295.8" cy="-202.2001" rx="3.2" ry="3.2"/>
</g>
</g>
</svg>
