<?xml version="1.0" encoding="UTF-8" standalone="no"?>
<!DOCTYPE svg PUBLIC "-//W3C//DTD SVG 1.1//EN"
 "http://www.w3.org/Graphics/SVG/1.1/DTD/svg11.dtd">
<!-- Generated by graphviz version 2.40.1 (20161225.0304)
 -->
<!-- Title: largeRelationshipsDiagram Pages: 1 -->
<svg width="559pt" height="558pt"
 viewBox="0.00 0.00 559.00 558.20" xmlns="http://www.w3.org/2000/svg" xmlns:xlink="http://www.w3.org/1999/xlink">
<g id="graph0" class="graph" transform="scale(1 1) rotate(0) translate(4 554.2)">
<title>largeRelationshipsDiagram</title>
<polygon fill="#ffffff" stroke="transparent" points="-4,4 -4,-554.2 555,-554.2 555,4 -4,4"/>
<text text-anchor="middle" x="72.4936" y="-7.3" font-family="Helvetica,sans-Serif" font-size="11.00" fill="#000000">Generated by SchemaSpy</text>
<!-- audit_record -->
<g id="node1" class="node">
<title>audit_record</title>
<g id="a_node1"><a xlink:href="../../tables/audit_record.html" xlink:title="audit_record" target="_top">
<polygon fill="#ffffff" stroke="transparent" points="95,-328.2 95,-546.2 246,-546.2 246,-328.2 95,-328.2"/>
<polygon fill="#f5f5f5" stroke="transparent" points="95.5,-523.2 95.5,-546.2 246.5,-546.2 246.5,-523.2 95.5,-523.2"/>
<polygon fill="none" stroke="#000000" points="95.5,-523.2 95.5,-546.2 246.5,-546.2 246.5,-523.2 95.5,-523.2"/>
<text text-anchor="start" x="100.5" y="-531.8" font-family="Helvetica,sans-Serif" font-weight="bold" font-size="11.00" fill="#000000">audit_record</text>
<text text-anchor="start" x="211.5437" y="-531.3" font-family="Helvetica,sans-Serif" font-size="11.00" fill="#000000">[table]</text>
<polygon fill="none" stroke="#000000" points="95.5,-501.2 95.5,-523.2 246.5,-523.2 246.5,-501.2 95.5,-501.2"/>
<image xlink:href="../../images/primaryKeys.png" width="11px" height="12px" preserveAspectRatio="xMinYMin meet" x="100.5" y="-518.2"/>
<text text-anchor="start" x="115.5" y="-508.3" font-family="Helvetica,sans-Serif" font-size="11.00" fill="#000000">id</text>
<polygon fill="#ffffff" stroke="transparent" points="95.5,-479.2 95.5,-501.2 246.5,-501.2 246.5,-479.2 95.5,-479.2"/>
<polygon fill="none" stroke="#000000" points="95.5,-479.2 95.5,-501.2 246.5,-501.2 246.5,-479.2 95.5,-479.2"/>
<text text-anchor="start" x="115.5" y="-486.3" font-family="Helvetica,sans-Serif" font-size="11.00" fill="#000000">occurred_at</text>
<polygon fill="#ffffff" stroke="transparent" points="95.5,-457.2 95.5,-479.2 246.5,-479.2 246.5,-457.2 95.5,-457.2"/>
<polygon fill="none" stroke="#000000" points="95.5,-457.2 95.5,-479.2 246.5,-479.2 246.5,-457.2 95.5,-457.2"/>
<text text-anchor="start" x="115.5" y="-464.3" font-family="Helvetica,sans-Serif" font-size="11.00" fill="#000000">actor_user_id</text>
<polygon fill="none" stroke="#000000" points="95.5,-435.2 95.5,-457.2 246.5,-457.2 246.5,-435.2 95.5,-435.2"/>
<text text-anchor="start" x="115.5" y="-442.3" font-family="Helvetica,sans-Serif" font-size="11.00" fill="#000000">actor_company_id</text>
<polygon fill="none" stroke="#000000" points="95.5,-413.2 95.5,-435.2 246.5,-435.2 246.5,-413.2 95.5,-413.2"/>
<text text-anchor="start" x="115.5" y="-420.3" font-family="Helvetica,sans-Serif" font-size="11.00" fill="#000000">action</text>
<polygon fill="none" stroke="#000000" points="95.5,-391.2 95.5,-413.2 246.5,-413.2 246.5,-391.2 95.5,-391.2"/>
<text text-anchor="start" x="115.5" y="-398.3" font-family="Helvetica,sans-Serif" font-size="11.00" fill="#000000">result</text>
<polygon fill="none" stroke="#000000" points="95.5,-369.2 95.5,-391.2 246.5,-391.2 246.5,-369.2 95.5,-369.2"/>
<text text-anchor="start" x="115.5" y="-376.3" font-family="Helvetica,sans-Serif" font-size="11.00" fill="#000000">reason</text>
<polygon fill="none" stroke="#000000" points="95.5,-347.2 95.5,-369.2 246.5,-369.2 246.5,-347.2 95.5,-347.2"/>
<text text-anchor="start" x="115.5" y="-354.3" font-family="Helvetica,sans-Serif" font-size="11.00" fill="#000000">correlation_id</text>
<polygon fill="#ffffff" stroke="transparent" points="95.5,-328.2 95.5,-347.2 246.5,-347.2 246.5,-328.2 95.5,-328.2"/>
<polygon fill="none" stroke="#000000" points="95.5,-328.2 95.5,-347.2 246.5,-347.2 246.5,-328.2 95.5,-328.2"/>
<polygon fill="#ffffff" stroke="transparent" points="96.5,-329.2 96.5,-346.2 146.5,-346.2 146.5,-329.2 96.5,-329.2"/>
<text text-anchor="start" x="98.5" y="-334.3" font-family="Helvetica,sans-Serif" font-size="11.00" fill="#000000"> &#160;</text>
<polygon fill="#ffffff" stroke="transparent" points="146.5,-329.2 146.5,-346.2 196.5,-346.2 196.5,-329.2 146.5,-329.2"/>
<text text-anchor="start" x="168.4431" y="-334.3" font-family="Helvetica,sans-Serif" font-size="11.00" fill="#000000"> &#160;</text>
<polygon fill="#ffffff" stroke="transparent" points="196.5,-329.2 196.5,-346.2 245.5,-346.2 245.5,-329.2 196.5,-329.2"/>
<text text-anchor="start" x="237.3862" y="-334.3" font-family="Helvetica,sans-Serif" font-size="11.00" fill="#000000"> &#160;</text>
<polygon fill="#000000" stroke="#000000" points="146.5,-329.2 146.5,-346.2 146.5,-346.2 146.5,-329.2 146.5,-329.2"/>
<polygon fill="#000000" stroke="#000000" points="196.5,-329.2 196.5,-346.2 196.5,-346.2 196.5,-329.2 196.5,-329.2"/>
</a>
</g>
</g>
<!-- app_user -->
<g id="node2" class="node">
<title>app_user</title>
<g id="a_node2"><a xlink:href="../../tables/app_user.html" xlink:title="app_user" target="_top">
<polygon fill="#ffffff" stroke="transparent" points="161,-38.2 161,-278.2 293,-278.2 293,-38.2 161,-38.2"/>
<polygon fill="#f5f5f5" stroke="transparent" points="161,-255.2 161,-278.2 293,-278.2 293,-255.2 161,-255.2"/>
<polygon fill="none" stroke="#000000" points="161,-255.2 161,-278.2 293,-278.2 293,-255.2 161,-255.2"/>
<text text-anchor="start" x="166" y="-263.8" font-family="Helvetica,sans-Serif" font-weight="bold" font-size="11.00" fill="#000000">app_user</text>
<text text-anchor="start" x="258.0437" y="-263.3" font-family="Helvetica,sans-Serif" font-size="11.00" fill="#000000">[table]</text>
<polygon fill="none" stroke="#000000" points="161,-233.2 161,-255.2 293,-255.2 293,-233.2 161,-233.2"/>
<image xlink:href="../../images/primaryKeys.png" width="11px" height="12px" preserveAspectRatio="xMinYMin meet" x="166" y="-250.2"/>
<text text-anchor="start" x="181" y="-240.3" font-family="Helvetica,sans-Serif" font-size="11.00" fill="#000000">id</text>
<polygon fill="#ffffff" stroke="transparent" points="161,-211.2 161,-233.2 293,-233.2 293,-211.2 161,-211.2"/>
<polygon fill="none" stroke="#000000" points="161,-211.2 161,-233.2 293,-233.2 293,-211.2 161,-211.2"/>
<image xlink:href="../../images/foreignKeys.png" width="11px" height="12px" preserveAspectRatio="xMinYMin meet" x="166" y="-228.2"/>
<text text-anchor="start" x="181" y="-218.3" font-family="Helvetica,sans-Serif" font-size="11.00" fill="#000000">company_id</text>
<polygon fill="#ffffff" stroke="transparent" points="161,-189.2 161,-211.2 293,-211.2 293,-189.2 161,-189.2"/>
<polygon fill="none" stroke="#000000" points="161,-189.2 161,-211.2 293,-211.2 293,-189.2 161,-189.2"/>
<text text-anchor="start" x="181" y="-196.3" font-family="Helvetica,sans-Serif" font-size="11.00" fill="#000000">email</text>
<polygon fill="none" stroke="#000000" points="161,-167.2 161,-189.2 293,-189.2 293,-167.2 161,-167.2"/>
<text text-anchor="start" x="181" y="-174.3" font-family="Helvetica,sans-Serif" font-size="11.00" fill="#000000">display_name</text>
<polygon fill="none" stroke="#000000" points="161,-145.2 161,-167.2 293,-167.2 293,-145.2 161,-145.2"/>
<text text-anchor="start" x="181" y="-152.3" font-family="Helvetica,sans-Serif" font-size="11.00" fill="#000000">password_hash</text>
<polygon fill="none" stroke="#000000" points="161,-123.2 161,-145.2 293,-145.2 293,-123.2 161,-123.2"/>
<text text-anchor="start" x="181" y="-130.3" font-family="Helvetica,sans-Serif" font-size="11.00" fill="#000000">status</text>
<polygon fill="none" stroke="#000000" points="161,-101.2 161,-123.2 293,-123.2 293,-101.2 161,-101.2"/>
<text text-anchor="start" x="181" y="-108.3" font-family="Helvetica,sans-Serif" font-size="11.00" fill="#000000">version</text>
<polygon fill="none" stroke="#000000" points="161,-79.2 161,-101.2 293,-101.2 293,-79.2 161,-79.2"/>
<text text-anchor="start" x="181" y="-86.3" font-family="Helvetica,sans-Serif" font-size="11.00" fill="#000000">created_at</text>
<polygon fill="none" stroke="#000000" points="161,-57.2 161,-79.2 293,-79.2 293,-57.2 161,-57.2"/>
<text text-anchor="start" x="181" y="-64.3" font-family="Helvetica,sans-Serif" font-size="11.00" fill="#000000">updated_at</text>
<polygon fill="#ffffff" stroke="transparent" points="161,-38.2 161,-57.2 293,-57.2 293,-38.2 161,-38.2"/>
<polygon fill="none" stroke="#000000" points="161,-38.2 161,-57.2 293,-57.2 293,-38.2 161,-38.2"/>
<polygon fill="#ffffff" stroke="transparent" points="162,-39.2 162,-56.2 209,-56.2 209,-39.2 162,-39.2"/>
<text text-anchor="start" x="164" y="-44.3" font-family="Helvetica,sans-Serif" font-size="11.00" fill="#000000">&lt; 1</text>
<polygon fill="#ffffff" stroke="transparent" points="209,-39.2 209,-56.2 246,-56.2 246,-39.2 209,-39.2"/>
<text text-anchor="start" x="224.4431" y="-44.3" font-family="Helvetica,sans-Serif" font-size="11.00" fill="#000000"> &#160;</text>
<polygon fill="#ffffff" stroke="transparent" points="246,-39.2 246,-56.2 292,-56.2 292,-39.2 246,-39.2"/>
<text text-anchor="start" x="274.4053" y="-44.3" font-family="Helvetica,sans-Serif" font-size="11.00" fill="#000000">1 &gt;</text>
<polygon fill="#000000" stroke="#000000" points="209,-39.2 209,-56.2 209,-56.2 209,-39.2 209,-39.2"/>
<polygon fill="#000000" stroke="#000000" points="246,-39.2 246,-56.2 246,-56.2 246,-39.2 246,-39.2"/>
</a>
</g>
</g>
<!-- company -->
<g id="node5" class="node">
<title>company</title>
<g id="a_node5"><a xlink:href="../../tables/company.html" xlink:title="company" target="_top">
<polygon fill="#ffffff" stroke="transparent" points="8,-60.2 8,-256.2 112,-256.2 112,-60.2 8,-60.2"/>
<polygon fill="#f5f5f5" stroke="transparent" points="8,-233.2 8,-256.2 112,-256.2 112,-233.2 8,-233.2"/>
<polygon fill="none" stroke="#000000" points="8,-233.2 8,-256.2 112,-256.2 112,-233.2 8,-233.2"/>
<text text-anchor="start" x="13" y="-241.8" font-family="Helvetica,sans-Serif" font-weight="bold" font-size="11.00" fill="#000000">company</text>
<text text-anchor="start" x="77.5219" y="-241.3" font-family="Helvetica,sans-Serif" font-size="11.00" fill="#000000">[table]</text>
<polygon fill="none" stroke="#000000" points="8,-211.2 8,-233.2 112,-233.2 112,-211.2 8,-211.2"/>
<image xlink:href="../../images/primaryKeys.png" width="11px" height="12px" preserveAspectRatio="xMinYMin meet" x="13" y="-228.2"/>
<text text-anchor="start" x="29" y="-218.3" font-family="Helvetica,sans-Serif" font-size="11.00" fill="#000000">id</text>
<polygon fill="none" stroke="#000000" points="8,-189.2 8,-211.2 112,-211.2 112,-189.2 8,-189.2"/>
<text text-anchor="start" x="29" y="-196.3" font-family="Helvetica,sans-Serif" font-size="11.00" fill="#000000">name</text>
<polygon fill="none" stroke="#000000" points="8,-167.2 8,-189.2 112,-189.2 112,-167.2 8,-167.2"/>
<text text-anchor="start" x="29" y="-174.3" font-family="Helvetica,sans-Serif" font-size="11.00" fill="#000000">kind</text>
<polygon fill="none" stroke="#000000" points="8,-145.2 8,-167.2 112,-167.2 112,-145.2 8,-145.2"/>
<text text-anchor="start" x="29" y="-152.3" font-family="Helvetica,sans-Serif" font-size="11.00" fill="#000000">active</text>
<polygon fill="none" stroke="#000000" points="8,-123.2 8,-145.2 112,-145.2 112,-123.2 8,-123.2"/>
<text text-anchor="start" x="29" y="-130.3" font-family="Helvetica,sans-Serif" font-size="11.00" fill="#000000">version</text>
<polygon fill="none" stroke="#000000" points="8,-101.2 8,-123.2 112,-123.2 112,-101.2 8,-101.2"/>
<text text-anchor="start" x="29" y="-108.3" font-family="Helvetica,sans-Serif" font-size="11.00" fill="#000000">created_at</text>
<polygon fill="none" stroke="#000000" points="8,-79.2 8,-101.2 112,-101.2 112,-79.2 8,-79.2"/>
<text text-anchor="start" x="29" y="-86.3" font-family="Helvetica,sans-Serif" font-size="11.00" fill="#000000">updated_at</text>
<polygon fill="#ffffff" stroke="transparent" points="8,-60.2 8,-79.2 112,-79.2 112,-60.2 8,-60.2"/>
<polygon fill="none" stroke="#000000" points="8,-60.2 8,-79.2 112,-79.2 112,-60.2 8,-60.2"/>
<polygon fill="#ffffff" stroke="transparent" points="9,-61.2 9,-78.2 40,-78.2 40,-61.2 9,-61.2"/>
<text text-anchor="start" x="11" y="-66.3" font-family="Helvetica,sans-Serif" font-size="11.00" fill="#000000"> &#160;</text>
<polygon fill="#ffffff" stroke="transparent" points="40,-61.2 40,-78.2 71,-78.2 71,-61.2 40,-61.2"/>
<text text-anchor="start" x="52.4431" y="-66.3" font-family="Helvetica,sans-Serif" font-size="11.00" fill="#000000"> &#160;</text>
<polygon fill="#ffffff" stroke="transparent" points="71,-61.2 71,-78.2 111,-78.2 111,-61.2 71,-61.2"/>
<text text-anchor="start" x="93.4053" y="-66.3" font-family="Helvetica,sans-Serif" font-size="11.00" fill="#000000">1 &gt;</text>
<polygon fill="#000000" stroke="#000000" points="40,-61.2 40,-78.2 40,-78.2 40,-61.2 40,-61.2"/>
<polygon fill="#000000" stroke="#000000" points="71,-61.2 71,-78.2 71,-78.2 71,-61.2 71,-61.2"/>
</a>
</g>
</g>
<!-- app_user&#45;&gt;company -->
<g id="edge1" class="edge">
<title>app_user:w&#45;&gt;company:e</title>
<path fill="none" stroke="#000000" d="M146.4909,-222.2C135.1774,-222.2 127.9931,-222.2 112,-222.2"/>
<polygon fill="#000000" stroke="#000000" points="153,-222.2001 161,-225.8 157,-222.2 161,-222.2 161,-222.2 161,-222.2 157,-222.2 161,-218.6 153,-222.2001 153,-222.2001"/>
<ellipse fill="none" stroke="#000000" cx="149.8" cy="-222.2001" rx="3.2" ry="3.2"/>
</g>
<!-- user_role -->
<g id="node3" class="node">
<title>user_role</title>
<g id="a_node3"><a xlink:href="../../tables/user_role.html" xlink:title="user_role" target="_top">
<polygon fill="#ffffff" stroke="transparent" points="342,-148.2 342,-278.2 448,-278.2 448,-148.2 342,-148.2"/>
<polygon fill="#f5f5f5" stroke="transparent" points="342,-255.2 342,-278.2 448,-278.2 448,-255.2 342,-255.2"/>
<polygon fill="none" stroke="#000000" points="342,-255.2 342,-278.2 448,-278.2 448,-255.2 342,-255.2"/>
<text text-anchor="start" x="347" y="-263.8" font-family="Helvetica,sans-Serif" font-weight="bold" font-size="11.00" fill="#000000">user_role</text>
<text text-anchor="start" x="413.5219" y="-263.3" font-family="Helvetica,sans-Serif" font-size="11.00" fill="#000000">[table]</text>
<polygon fill="none" stroke="#000000" points="342,-233.2 342,-255.2 448,-255.2 448,-233.2 342,-233.2"/>
<image xlink:href="../../images/primaryKeys.png" width="11px" height="12px" preserveAspectRatio="xMinYMin meet" x="347" y="-250.2"/>
<text text-anchor="start" x="364" y="-240.3" font-family="Helvetica,sans-Serif" font-size="11.00" fill="#000000">user_id</text>
<polygon fill="none" stroke="#000000" points="342,-211.2 342,-233.2 448,-233.2 448,-211.2 342,-211.2"/>
<image xlink:href="../../images/primaryKeys.png" width="11px" height="12px" preserveAspectRatio="xMinYMin meet" x="347" y="-228.2"/>
<text text-anchor="start" x="364" y="-218.3" font-family="Helvetica,sans-Serif" font-size="11.00" fill="#000000">role</text>
<polygon fill="none" stroke="#000000" points="342,-189.2 342,-211.2 448,-211.2 448,-189.2 342,-189.2"/>
<text text-anchor="start" x="364" y="-196.3" font-family="Helvetica,sans-Serif" font-size="11.00" fill="#000000">granted_by</text>
<polygon fill="none" stroke="#000000" points="342,-167.2 342,-189.2 448,-189.2 448,-167.2 342,-167.2"/>
<text text-anchor="start" x="364" y="-174.3" font-family="Helvetica,sans-Serif" font-size="11.00" fill="#000000">granted_at</text>
<polygon fill="#ffffff" stroke="transparent" points="342,-148.2 342,-167.2 448,-167.2 448,-148.2 342,-148.2"/>
<polygon fill="none" stroke="#000000" points="342,-148.2 342,-167.2 448,-167.2 448,-148.2 342,-148.2"/>
<polygon fill="#ffffff" stroke="transparent" points="343,-149.2 343,-166.2 384,-166.2 384,-149.2 343,-149.2"/>
<text text-anchor="start" x="345" y="-154.3" font-family="Helvetica,sans-Serif" font-size="11.00" fill="#000000">&lt; 1</text>
<polygon fill="#ffffff" stroke="transparent" points="384,-149.2 384,-166.2 416,-166.2 416,-149.2 384,-149.2"/>
<text text-anchor="start" x="396.9431" y="-154.3" font-family="Helvetica,sans-Serif" font-size="11.00" fill="#000000"> &#160;</text>
<polygon fill="#ffffff" stroke="transparent" points="416,-149.2 416,-166.2 447,-166.2 447,-149.2 416,-149.2"/>
<text text-anchor="start" x="438.8862" y="-154.3" font-family="Helvetica,sans-Serif" font-size="11.00" fill="#000000"> &#160;</text>
<polygon fill="#000000" stroke="#000000" points="384,-149.2 384,-166.2 384,-166.2 384,-149.2 384,-149.2"/>
<polygon fill="#000000" stroke="#000000" points="416,-149.2 416,-166.2 416,-166.2 416,-149.2 416,-149.2"/>
</a>
</g>
</g>
<!-- user_role&#45;&gt;app_user -->
<g id="edge2" class="edge">
<title>user_role:w&#45;&gt;app_user:e</title>
<path fill="none" stroke="#000000" d="M327.4909,-244.2C316.1774,-244.2 308.9931,-244.2 293,-244.2"/>
<polygon fill="#000000" stroke="#000000" points="334,-244.2001 342,-247.8 338,-244.2 342,-244.2 342,-244.2 342,-244.2 338,-244.2 342,-240.6 334,-244.2001 334,-244.2001"/>
<ellipse fill="none" stroke="#000000" cx="330.8" cy="-244.2001" rx="3.2" ry="3.2"/>
</g>
<!-- kpi_observation -->
<g id="node4" class="node">
<title>kpi_observation</title>
<g id="a_node4"><a xlink:href="../../tables/kpi_observation.html" xlink:title="kpi_observation" target="_top">
<polygon fill="#ffffff" stroke="transparent" points="327,-328.2 327,-502.2 543,-502.2 543,-328.2 327,-328.2"/>
<polygon fill="#f5f5f5" stroke="transparent" points="327,-479.2 327,-502.2 543,-502.2 543,-479.2 327,-479.2"/>
<polygon fill="none" stroke="#000000" points="327,-479.2 327,-502.2 543,-502.2 543,-479.2 327,-479.2"/>
<text text-anchor="start" x="332" y="-487.8" font-family="Helvetica,sans-Serif" font-weight="bold" font-size="11.00" fill="#000000">kpi_observation</text>
<text text-anchor="start" x="508.0437" y="-487.3" font-family="Helvetica,sans-Serif" font-size="11.00" fill="#000000">[table]</text>
<polygon fill="none" stroke="#000000" points="327,-457.2 327,-479.2 543,-479.2 543,-457.2 327,-457.2"/>
<image xlink:href="../../images/primaryKeys.png" width="11px" height="12px" preserveAspectRatio="xMinYMin meet" x="332" y="-474.2"/>
<text text-anchor="start" x="347" y="-464.3" font-family="Helvetica,sans-Serif" font-size="11.00" fill="#000000">transport_request_id</text>
<polygon fill="none" stroke="#000000" points="327,-435.2 327,-457.2 543,-457.2 543,-435.2 327,-435.2"/>
<text text-anchor="start" x="347" y="-442.3" font-family="Helvetica,sans-Serif" font-size="11.00" fill="#000000">shipper_company_id</text>
<polygon fill="#ffffff" stroke="transparent" points="327,-413.2 327,-435.2 543,-435.2 543,-413.2 327,-413.2"/>
<polygon fill="none" stroke="#000000" points="327,-413.2 327,-435.2 543,-435.2 543,-413.2 327,-413.2"/>
<text text-anchor="start" x="347" y="-420.3" font-family="Helvetica,sans-Serif" font-size="11.00" fill="#000000">submitted_at</text>
<polygon fill="none" stroke="#000000" points="327,-391.2 327,-413.2 543,-413.2 543,-391.2 327,-391.2"/>
<text text-anchor="start" x="347" y="-398.3" font-family="Helvetica,sans-Serif" font-size="11.00" fill="#000000">excluded</text>
<polygon fill="none" stroke="#000000" points="327,-369.2 327,-391.2 543,-391.2 543,-369.2 327,-369.2"/>
<text text-anchor="start" x="347" y="-376.3" font-family="Helvetica,sans-Serif" font-size="11.00" fill="#000000">transport_request_number</text>
<polygon fill="none" stroke="#000000" points="327,-347.2 327,-369.2 543,-369.2 543,-347.2 327,-347.2"/>
<text text-anchor="start" x="347" y="-354.3" font-family="Helvetica,sans-Serif" font-size="11.00" fill="#000000">first_presented_at</text>
<polygon fill="#ffffff" stroke="transparent" points="327,-328.2 327,-347.2 543,-347.2 543,-328.2 327,-328.2"/>
<polygon fill="none" stroke="#000000" points="327,-328.2 327,-347.2 543,-347.2 543,-328.2 327,-328.2"/>
<polygon fill="#ffffff" stroke="transparent" points="328,-329.2 328,-346.2 400,-346.2 400,-329.2 328,-329.2"/>
<text text-anchor="start" x="330" y="-334.3" font-family="Helvetica,sans-Serif" font-size="11.00" fill="#000000"> &#160;</text>
<polygon fill="#ffffff" stroke="transparent" points="400,-329.2 400,-346.2 471,-346.2 471,-329.2 400,-329.2"/>
<text text-anchor="start" x="432.4431" y="-334.3" font-family="Helvetica,sans-Serif" font-size="11.00" fill="#000000"> &#160;</text>
<polygon fill="#ffffff" stroke="transparent" points="471,-329.2 471,-346.2 542,-346.2 542,-329.2 471,-329.2"/>
<text text-anchor="start" x="533.8862" y="-334.3" font-family="Helvetica,sans-Serif" font-size="11.00" fill="#000000"> &#160;</text>
<polygon fill="#000000" stroke="#000000" points="400,-329.2 400,-346.2 400,-346.2 400,-329.2 400,-329.2"/>
<polygon fill="#000000" stroke="#000000" points="471,-329.2 471,-346.2 471,-346.2 471,-329.2 471,-329.2"/>
</a>
</g>
</g>
</g>
</svg>
