<?xml version="1.0" encoding="UTF-8" standalone="no"?>
<!DOCTYPE svg PUBLIC "-//W3C//DTD SVG 1.1//EN"
 "http://www.w3.org/Graphics/SVG/1.1/DTD/svg11.dtd">
<!-- Generated by graphviz version 2.40.1 (20161225.0304)
 -->
<!-- Title: compactRelationshipsDiagram Pages: 1 -->
<svg width="566pt" height="407pt"
 viewBox="0.00 0.00 566.00 407.20" xmlns="http://www.w3.org/2000/svg" xmlns:xlink="http://www.w3.org/1999/xlink">
<g id="graph0" class="graph" transform="scale(1 1) rotate(0) translate(4 403.2)">
<title>compactRelationshipsDiagram</title>
<polygon fill="#ffffff" stroke="transparent" points="-4,4 -4,-403.2 562,-403.2 562,4 -4,4"/>
<text text-anchor="middle" x="72.4936" y="-7.3" font-family="Helvetica,sans-Serif" font-size="11.00" fill="#000000">Generated by SchemaSpy</text>
<!-- audit_record -->
<g id="node1" class="node">
<title>audit_record</title>
<g id="a_node1"><a xlink:href="../../tables/audit_record.html" xlink:title="audit_record" target="_top">
<polygon fill="#ffffff" stroke="transparent" points="399,-268.2 399,-395.2 550,-395.2 550,-268.2 399,-268.2"/>
<polygon fill="#f5f5f5" stroke="transparent" points="399.5,-371.7 399.5,-394.7 550.5,-394.7 550.5,-371.7 399.5,-371.7"/>
<polygon fill="none" stroke="#000000" points="399.5,-371.7 399.5,-394.7 550.5,-394.7 550.5,-371.7 399.5,-371.7"/>
<text text-anchor="start" x="404.5" y="-380.3" font-family="Helvetica,sans-Serif" font-weight="bold" font-size="11.00" fill="#000000">audit_record</text>
<text text-anchor="start" x="515.5437" y="-379.8" font-family="Helvetica,sans-Serif" font-size="11.00" fill="#000000">[table]</text>
<polygon fill="none" stroke="#000000" points="399.5,-349.7 399.5,-371.7 550.5,-371.7 550.5,-349.7 399.5,-349.7"/>
<image xlink:href="../../images/primaryKeys.png" width="11px" height="12px" preserveAspectRatio="xMinYMin meet" x="404.5" y="-366.7"/>
<text text-anchor="start" x="419.5" y="-356.8" font-family="Helvetica,sans-Serif" font-size="11.00" fill="#000000">id</text>
<polygon fill="#ffffff" stroke="transparent" points="399.5,-327.7 399.5,-349.7 550.5,-349.7 550.5,-327.7 399.5,-327.7"/>
<polygon fill="none" stroke="#000000" points="399.5,-327.7 399.5,-349.7 550.5,-349.7 550.5,-327.7 399.5,-327.7"/>
<text text-anchor="start" x="419.5" y="-334.8" font-family="Helvetica,sans-Serif" font-size="11.00" fill="#000000">occurred_at</text>
<polygon fill="#ffffff" stroke="transparent" points="399.5,-305.7 399.5,-327.7 550.5,-327.7 550.5,-305.7 399.5,-305.7"/>
<polygon fill="none" stroke="#000000" points="399.5,-305.7 399.5,-327.7 550.5,-327.7 550.5,-305.7 399.5,-305.7"/>
<text text-anchor="start" x="419.5" y="-312.8" font-family="Helvetica,sans-Serif" font-size="11.00" fill="#000000">actor_user_id</text>
<polygon fill="none" stroke="#000000" points="399.5,-286.7 399.5,-305.7 550.5,-305.7 550.5,-286.7 399.5,-286.7"/>
<text text-anchor="start" x="402.5" y="-292.8" font-family="Helvetica,sans-Serif" font-size="11.00" fill="#000000">...</text>
<polygon fill="#ffffff" stroke="transparent" points="399.5,-267.7 399.5,-286.7 550.5,-286.7 550.5,-267.7 399.5,-267.7"/>
<polygon fill="none" stroke="#000000" points="399.5,-267.7 399.5,-286.7 550.5,-286.7 550.5,-267.7 399.5,-267.7"/>
<polygon fill="#ffffff" stroke="transparent" points="400.5,-268.7 400.5,-285.7 450.5,-285.7 450.5,-268.7 400.5,-268.7"/>
<text text-anchor="start" x="402.5" y="-273.8" font-family="Helvetica,sans-Serif" font-size="11.00" fill="#000000"> &#160;</text>
<polygon fill="#ffffff" stroke="transparent" points="450.5,-268.7 450.5,-285.7 500.5,-285.7 500.5,-268.7 450.5,-268.7"/>
<text text-anchor="start" x="472.4431" y="-273.8" font-family="Helvetica,sans-Serif" font-size="11.00" fill="#000000"> &#160;</text>
<polygon fill="#ffffff" stroke="transparent" points="500.5,-268.7 500.5,-285.7 549.5,-285.7 549.5,-268.7 500.5,-268.7"/>
<text text-anchor="start" x="541.3862" y="-273.8" font-family="Helvetica,sans-Serif" font-size="11.00" fill="#000000"> &#160;</text>
<polygon fill="#000000" stroke="#000000" points="450.5,-268.7 450.5,-285.7 450.5,-285.7 450.5,-268.7 450.5,-268.7"/>
<polygon fill="#000000" stroke="#000000" points="500.5,-268.7 500.5,-285.7 500.5,-285.7 500.5,-268.7 500.5,-268.7"/>
</a>
</g>
</g>
<!-- app_user -->
<g id="node2" class="node">
<title>app_user</title>
<g id="a_node2"><a xlink:href="../../tables/app_user.html" xlink:title="app_user" target="_top">
<polygon fill="#ffffff" stroke="transparent" points="161,-38.2 161,-165.2 293,-165.2 293,-38.2 161,-38.2"/>
<polygon fill="#f5f5f5" stroke="transparent" points="161,-141.7 161,-164.7 293,-164.7 293,-141.7 161,-141.7"/>
<polygon fill="none" stroke="#000000" points="161,-141.7 161,-164.7 293,-164.7 293,-141.7 161,-141.7"/>
<text text-anchor="start" x="166" y="-150.3" font-family="Helvetica,sans-Serif" font-weight="bold" font-size="11.00" fill="#000000">app_user</text>
<text text-anchor="start" x="258.0437" y="-149.8" font-family="Helvetica,sans-Serif" font-size="11.00" fill="#000000">[table]</text>
<polygon fill="none" stroke="#000000" points="161,-119.7 161,-141.7 293,-141.7 293,-119.7 161,-119.7"/>
<image xlink:href="../../images/primaryKeys.png" width="11px" height="12px" preserveAspectRatio="xMinYMin meet" x="166" y="-136.7"/>
<text text-anchor="start" x="181" y="-126.8" font-family="Helvetica,sans-Serif" font-size="11.00" fill="#000000">id</text>
<polygon fill="#ffffff" stroke="transparent" points="161,-97.7 161,-119.7 293,-119.7 293,-97.7 161,-97.7"/>
<polygon fill="none" stroke="#000000" points="161,-97.7 161,-119.7 293,-119.7 293,-97.7 161,-97.7"/>
<image xlink:href="../../images/foreignKeys.png" width="11px" height="12px" preserveAspectRatio="xMinYMin meet" x="166" y="-114.7"/>
<text text-anchor="start" x="181" y="-104.8" font-family="Helvetica,sans-Serif" font-size="11.00" fill="#000000">company_id</text>
<polygon fill="#ffffff" stroke="transparent" points="161,-75.7 161,-97.7 293,-97.7 293,-75.7 161,-75.7"/>
<polygon fill="none" stroke="#000000" points="161,-75.7 161,-97.7 293,-97.7 293,-75.7 161,-75.7"/>
<text text-anchor="start" x="181" y="-82.8" font-family="Helvetica,sans-Serif" font-size="11.00" fill="#000000">email</text>
<polygon fill="none" stroke="#000000" points="161,-56.7 161,-75.7 293,-75.7 293,-56.7 161,-56.7"/>
<text text-anchor="start" x="164" y="-62.8" font-family="Helvetica,sans-Serif" font-size="11.00" fill="#000000">...</text>
<polygon fill="#ffffff" stroke="transparent" points="161,-37.7 161,-56.7 293,-56.7 293,-37.7 161,-37.7"/>
<polygon fill="none" stroke="#000000" points="161,-37.7 161,-56.7 293,-56.7 293,-37.7 161,-37.7"/>
<polygon fill="#ffffff" stroke="transparent" points="162,-38.7 162,-55.7 209,-55.7 209,-38.7 162,-38.7"/>
<text text-anchor="start" x="164" y="-43.8" font-family="Helvetica,sans-Serif" font-size="11.00" fill="#000000">&lt; 1</text>
<polygon fill="#ffffff" stroke="transparent" points="209,-38.7 209,-55.7 246,-55.7 246,-38.7 209,-38.7"/>
<text text-anchor="start" x="224.4431" y="-43.8" font-family="Helvetica,sans-Serif" font-size="11.00" fill="#000000"> &#160;</text>
<polygon fill="#ffffff" stroke="transparent" points="246,-38.7 246,-55.7 292,-55.7 292,-38.7 246,-38.7"/>
<text text-anchor="start" x="274.4053" y="-43.8" font-family="Helvetica,sans-Serif" font-size="11.00" fill="#000000">1 &gt;</text>
<polygon fill="#000000" stroke="#000000" points="209,-38.7 209,-55.7 209,-55.7 209,-38.7 209,-38.7"/>
<polygon fill="#000000" stroke="#000000" points="246,-38.7 246,-55.7 246,-55.7 246,-38.7 246,-38.7"/>
</a>
</g>
</g>
<!-- company -->
<g id="node5" class="node">
<title>company</title>
<g id="a_node5"><a xlink:href="../../tables/company.html" xlink:title="company" target="_top">
<polygon fill="#ffffff" stroke="transparent" points="8,-60.2 8,-143.2 112,-143.2 112,-60.2 8,-60.2"/>
<polygon fill="#f5f5f5" stroke="transparent" points="8,-119.7 8,-142.7 112,-142.7 112,-119.7 8,-119.7"/>
<polygon fill="none" stroke="#000000" points="8,-119.7 8,-142.7 112,-142.7 112,-119.7 8,-119.7"/>
<text text-anchor="start" x="13" y="-128.3" font-family="Helvetica,sans-Serif" font-weight="bold" font-size="11.00" fill="#000000">company</text>
<text text-anchor="start" x="77.5219" y="-127.8" font-family="Helvetica,sans-Serif" font-size="11.00" fill="#000000">[table]</text>
<polygon fill="none" stroke="#000000" points="8,-97.7 8,-119.7 112,-119.7 112,-97.7 8,-97.7"/>
<image xlink:href="../../images/primaryKeys.png" width="11px" height="12px" preserveAspectRatio="xMinYMin meet" x="13" y="-114.7"/>
<text text-anchor="start" x="29" y="-104.8" font-family="Helvetica,sans-Serif" font-size="11.00" fill="#000000">id</text>
<polygon fill="none" stroke="#000000" points="8,-78.7 8,-97.7 112,-97.7 112,-78.7 8,-78.7"/>
<text text-anchor="start" x="11" y="-84.8" font-family="Helvetica,sans-Serif" font-size="11.00" fill="#000000">...</text>
<polygon fill="#ffffff" stroke="transparent" points="8,-59.7 8,-78.7 112,-78.7 112,-59.7 8,-59.7"/>
<polygon fill="none" stroke="#000000" points="8,-59.7 8,-78.7 112,-78.7 112,-59.7 8,-59.7"/>
<polygon fill="#ffffff" stroke="transparent" points="9,-60.7 9,-77.7 40,-77.7 40,-60.7 9,-60.7"/>
<text text-anchor="start" x="11" y="-65.8" font-family="Helvetica,sans-Serif" font-size="11.00" fill="#000000"> &#160;</text>
<polygon fill="#ffffff" stroke="transparent" points="40,-60.7 40,-77.7 71,-77.7 71,-60.7 40,-60.7"/>
<text text-anchor="start" x="52.4431" y="-65.8" font-family="Helvetica,sans-Serif" font-size="11.00" fill="#000000"> &#160;</text>
<polygon fill="#ffffff" stroke="transparent" points="71,-60.7 71,-77.7 111,-77.7 111,-60.7 71,-60.7"/>
<text text-anchor="start" x="93.4053" y="-65.8" font-family="Helvetica,sans-Serif" font-size="11.00" fill="#000000">1 &gt;</text>
<polygon fill="#000000" stroke="#000000" points="40,-60.7 40,-77.7 40,-77.7 40,-60.7 40,-60.7"/>
<polygon fill="#000000" stroke="#000000" points="71,-60.7 71,-77.7 71,-77.7 71,-60.7 71,-60.7"/>
</a>
</g>
</g>
<!-- app_user&#45;&gt;company -->
<g id="edge1" class="edge">
<title>app_user:w&#45;&gt;company:e</title>
<path fill="none" stroke="#000000" d="M146.4909,-108.7C135.1774,-108.7 127.9931,-108.7 112,-108.7"/>
<polygon fill="#000000" stroke="#000000" points="153,-108.7001 161,-112.3 157,-108.7 161,-108.7 161,-108.7 161,-108.7 157,-108.7 161,-105.1 153,-108.7001 153,-108.7001"/>
<ellipse fill="none" stroke="#000000" cx="149.8" cy="-108.7001" rx="3.2" ry="3.2"/>
</g>
<!-- user_role -->
<g id="node3" class="node">
<title>user_role</title>
<g id="a_node3"><a xlink:href="../../tables/user_role.html" xlink:title="user_role" target="_top">
<polygon fill="#ffffff" stroke="transparent" points="342,-60.2 342,-165.2 448,-165.2 448,-60.2 342,-60.2"/>
<polygon fill="#f5f5f5" stroke="transparent" points="342,-141.7 342,-164.7 448,-164.7 448,-141.7 342,-141.7"/>
<polygon fill="none" stroke="#000000" points="342,-141.7 342,-164.7 448,-164.7 448,-141.7 342,-141.7"/>
<text text-anchor="start" x="347" y="-150.3" font-family="Helvetica,sans-Serif" font-weight="bold" font-size="11.00" fill="#000000">user_role</text>
<text text-anchor="start" x="413.5218" y="-149.8" font-family="Helvetica,sans-Serif" font-size="11.00" fill="#000000">[table]</text>
<polygon fill="none" stroke="#000000" points="342,-119.7 342,-141.7 448,-141.7 448,-119.7 342,-119.7"/>
<image xlink:href="../../images/primaryKeys.png" width="11px" height="12px" preserveAspectRatio="xMinYMin meet" x="347" y="-136.7"/>
<text text-anchor="start" x="364" y="-126.8" font-family="Helvetica,sans-Serif" font-size="11.00" fill="#000000">user_id</text>
<polygon fill="none" stroke="#000000" points="342,-97.7 342,-119.7 448,-119.7 448,-97.7 342,-97.7"/>
<image xlink:href="../../images/primaryKeys.png" width="11px" height="12px" preserveAspectRatio="xMinYMin meet" x="347" y="-114.7"/>
<text text-anchor="start" x="364" y="-104.8" font-family="Helvetica,sans-Serif" font-size="11.00" fill="#000000">role</text>
<polygon fill="none" stroke="#000000" points="342,-78.7 342,-97.7 448,-97.7 448,-78.7 342,-78.7"/>
<text text-anchor="start" x="345" y="-84.8" font-family="Helvetica,sans-Serif" font-size="11.00" fill="#000000">...</text>
<polygon fill="#ffffff" stroke="transparent" points="342,-59.7 342,-78.7 448,-78.7 448,-59.7 342,-59.7"/>
<polygon fill="none" stroke="#000000" points="342,-59.7 342,-78.7 448,-78.7 448,-59.7 342,-59.7"/>
<polygon fill="#ffffff" stroke="transparent" points="343,-60.7 343,-77.7 384,-77.7 384,-60.7 343,-60.7"/>
<text text-anchor="start" x="345" y="-65.8" font-family="Helvetica,sans-Serif" font-size="11.00" fill="#000000">&lt; 1</text>
<polygon fill="#ffffff" stroke="transparent" points="384,-60.7 384,-77.7 416,-77.7 416,-60.7 384,-60.7"/>
<text text-anchor="start" x="396.9431" y="-65.8" font-family="Helvetica,sans-Serif" font-size="11.00" fill="#000000"> &#160;</text>
<polygon fill="#ffffff" stroke="transparent" points="416,-60.7 416,-77.7 447,-77.7 447,-60.7 416,-60.7"/>
<text text-anchor="start" x="438.8862" y="-65.8" font-family="Helvetica,sans-Serif" font-size="11.00" fill="#000000"> &#160;</text>
<polygon fill="#000000" stroke="#000000" points="384,-60.7 384,-77.7 384,-77.7 384,-60.7 384,-60.7"/>
<polygon fill="#000000" stroke="#000000" points="416,-60.7 416,-77.7 416,-77.7 416,-60.7 416,-60.7"/>
</a>
</g>
</g>
<!-- user_role&#45;&gt;app_user -->
<g id="edge2" class="edge">
<title>user_role:w&#45;&gt;app_user:e</title>
<path fill="none" stroke="#000000" d="M327.4909,-130.7C316.1774,-130.7 308.9931,-130.7 293,-130.7"/>
<polygon fill="#000000" stroke="#000000" points="334,-130.7001 342,-134.3 338,-130.7 342,-130.7 342,-130.7 342,-130.7 338,-130.7 342,-127.1 334,-130.7001 334,-130.7001"/>
<ellipse fill="none" stroke="#000000" cx="330.8" cy="-130.7001" rx="3.2" ry="3.2"/>
</g>
<!-- kpi_observation -->
<g id="node4" class="node">
<title>kpi_observation</title>
<g id="a_node4"><a xlink:href="../../tables/kpi_observation.html" xlink:title="kpi_observation" target="_top">
<polygon fill="#ffffff" stroke="transparent" points="123,-222.2 123,-327.2 339,-327.2 339,-222.2 123,-222.2"/>
<polygon fill="#f5f5f5" stroke="transparent" points="123,-303.7 123,-326.7 339,-326.7 339,-303.7 123,-303.7"/>
<polygon fill="none" stroke="#000000" points="123,-303.7 123,-326.7 339,-326.7 339,-303.7 123,-303.7"/>
<text text-anchor="start" x="128" y="-312.3" font-family="Helvetica,sans-Serif" font-weight="bold" font-size="11.00" fill="#000000">kpi_observation</text>
<text text-anchor="start" x="304.0437" y="-311.8" font-family="Helvetica,sans-Serif" font-size="11.00" fill="#000000">[table]</text>
<polygon fill="none" stroke="#000000" points="123,-281.7 123,-303.7 339,-303.7 339,-281.7 123,-281.7"/>
<image xlink:href="../../images/primaryKeys.png" width="11px" height="12px" preserveAspectRatio="xMinYMin meet" x="128" y="-298.7"/>
<text text-anchor="start" x="143" y="-288.8" font-family="Helvetica,sans-Serif" font-size="11.00" fill="#000000">transport_request_id</text>
<polygon fill="#ffffff" stroke="transparent" points="123,-259.7 123,-281.7 339,-281.7 339,-259.7 123,-259.7"/>
<polygon fill="none" stroke="#000000" points="123,-259.7 123,-281.7 339,-281.7 339,-259.7 123,-259.7"/>
<text text-anchor="start" x="143" y="-266.8" font-family="Helvetica,sans-Serif" font-size="11.00" fill="#000000">submitted_at</text>
<polygon fill="none" stroke="#000000" points="123,-240.7 123,-259.7 339,-259.7 339,-240.7 123,-240.7"/>
<text text-anchor="start" x="126" y="-246.8" font-family="Helvetica,sans-Serif" font-size="11.00" fill="#000000">...</text>
<polygon fill="#ffffff" stroke="transparent" points="123,-221.7 123,-240.7 339,-240.7 339,-221.7 123,-221.7"/>
<polygon fill="none" stroke="#000000" points="123,-221.7 123,-240.7 339,-240.7 339,-221.7 123,-221.7"/>
<polygon fill="#ffffff" stroke="transparent" points="124,-222.7 124,-239.7 196,-239.7 196,-222.7 124,-222.7"/>
<text text-anchor="start" x="126" y="-227.8" font-family="Helvetica,sans-Serif" font-size="11.00" fill="#000000"> &#160;</text>
<polygon fill="#ffffff" stroke="transparent" points="196,-222.7 196,-239.7 267,-239.7 267,-222.7 196,-222.7"/>
<text text-anchor="start" x="228.4431" y="-227.8" font-family="Helvetica,sans-Serif" font-size="11.00" fill="#000000"> &#160;</text>
<polygon fill="#ffffff" stroke="transparent" points="267,-222.7 267,-239.7 338,-239.7 338,-222.7 267,-222.7"/>
<text text-anchor="start" x="329.8862" y="-227.8" font-family="Helvetica,sans-Serif" font-size="11.00" fill="#000000"> &#160;</text>
<polygon fill="#000000" stroke="#000000" points="196,-222.7 196,-239.7 196,-239.7 196,-222.7 196,-222.7"/>
<polygon fill="#000000" stroke="#000000" points="267,-222.7 267,-239.7 267,-239.7 267,-222.7 267,-222.7"/>
</a>
</g>
</g>
</g>
</svg>
