<?xml version="1.0" encoding="UTF-8" standalone="no"?>
<!DOCTYPE svg PUBLIC "-//W3C//DTD SVG 1.1//EN"
 "http://www.w3.org/Graphics/SVG/1.1/DTD/svg11.dtd">
<!-- Generated by graphviz version 2.40.1 (20161225.0304)
 -->
<!-- Title: compactImpliedRelationshipsDiagram Pages: 1 -->
<svg width="1034pt" height="1004pt"
 viewBox="0.00 0.00 1034.29 1003.61" xmlns="http://www.w3.org/2000/svg" xmlns:xlink="http://www.w3.org/1999/xlink">
<g id="graph0" class="graph" transform="scale(1 1) rotate(0) translate(4 999.6064)">
<title>compactImpliedRelationshipsDiagram</title>
<polygon fill="#ffffff" stroke="transparent" points="-4,4 -4,-999.6064 1030.2936,-999.6064 1030.2936,4 -4,4"/>
<text text-anchor="middle" x="72.4936" y="-7.3" font-family="Helvetica,sans-Serif" font-size="11.00" fill="#000000">Generated by SchemaSpy</text>
<!-- exclusion_reason -->
<g id="node1" class="node">
<title>exclusion_reason</title>
<g id="a_node1"><a xlink:href="../../tables/exclusion_reason.html" xlink:title="exclusion_reason" target="_top">
<polygon fill="#ffffff" stroke="transparent" points="853.7936,-394.6064 853.7936,-543.6064 1017.7936,-543.6064 1017.7936,-394.6064 853.7936,-394.6064"/>
<polygon fill="#f5f5f5" stroke="transparent" points="853.7936,-520.1064 853.7936,-543.1064 1017.7936,-543.1064 1017.7936,-520.1064 853.7936,-520.1064"/>
<polygon fill="none" stroke="#000000" points="853.7936,-520.1064 853.7936,-543.1064 1017.7936,-543.1064 1017.7936,-520.1064 853.7936,-520.1064"/>
<text text-anchor="start" x="858.7936" y="-528.7064" font-family="Helvetica,sans-Serif" font-weight="bold" font-size="11.00" fill="#000000">exclusion_reason</text>
<text text-anchor="start" x="983.3154" y="-528.2064" font-family="Helvetica,sans-Serif" font-size="11.00" fill="#000000">[table]</text>
<polygon fill="none" stroke="#000000" points="853.7936,-498.1064 853.7936,-520.1064 1017.7936,-520.1064 1017.7936,-498.1064 853.7936,-498.1064"/>
<image xlink:href="../../images/primaryKeys.png" width="11px" height="12px" preserveAspectRatio="xMinYMin meet" x="858.794" y="-515.106"/>
<text text-anchor="start" x="882.7936" y="-505.2064" font-family="Helvetica,sans-Serif" font-size="11.00" fill="#000000">routing_case_id</text>
<polygon fill="none" stroke="#000000" points="853.7936,-476.1064 853.7936,-498.1064 1017.7936,-498.1064 1017.7936,-476.1064 853.7936,-476.1064"/>
<image xlink:href="../../images/primaryKeys.png" width="11px" height="12px" preserveAspectRatio="xMinYMin meet" x="858.794" y="-493.106"/>
<text text-anchor="start" x="882.7936" y="-483.2064" font-family="Helvetica,sans-Serif" font-size="11.00" fill="#000000">route_version_no</text>
<polygon fill="none" stroke="#000000" points="853.7936,-454.1064 853.7936,-476.1064 1017.7936,-476.1064 1017.7936,-454.1064 853.7936,-454.1064"/>
<image xlink:href="../../images/primaryKeys.png" width="11px" height="12px" preserveAspectRatio="xMinYMin meet" x="858.794" y="-471.106"/>
<text text-anchor="start" x="882.7936" y="-461.2064" font-family="Helvetica,sans-Serif" font-size="11.00" fill="#000000">candidate_no</text>
<polygon fill="none" stroke="#000000" points="853.7936,-432.1064 853.7936,-454.1064 1017.7936,-454.1064 1017.7936,-432.1064 853.7936,-432.1064"/>
<image xlink:href="../../images/primaryKeys.png" width="11px" height="12px" preserveAspectRatio="xMinYMin meet" x="858.794" y="-449.106"/>
<text text-anchor="start" x="882.7936" y="-439.2064" font-family="Helvetica,sans-Serif" font-size="11.00" fill="#000000">reason_no</text>
<polygon fill="none" stroke="#000000" points="853.7936,-413.1064 853.7936,-432.1064 1017.7936,-432.1064 1017.7936,-413.1064 853.7936,-413.1064"/>
<text text-anchor="start" x="856.7936" y="-419.2064" font-family="Helvetica,sans-Serif" font-size="11.00" fill="#000000">...</text>
<polygon fill="#ffffff" stroke="transparent" points="853.7936,-394.1064 853.7936,-413.1064 1017.7936,-413.1064 1017.7936,-394.1064 853.7936,-394.1064"/>
<polygon fill="none" stroke="#000000" points="853.7936,-394.1064 853.7936,-413.1064 1017.7936,-413.1064 1017.7936,-394.1064 853.7936,-394.1064"/>
<polygon fill="#ffffff" stroke="transparent" points="854.7936,-395.1064 854.7936,-412.1064 914.7936,-412.1064 914.7936,-395.1064 854.7936,-395.1064"/>
<text text-anchor="start" x="856.7936" y="-400.2064" font-family="Helvetica,sans-Serif" font-size="11.00" fill="#000000">&lt; 3</text>
<polygon fill="#ffffff" stroke="transparent" points="914.7936,-395.1064 914.7936,-412.1064 965.7936,-412.1064 965.7936,-395.1064 914.7936,-395.1064"/>
<text text-anchor="start" x="937.2367" y="-400.2064" font-family="Helvetica,sans-Serif" font-size="11.00" fill="#000000"> &#160;</text>
<polygon fill="#ffffff" stroke="transparent" points="965.7936,-395.1064 965.7936,-412.1064 1016.7936,-412.1064 1016.7936,-395.1064 965.7936,-395.1064"/>
<text text-anchor="start" x="1008.6798" y="-400.2064" font-family="Helvetica,sans-Serif" font-size="11.00" fill="#000000"> &#160;</text>
<polygon fill="#000000" stroke="#000000" points="914.7936,-395.1064 914.7936,-412.1064 914.7936,-412.1064 914.7936,-395.1064 914.7936,-395.1064"/>
<polygon fill="#000000" stroke="#000000" points="965.7936,-395.1064 965.7936,-412.1064 965.7936,-412.1064 965.7936,-395.1064 965.7936,-395.1064"/>
</a>
</g>
</g>
<!-- route_candidate -->
<g id="node9" class="node">
<title>route_candidate</title>
<g id="a_node9"><a xlink:href="../../tables/route_candidate.html" xlink:title="route_candidate" target="_top">
<polygon fill="#ffffff" stroke="transparent" points="560.2936,-287.6064 560.2936,-414.6064 804.2936,-414.6064 804.2936,-287.6064 560.2936,-287.6064"/>
<polygon fill="#f5f5f5" stroke="transparent" points="560.2936,-391.1064 560.2936,-414.1064 804.2936,-414.1064 804.2936,-391.1064 560.2936,-391.1064"/>
<polygon fill="none" stroke="#000000" points="560.2936,-391.1064 560.2936,-414.1064 804.2936,-414.1064 804.2936,-391.1064 560.2936,-391.1064"/>
<text text-anchor="start" x="565.2936" y="-399.7064" font-family="Helvetica,sans-Serif" font-weight="bold" font-size="11.00" fill="#000000">route_candidate</text>
<text text-anchor="start" x="769.3373" y="-399.2064" font-family="Helvetica,sans-Serif" font-size="11.00" fill="#000000">[table]</text>
<polygon fill="none" stroke="#000000" points="560.2936,-369.1064 560.2936,-391.1064 804.2936,-391.1064 804.2936,-369.1064 560.2936,-369.1064"/>
<image xlink:href="../../images/primaryKeys.png" width="11px" height="12px" preserveAspectRatio="xMinYMin meet" x="565.294" y="-386.106"/>
<text text-anchor="start" x="580.2936" y="-376.2064" font-family="Helvetica,sans-Serif" font-size="11.00" fill="#000000">routing_case_id</text>
<polygon fill="none" stroke="#000000" points="560.2936,-347.1064 560.2936,-369.1064 804.2936,-369.1064 804.2936,-347.1064 560.2936,-347.1064"/>
<image xlink:href="../../images/primaryKeys.png" width="11px" height="12px" preserveAspectRatio="xMinYMin meet" x="565.294" y="-364.106"/>
<text text-anchor="start" x="580.2936" y="-354.2064" font-family="Helvetica,sans-Serif" font-size="11.00" fill="#000000">route_version_no</text>
<polygon fill="none" stroke="#000000" points="560.2936,-325.1064 560.2936,-347.1064 804.2936,-347.1064 804.2936,-325.1064 560.2936,-325.1064"/>
<image xlink:href="../../images/primaryKeys.png" width="11px" height="12px" preserveAspectRatio="xMinYMin meet" x="565.294" y="-342.106"/>
<text text-anchor="start" x="580.2936" y="-332.2064" font-family="Helvetica,sans-Serif" font-size="11.00" fill="#000000">candidate_no</text>
<polygon fill="none" stroke="#000000" points="560.2936,-306.1064 560.2936,-325.1064 804.2936,-325.1064 804.2936,-306.1064 560.2936,-306.1064"/>
<text text-anchor="start" x="563.2936" y="-312.2064" font-family="Helvetica,sans-Serif" font-size="11.00" fill="#000000">...</text>
<polygon fill="#ffffff" stroke="transparent" points="560.2936,-287.1064 560.2936,-306.1064 804.2936,-306.1064 804.2936,-287.1064 560.2936,-287.1064"/>
<polygon fill="none" stroke="#000000" points="560.2936,-287.1064 560.2936,-306.1064 804.2936,-306.1064 804.2936,-287.1064 560.2936,-287.1064"/>
<polygon fill="#ffffff" stroke="transparent" points="561.2936,-288.1064 561.2936,-305.1064 645.2936,-305.1064 645.2936,-288.1064 561.2936,-288.1064"/>
<text text-anchor="start" x="563.2936" y="-293.2064" font-family="Helvetica,sans-Serif" font-size="11.00" fill="#000000">&lt; 2</text>
<polygon fill="#ffffff" stroke="transparent" points="645.2936,-288.1064 645.2936,-305.1064 720.2936,-305.1064 720.2936,-288.1064 645.2936,-288.1064"/>
<text text-anchor="start" x="679.7367" y="-293.2064" font-family="Helvetica,sans-Serif" font-size="11.00" fill="#000000"> &#160;</text>
<polygon fill="#ffffff" stroke="transparent" points="720.2936,-288.1064 720.2936,-305.1064 803.2936,-305.1064 803.2936,-288.1064 720.2936,-288.1064"/>
<text text-anchor="start" x="785.6989" y="-293.2064" font-family="Helvetica,sans-Serif" font-size="11.00" fill="#000000">9 &gt;</text>
<polygon fill="#000000" stroke="#000000" points="645.2936,-288.1064 645.2936,-305.1064 645.2936,-305.1064 645.2936,-288.1064 645.2936,-288.1064"/>
<polygon fill="#000000" stroke="#000000" points="720.2936,-288.1064 720.2936,-305.1064 720.2936,-305.1064 720.2936,-288.1064 720.2936,-288.1064"/>
</a>
</g>
</g>
<!-- exclusion_reason&#45;&gt;route_candidate -->
<g id="edge5" class="edge">
<title>exclusion_reason:w&#45;&gt;route_candidate:e</title>
<path fill="none" stroke="#000000" d="M839.4062,-461.6559C805.4194,-441.1413 859.706,-336.1064 804.2936,-336.1064"/>
<polygon fill="#000000" stroke="#000000" points="846.0142,-463.2406 852.954,-468.6071 849.9039,-464.1735 853.7936,-465.1064 853.7936,-465.1064 853.7936,-465.1064 849.9039,-464.1735 854.6332,-461.6056 846.0142,-463.2406 846.0142,-463.2406"/>
<ellipse fill="none" stroke="#000000" cx="842.9024" cy="-462.4943" rx="3.2" ry="3.2"/>
</g>
<!-- exclusion_reason&#45;&gt;route_candidate -->
<g id="edge6" class="edge">
<title>exclusion_reason:w&#45;&gt;route_candidate:e</title>
<path fill="none" stroke="#000000" d="M839.4062,-483.6559C805.4194,-463.1413 859.706,-358.1064 804.2936,-358.1064"/>
<polygon fill="#000000" stroke="#000000" points="846.0142,-485.2406 852.954,-490.6071 849.9039,-486.1735 853.7936,-487.1064 853.7936,-487.1064 853.7936,-487.1064 849.9039,-486.1735 854.6332,-483.6056 846.0142,-485.2406 846.0142,-485.2406"/>
<ellipse fill="none" stroke="#000000" cx="842.9024" cy="-484.4943" rx="3.2" ry="3.2"/>
</g>
<!-- exclusion_reason&#45;&gt;route_candidate -->
<g id="edge7" class="edge">
<title>exclusion_reason:w&#45;&gt;route_candidate:e</title>
<path fill="none" stroke="#000000" d="M839.4062,-505.6559C805.4194,-485.1413 859.706,-380.1064 804.2936,-380.1064"/>
<polygon fill="#000000" stroke="#000000" points="846.0142,-507.2406 852.954,-512.6071 849.9039,-508.1735 853.7936,-509.1064 853.7936,-509.1064 853.7936,-509.1064 849.9039,-508.1735 854.6332,-505.6056 846.0142,-507.2406 846.0142,-507.2406"/>
<ellipse fill="none" stroke="#000000" cx="842.9024" cy="-506.4943" rx="3.2" ry="3.2"/>
</g>
<!-- port_call -->
<g id="node2" class="node">
<title>port_call</title>
<g id="a_node2"><a xlink:href="../../tables/port_call.html" xlink:title="port_call" target="_top">
<polygon fill="#ffffff" stroke="transparent" points="867.7936,-76.6064 867.7936,-181.6064 1003.7936,-181.6064 1003.7936,-76.6064 867.7936,-76.6064"/>
<polygon fill="#f5f5f5" stroke="transparent" points="867.7936,-158.1064 867.7936,-181.1064 1003.7936,-181.1064 1003.7936,-158.1064 867.7936,-158.1064"/>
<polygon fill="none" stroke="#000000" points="867.7936,-158.1064 867.7936,-181.1064 1003.7936,-181.1064 1003.7936,-158.1064 867.7936,-158.1064"/>
<text text-anchor="start" x="872.7936" y="-166.7064" font-family="Helvetica,sans-Serif" font-weight="bold" font-size="11.00" fill="#000000">port_call</text>
<text text-anchor="start" x="968.8373" y="-166.2064" font-family="Helvetica,sans-Serif" font-size="11.00" fill="#000000">[table]</text>
<polygon fill="none" stroke="#000000" points="867.7936,-136.1064 867.7936,-158.1064 1003.7936,-158.1064 1003.7936,-136.1064 867.7936,-136.1064"/>
<image xlink:href="../../images/primaryKeys.png" width="11px" height="12px" preserveAspectRatio="xMinYMin meet" x="872.794" y="-153.106"/>
<text text-anchor="start" x="887.7936" y="-143.2064" font-family="Helvetica,sans-Serif" font-size="11.00" fill="#000000">voyage_number</text>
<polygon fill="none" stroke="#000000" points="867.7936,-114.1064 867.7936,-136.1064 1003.7936,-136.1064 1003.7936,-114.1064 867.7936,-114.1064"/>
<image xlink:href="../../images/primaryKeys.png" width="11px" height="12px" preserveAspectRatio="xMinYMin meet" x="872.794" y="-131.106"/>
<text text-anchor="start" x="887.7936" y="-121.2064" font-family="Helvetica,sans-Serif" font-size="11.00" fill="#000000">call_no</text>
<polygon fill="none" stroke="#000000" points="867.7936,-95.1064 867.7936,-114.1064 1003.7936,-114.1064 1003.7936,-95.1064 867.7936,-95.1064"/>
<text text-anchor="start" x="870.7936" y="-101.2064" font-family="Helvetica,sans-Serif" font-size="11.00" fill="#000000">...</text>
<polygon fill="#ffffff" stroke="transparent" points="867.7936,-76.1064 867.7936,-95.1064 1003.7936,-95.1064 1003.7936,-76.1064 867.7936,-76.1064"/>
<polygon fill="none" stroke="#000000" points="867.7936,-76.1064 867.7936,-95.1064 1003.7936,-95.1064 1003.7936,-76.1064 867.7936,-76.1064"/>
<polygon fill="#ffffff" stroke="transparent" points="868.7936,-77.1064 868.7936,-94.1064 919.7936,-94.1064 919.7936,-77.1064 868.7936,-77.1064"/>
<text text-anchor="start" x="870.7936" y="-82.2064" font-family="Helvetica,sans-Serif" font-size="11.00" fill="#000000">&lt; 1</text>
<polygon fill="#ffffff" stroke="transparent" points="919.7936,-77.1064 919.7936,-94.1064 961.7936,-94.1064 961.7936,-77.1064 919.7936,-77.1064"/>
<text text-anchor="start" x="937.7367" y="-82.2064" font-family="Helvetica,sans-Serif" font-size="11.00" fill="#000000"> &#160;</text>
<polygon fill="#ffffff" stroke="transparent" points="961.7936,-77.1064 961.7936,-94.1064 1002.7936,-94.1064 1002.7936,-77.1064 961.7936,-77.1064"/>
<text text-anchor="start" x="994.6798" y="-82.2064" font-family="Helvetica,sans-Serif" font-size="11.00" fill="#000000"> &#160;</text>
<polygon fill="#000000" stroke="#000000" points="919.7936,-77.1064 919.7936,-94.1064 919.7936,-94.1064 919.7936,-77.1064 919.7936,-77.1064"/>
<polygon fill="#000000" stroke="#000000" points="961.7936,-77.1064 961.7936,-94.1064 961.7936,-94.1064 961.7936,-77.1064 961.7936,-77.1064"/>
</a>
</g>
</g>
<!-- voyage -->
<g id="node8" class="node">
<title>voyage</title>
<g id="a_node8"><a xlink:href="../../tables/voyage.html" xlink:title="voyage" target="_top">
<polygon fill="#ffffff" stroke="transparent" points="593.7936,-161.6064 593.7936,-244.6064 770.7936,-244.6064 770.7936,-161.6064 593.7936,-161.6064"/>
<polygon fill="#f5f5f5" stroke="transparent" points="594.2936,-221.1064 594.2936,-244.1064 771.2936,-244.1064 771.2936,-221.1064 594.2936,-221.1064"/>
<polygon fill="none" stroke="#000000" points="594.2936,-221.1064 594.2936,-244.1064 771.2936,-244.1064 771.2936,-221.1064 594.2936,-221.1064"/>
<text text-anchor="start" x="599.2936" y="-229.7064" font-family="Helvetica,sans-Serif" font-weight="bold" font-size="11.00" fill="#000000">voyage</text>
<text text-anchor="start" x="736.3373" y="-229.2064" font-family="Helvetica,sans-Serif" font-size="11.00" fill="#000000">[table]</text>
<polygon fill="none" stroke="#000000" points="594.2936,-199.1064 594.2936,-221.1064 771.2936,-221.1064 771.2936,-199.1064 594.2936,-199.1064"/>
<image xlink:href="../../images/primaryKeys.png" width="11px" height="12px" preserveAspectRatio="xMinYMin meet" x="599.294" y="-216.106"/>
<text text-anchor="start" x="614.2936" y="-206.2064" font-family="Helvetica,sans-Serif" font-size="11.00" fill="#000000">voyage_number</text>
<polygon fill="none" stroke="#000000" points="594.2936,-180.1064 594.2936,-199.1064 771.2936,-199.1064 771.2936,-180.1064 594.2936,-180.1064"/>
<text text-anchor="start" x="597.2936" y="-186.2064" font-family="Helvetica,sans-Serif" font-size="11.00" fill="#000000">...</text>
<polygon fill="#ffffff" stroke="transparent" points="594.2936,-161.1064 594.2936,-180.1064 771.2936,-180.1064 771.2936,-161.1064 594.2936,-161.1064"/>
<polygon fill="none" stroke="#000000" points="594.2936,-161.1064 594.2936,-180.1064 771.2936,-180.1064 771.2936,-161.1064 594.2936,-161.1064"/>
<polygon fill="#ffffff" stroke="transparent" points="595.2936,-162.1064 595.2936,-179.1064 651.2936,-179.1064 651.2936,-162.1064 595.2936,-162.1064"/>
<text text-anchor="start" x="597.2936" y="-167.2064" font-family="Helvetica,sans-Serif" font-size="11.00" fill="#000000"> &#160;</text>
<polygon fill="#ffffff" stroke="transparent" points="651.2936,-162.1064 651.2936,-179.1064 706.2936,-179.1064 706.2936,-162.1064 651.2936,-162.1064"/>
<text text-anchor="start" x="675.7367" y="-167.2064" font-family="Helvetica,sans-Serif" font-size="11.00" fill="#000000"> &#160;</text>
<polygon fill="#ffffff" stroke="transparent" points="706.2936,-162.1064 706.2936,-179.1064 770.2936,-179.1064 770.2936,-162.1064 706.2936,-162.1064"/>
<text text-anchor="start" x="752.6989" y="-167.2064" font-family="Helvetica,sans-Serif" font-size="11.00" fill="#000000">1 &gt;</text>
<polygon fill="#000000" stroke="#000000" points="651.2936,-162.1064 651.2936,-179.1064 651.2936,-179.1064 651.2936,-162.1064 651.2936,-162.1064"/>
<polygon fill="#000000" stroke="#000000" points="706.2936,-162.1064 706.2936,-179.1064 706.2936,-179.1064 706.2936,-162.1064 706.2936,-162.1064"/>
</a>
</g>
</g>
<!-- port_call&#45;&gt;voyage -->
<g id="edge8" class="edge">
<title>port_call:w&#45;&gt;voyage:e</title>
<path fill="none" stroke="#000000" d="M853.3607,-149.0609C817.1909,-159.6946 817.1112,-210.1064 771.2936,-210.1064"/>
<polygon fill="#000000" stroke="#000000" points="859.866,-148.18 868.2767,-150.6738 863.8298,-147.6432 867.7936,-147.1064 867.7936,-147.1064 867.7936,-147.1064 863.8298,-147.6432 867.3105,-143.5389 859.866,-148.18 859.866,-148.18"/>
<ellipse fill="none" stroke="#000000" cx="856.6949" cy="-148.6094" rx="3.2" ry="3.2"/>
</g>
<!-- connection_rule -->
<g id="node3" class="node">
<title>connection_rule</title>
<g id="a_node3"><a xlink:href="../../tables/connection_rule.html" xlink:title="connection_rule" target="_top">
<polygon fill="#ffffff" stroke="transparent" points="66.2936,-908.6064 66.2936,-991.6064 267.2936,-991.6064 267.2936,-908.6064 66.2936,-908.6064"/>
<polygon fill="#f5f5f5" stroke="transparent" points="66.7936,-968.1064 66.7936,-991.1064 267.7936,-991.1064 267.7936,-968.1064 66.7936,-968.1064"/>
<polygon fill="none" stroke="#000000" points="66.7936,-968.1064 66.7936,-991.1064 267.7936,-991.1064 267.7936,-968.1064 66.7936,-968.1064"/>
<text text-anchor="start" x="71.7936" y="-976.7064" font-family="Helvetica,sans-Serif" font-weight="bold" font-size="11.00" fill="#000000">connection_rule</text>
<text text-anchor="start" x="232.8373" y="-976.2064" font-family="Helvetica,sans-Serif" font-size="11.00" fill="#000000">[table]</text>
<polygon fill="none" stroke="#000000" points="66.7936,-946.1064 66.7936,-968.1064 267.7936,-968.1064 267.7936,-946.1064 66.7936,-946.1064"/>
<image xlink:href="../../images/primaryKeys.png" width="11px" height="12px" preserveAspectRatio="xMinYMin meet" x="71.7936" y="-963.106"/>
<text text-anchor="start" x="86.7936" y="-953.2064" font-family="Helvetica,sans-Serif" font-size="11.00" fill="#000000">id</text>
<polygon fill="none" stroke="#000000" points="66.7936,-927.1064 66.7936,-946.1064 267.7936,-946.1064 267.7936,-927.1064 66.7936,-927.1064"/>
<text text-anchor="start" x="69.7936" y="-933.2064" font-family="Helvetica,sans-Serif" font-size="11.00" fill="#000000">...</text>
<polygon fill="#ffffff" stroke="transparent" points="66.7936,-908.1064 66.7936,-927.1064 267.7936,-927.1064 267.7936,-908.1064 66.7936,-908.1064"/>
<polygon fill="none" stroke="#000000" points="66.7936,-908.1064 66.7936,-927.1064 267.7936,-927.1064 267.7936,-908.1064 66.7936,-908.1064"/>
<polygon fill="#ffffff" stroke="transparent" points="67.7936,-909.1064 67.7936,-926.1064 134.7936,-926.1064 134.7936,-909.1064 67.7936,-909.1064"/>
<text text-anchor="start" x="69.7936" y="-914.2064" font-family="Helvetica,sans-Serif" font-size="11.00" fill="#000000"> &#160;</text>
<polygon fill="#ffffff" stroke="transparent" points="134.7936,-909.1064 134.7936,-926.1064 200.7936,-926.1064 200.7936,-909.1064 134.7936,-909.1064"/>
<text text-anchor="start" x="164.7367" y="-914.2064" font-family="Helvetica,sans-Serif" font-size="11.00" fill="#000000"> &#160;</text>
<polygon fill="#ffffff" stroke="transparent" points="200.7936,-909.1064 200.7936,-926.1064 266.7936,-926.1064 266.7936,-909.1064 200.7936,-909.1064"/>
<text text-anchor="start" x="258.6798" y="-914.2064" font-family="Helvetica,sans-Serif" font-size="11.00" fill="#000000"> &#160;</text>
<polygon fill="#000000" stroke="#000000" points="134.7936,-909.1064 134.7936,-926.1064 134.7936,-926.1064 134.7936,-909.1064 134.7936,-909.1064"/>
<polygon fill="#000000" stroke="#000000" points="200.7936,-909.1064 200.7936,-926.1064 200.7936,-926.1064 200.7936,-909.1064 200.7936,-909.1064"/>
</a>
</g>
</g>
<!-- route_version -->
<g id="node4" class="node">
<title>route_version</title>
<g id="a_node4"><a xlink:href="../../tables/route_version.html" xlink:title="route_version" target="_top">
<polygon fill="#ffffff" stroke="transparent" points="309.2936,-287.6064 309.2936,-414.6064 511.2936,-414.6064 511.2936,-287.6064 309.2936,-287.6064"/>
<polygon fill="#f5f5f5" stroke="transparent" points="309.2936,-391.1064 309.2936,-414.1064 511.2936,-414.1064 511.2936,-391.1064 309.2936,-391.1064"/>
<polygon fill="none" stroke="#000000" points="309.2936,-391.1064 309.2936,-414.1064 511.2936,-414.1064 511.2936,-391.1064 309.2936,-391.1064"/>
<text text-anchor="start" x="314.2936" y="-399.7064" font-family="Helvetica,sans-Serif" font-weight="bold" font-size="11.00" fill="#000000">route_version</text>
<text text-anchor="start" x="476.3373" y="-399.2064" font-family="Helvetica,sans-Serif" font-size="11.00" fill="#000000">[table]</text>
<polygon fill="none" stroke="#000000" points="309.2936,-369.1064 309.2936,-391.1064 511.2936,-391.1064 511.2936,-369.1064 309.2936,-369.1064"/>
<image xlink:href="../../images/primaryKeys.png" width="11px" height="12px" preserveAspectRatio="xMinYMin meet" x="314.294" y="-386.106"/>
<text text-anchor="start" x="329.2936" y="-376.2064" font-family="Helvetica,sans-Serif" font-size="11.00" fill="#000000">routing_case_id</text>
<polygon fill="none" stroke="#000000" points="309.2936,-347.1064 309.2936,-369.1064 511.2936,-369.1064 511.2936,-347.1064 309.2936,-347.1064"/>
<image xlink:href="../../images/primaryKeys.png" width="11px" height="12px" preserveAspectRatio="xMinYMin meet" x="314.294" y="-364.106"/>
<text text-anchor="start" x="329.2936" y="-354.2064" font-family="Helvetica,sans-Serif" font-size="11.00" fill="#000000">route_version_no</text>
<polygon fill="none" stroke="#000000" points="309.2936,-325.1064 309.2936,-347.1064 511.2936,-347.1064 511.2936,-325.1064 309.2936,-325.1064"/>
<image xlink:href="../../images/foreignKeys.png" width="11px" height="12px" preserveAspectRatio="xMinYMin meet" x="314.294" y="-342.106"/>
<text text-anchor="start" x="329.2936" y="-332.2064" font-family="Helvetica,sans-Serif" font-size="11.00" fill="#000000">selected_candidate_no</text>
<polygon fill="none" stroke="#000000" points="309.2936,-306.1064 309.2936,-325.1064 511.2936,-325.1064 511.2936,-306.1064 309.2936,-306.1064"/>
<text text-anchor="start" x="312.2936" y="-312.2064" font-family="Helvetica,sans-Serif" font-size="11.00" fill="#000000">...</text>
<polygon fill="#ffffff" stroke="transparent" points="309.2936,-287.1064 309.2936,-306.1064 511.2936,-306.1064 511.2936,-287.1064 309.2936,-287.1064"/>
<polygon fill="none" stroke="#000000" points="309.2936,-287.1064 309.2936,-306.1064 511.2936,-306.1064 511.2936,-287.1064 309.2936,-287.1064"/>
<polygon fill="#ffffff" stroke="transparent" points="310.2936,-288.1064 310.2936,-305.1064 380.2936,-305.1064 380.2936,-288.1064 310.2936,-288.1064"/>
<text text-anchor="start" x="312.2936" y="-293.2064" font-family="Helvetica,sans-Serif" font-size="11.00" fill="#000000">&lt; 4</text>
<polygon fill="#ffffff" stroke="transparent" points="380.2936,-288.1064 380.2936,-305.1064 441.2936,-305.1064 441.2936,-288.1064 380.2936,-288.1064"/>
<text text-anchor="start" x="407.7367" y="-293.2064" font-family="Helvetica,sans-Serif" font-size="11.00" fill="#000000"> &#160;</text>
<polygon fill="#ffffff" stroke="transparent" points="441.2936,-288.1064 441.2936,-305.1064 510.2936,-305.1064 510.2936,-288.1064 441.2936,-288.1064"/>
<text text-anchor="start" x="492.6989" y="-293.2064" font-family="Helvetica,sans-Serif" font-size="11.00" fill="#000000">4 &gt;</text>
<polygon fill="#000000" stroke="#000000" points="380.2936,-288.1064 380.2936,-305.1064 380.2936,-305.1064 380.2936,-288.1064 380.2936,-288.1064"/>
<polygon fill="#000000" stroke="#000000" points="441.2936,-288.1064 441.2936,-305.1064 441.2936,-305.1064 441.2936,-288.1064 441.2936,-288.1064"/>
</a>
</g>
</g>
<!-- routing_case -->
<g id="node5" class="node">
<title>routing_case</title>
<g id="a_node5"><a xlink:href="../../tables/routing_case.html" xlink:title="routing_case" target="_top">
<polygon fill="#ffffff" stroke="transparent" points="22.2936,-221.6064 22.2936,-414.6064 260.2936,-414.6064 260.2936,-221.6064 22.2936,-221.6064"/>
<polygon fill="#f5f5f5" stroke="transparent" points="22.2936,-391.1064 22.2936,-414.1064 260.2936,-414.1064 260.2936,-391.1064 22.2936,-391.1064"/>
<polygon fill="none" stroke="#000000" points="22.2936,-391.1064 22.2936,-414.1064 260.2936,-414.1064 260.2936,-391.1064 22.2936,-391.1064"/>
<text text-anchor="start" x="27.2936" y="-399.7064" font-family="Helvetica,sans-Serif" font-weight="bold" font-size="11.00" fill="#000000">routing_case</text>
<text text-anchor="start" x="225.3373" y="-399.2064" font-family="Helvetica,sans-Serif" font-size="11.00" fill="#000000">[table]</text>
<polygon fill="none" stroke="#000000" points="22.2936,-369.1064 22.2936,-391.1064 260.2936,-391.1064 260.2936,-369.1064 22.2936,-369.1064"/>
<image xlink:href="../../images/primaryKeys.png" width="11px" height="12px" preserveAspectRatio="xMinYMin meet" x="27.2936" y="-386.106"/>
<text text-anchor="start" x="42.2936" y="-376.2064" font-family="Helvetica,sans-Serif" font-size="11.00" fill="#000000">id</text>
<polygon fill="#ffffff" stroke="transparent" points="22.2936,-347.1064 22.2936,-369.1064 260.2936,-369.1064 260.2936,-347.1064 22.2936,-347.1064"/>
<polygon fill="none" stroke="#000000" points="22.2936,-347.1064 22.2936,-369.1064 260.2936,-369.1064 260.2936,-347.1064 22.2936,-347.1064"/>
<text text-anchor="start" x="42.2936" y="-354.2064" font-family="Helvetica,sans-Serif" font-size="11.00" fill="#000000">case_number</text>
<polygon fill="#ffffff" stroke="transparent" points="22.2936,-325.1064 22.2936,-347.1064 260.2936,-347.1064 260.2936,-325.1064 22.2936,-325.1064"/>
<polygon fill="none" stroke="#000000" points="22.2936,-325.1064 22.2936,-347.1064 260.2936,-347.1064 260.2936,-325.1064 22.2936,-325.1064"/>
<text text-anchor="start" x="42.2936" y="-332.2064" font-family="Helvetica,sans-Serif" font-size="11.00" fill="#000000">transport_request_id</text>
<polygon fill="#ffffff" stroke="transparent" points="22.2936,-303.1064 22.2936,-325.1064 260.2936,-325.1064 260.2936,-303.1064 22.2936,-303.1064"/>
<polygon fill="none" stroke="#000000" points="22.2936,-303.1064 22.2936,-325.1064 260.2936,-325.1064 260.2936,-303.1064 22.2936,-303.1064"/>
<text text-anchor="start" x="42.2936" y="-310.2064" font-family="Helvetica,sans-Serif" font-size="11.00" fill="#000000">transport_request_version_no</text>
<polygon fill="#ffffff" stroke="transparent" points="22.2936,-281.1064 22.2936,-303.1064 260.2936,-303.1064 260.2936,-281.1064 22.2936,-281.1064"/>
<polygon fill="none" stroke="#000000" points="22.2936,-281.1064 22.2936,-303.1064 260.2936,-303.1064 260.2936,-281.1064 22.2936,-281.1064"/>
<text text-anchor="start" x="42.2936" y="-288.2064" font-family="Helvetica,sans-Serif" font-size="11.00" fill="#000000">requested_at</text>
<polygon fill="none" stroke="#000000" points="22.2936,-259.1064 22.2936,-281.1064 260.2936,-281.1064 260.2936,-259.1064 22.2936,-259.1064"/>
<image xlink:href="../../images/foreignKeys.png" width="11px" height="12px" preserveAspectRatio="xMinYMin meet" x="27.2936" y="-276.106"/>
<text text-anchor="start" x="42.2936" y="-266.2064" font-family="Helvetica,sans-Serif" font-size="11.00" fill="#000000">confirmed_route_version_no</text>
<polygon fill="none" stroke="#000000" points="22.2936,-240.1064 22.2936,-259.1064 260.2936,-259.1064 260.2936,-240.1064 22.2936,-240.1064"/>
<text text-anchor="start" x="25.2936" y="-246.2064" font-family="Helvetica,sans-Serif" font-size="11.00" fill="#000000">...</text>
<polygon fill="#ffffff" stroke="transparent" points="22.2936,-221.1064 22.2936,-240.1064 260.2936,-240.1064 260.2936,-221.1064 22.2936,-221.1064"/>
<polygon fill="none" stroke="#000000" points="22.2936,-221.1064 22.2936,-240.1064 260.2936,-240.1064 260.2936,-221.1064 22.2936,-221.1064"/>
<polygon fill="#ffffff" stroke="transparent" points="23.2936,-222.1064 23.2936,-239.1064 105.2936,-239.1064 105.2936,-222.1064 23.2936,-222.1064"/>
<text text-anchor="start" x="25.2936" y="-227.2064" font-family="Helvetica,sans-Serif" font-size="11.00" fill="#000000">&lt; 2</text>
<polygon fill="#ffffff" stroke="transparent" points="105.2936,-222.1064 105.2936,-239.1064 178.2936,-239.1064 178.2936,-222.1064 105.2936,-222.1064"/>
<text text-anchor="start" x="138.7367" y="-227.2064" font-family="Helvetica,sans-Serif" font-size="11.00" fill="#000000"> &#160;</text>
<polygon fill="#ffffff" stroke="transparent" points="178.2936,-222.1064 178.2936,-239.1064 259.2936,-239.1064 259.2936,-222.1064 178.2936,-222.1064"/>
<text text-anchor="start" x="241.6989" y="-227.2064" font-family="Helvetica,sans-Serif" font-size="11.00" fill="#000000">1 &gt;</text>
<polygon fill="#000000" stroke="#000000" points="105.2936,-222.1064 105.2936,-239.1064 105.2936,-239.1064 105.2936,-222.1064 105.2936,-222.1064"/>
<polygon fill="#000000" stroke="#000000" points="178.2936,-222.1064 178.2936,-239.1064 178.2936,-239.1064 178.2936,-222.1064 178.2936,-222.1064"/>
</a>
</g>
</g>
<!-- route_version&#45;&gt;routing_case -->
<g id="edge13" class="edge">
<title>route_version:w&#45;&gt;routing_case:e</title>
<path fill="none" stroke="#000000" d="M294.7845,-380.1064C283.471,-380.1064 276.2867,-380.1064 260.2936,-380.1064"/>
<polygon fill="#000000" stroke="#000000" points="301.2936,-380.1064 309.2936,-383.7064 305.2936,-380.1064 309.2936,-380.1064 309.2936,-380.1064 309.2936,-380.1064 305.2936,-380.1064 309.2936,-376.5064 301.2936,-380.1064 301.2936,-380.1064"/>
<ellipse fill="none" stroke="#000000" cx="298.0936" cy="-380.1064" rx="3.2" ry="3.2"/>
</g>
<!-- route_version&#45;&gt;route_candidate -->
<g id="edge11" class="edge">
<title>route_version:w&#45;&gt;route_candidate:e</title>
<path fill="none" stroke="#000000" d="M295.8122,-364.1197C286.7082,-376.3187 294.7365,-404.0493 309.2936,-418.6064 464.8571,-574.1699 648.7301,-574.1699 804.2936,-418.6064 823.3069,-399.593 831.1825,-358.1064 804.2936,-358.1064"/>
<polygon fill="#000000" stroke="#000000" points="301.9874,-361.3653 310.7601,-361.3941 305.6405,-359.7358 309.2936,-358.1064 309.2936,-358.1064 309.2936,-358.1064 305.6405,-359.7358 307.8271,-354.8186 301.9874,-361.3653 301.9874,-361.3653"/>
<ellipse fill="none" stroke="#000000" cx="299.065" cy="-362.6688" rx="3.2" ry="3.2"/>
</g>
<!-- route_version&#45;&gt;route_candidate -->
<g id="edge12" class="edge">
<title>route_version:w&#45;&gt;route_candidate:e</title>
<path fill="none" stroke="#000000" d="M304.7189,-393.8256C303.5673,-468.5995 413.3624,-809.5376 804.2936,-418.6064 816.393,-406.507 821.4047,-380.1064 804.2936,-380.1064"/>
<polygon fill="#000000" stroke="#000000" points="306.763,-387.6956 312.7087,-381.2451 308.0283,-383.901 309.2936,-380.1064 309.2936,-380.1064 309.2936,-380.1064 308.0283,-383.901 305.8785,-378.9676 306.763,-387.6956 306.763,-387.6956"/>
<ellipse fill="none" stroke="#000000" cx="305.7507" cy="-390.7313" rx="3.2" ry="3.2"/>
</g>
<!-- route_version&#45;&gt;route_candidate -->
<g id="edge14" class="edge">
<title>route_version:w&#45;&gt;route_candidate:e</title>
<path fill="none" stroke="#000000" d="M296.5005,-329.1659C290.4203,-317.8765 297.3059,-295.594 309.2936,-283.6064 348.1845,-244.7155 765.4027,-244.7155 804.2936,-283.6064 820.7928,-300.1055 827.6269,-336.1064 804.2936,-336.1064"/>
<polygon fill="#000000" stroke="#000000" points="302.2617,-332.2915 307.5769,-339.2707 305.7777,-334.1989 309.2936,-336.1064 309.2936,-336.1064 309.2936,-336.1064 305.7777,-334.1989 311.0103,-332.942 302.2617,-332.2915 302.2617,-332.2915"/>
<ellipse fill="none" stroke="#000000" cx="299.449" cy="-330.7655" rx="3.2" ry="3.2"/>
</g>
<!-- routing_case&#45;&gt;route_version -->
<g id="edge15" class="edge">
<title>routing_case:w&#45;&gt;route_version:e</title>
<path fill="none" stroke="#000000" d="M12.8544,-258.9148C0,-211.0544 52.3203,-34.2 268.2936,-217.6064 337.2984,-276.2058 232.2888,-360.0069 301.2936,-418.6064 301.2936,-418.6064 511.2936,-358.1064 511.2936,-358.1064"/>
<polygon fill="#000000" stroke="#000000" points="17.1358,-263.991 19.5417,-272.4274 19.7147,-267.0487 22.2936,-270.1064 22.2936,-270.1064 22.2936,-270.1064 19.7147,-267.0487 25.0455,-267.7853 17.1358,-263.991 17.1358,-263.991"/>
<ellipse fill="none" stroke="#000000" cx="15.0726" cy="-261.5449" rx="3.2" ry="3.2"/>
</g>
<!-- routing_case&#45;&gt;route_version -->
<g id="edge16" class="edge">
<title>routing_case:w&#45;&gt;route_version:e</title>
<path fill="none" stroke="#000000" d="M18.0232,-389.9625C13.6224,-454.9663 122.2316,-807.6684 511.2936,-418.6064 523.393,-406.507 528.4047,-380.1064 511.2936,-380.1064"/>
<polygon fill="#000000" stroke="#000000" points="18.3052,-379.2502 25.6459,-382.4307 25.0098,-383.8988 17.6691,-380.7183 18.3052,-379.2502"/>
<polyline fill="none" stroke="#000000" points="22.2936,-380.1064 20.7033,-383.7767 "/>
<ellipse fill="none" stroke="#000000" cx="19.4312" cy="-386.7129" rx="3.2" ry="3.2"/>
</g>
<!-- routing_case_number_counter -->
<g id="node6" class="node">
<title>routing_case_number_counter</title>
<g id="a_node6"><a xlink:href="../../tables/routing_case_number_counter.html" xlink:title="routing_case_number_counter" target="_top">
<polygon fill="#ffffff" stroke="transparent" points="356.2936,-908.6064 356.2936,-991.6064 614.2936,-991.6064 614.2936,-908.6064 356.2936,-908.6064"/>
<polygon fill="#f5f5f5" stroke="transparent" points="356.2936,-968.1064 356.2936,-991.1064 614.2936,-991.1064 614.2936,-968.1064 356.2936,-968.1064"/>
<polygon fill="none" stroke="#000000" points="356.2936,-968.1064 356.2936,-991.1064 614.2936,-991.1064 614.2936,-968.1064 356.2936,-968.1064"/>
<text text-anchor="start" x="361.2936" y="-976.7064" font-family="Helvetica,sans-Serif" font-weight="bold" font-size="11.00" fill="#000000">routing_case_number_counter</text>
<text text-anchor="start" x="579.8154" y="-976.2064" font-family="Helvetica,sans-Serif" font-size="11.00" fill="#000000">[table]</text>
<polygon fill="none" stroke="#000000" points="356.2936,-946.1064 356.2936,-968.1064 614.2936,-968.1064 614.2936,-946.1064 356.2936,-946.1064"/>
<image xlink:href="../../images/primaryKeys.png" width="11px" height="12px" preserveAspectRatio="xMinYMin meet" x="361.294" y="-963.106"/>
<text text-anchor="start" x="385.2936" y="-953.2064" font-family="Helvetica,sans-Serif" font-size="11.00" fill="#000000">number_year</text>
<polygon fill="none" stroke="#000000" points="356.2936,-927.1064 356.2936,-946.1064 614.2936,-946.1064 614.2936,-927.1064 356.2936,-927.1064"/>
<text text-anchor="start" x="359.2936" y="-933.2064" font-family="Helvetica,sans-Serif" font-size="11.00" fill="#000000">...</text>
<polygon fill="#ffffff" stroke="transparent" points="356.2936,-908.1064 356.2936,-927.1064 614.2936,-927.1064 614.2936,-908.1064 356.2936,-908.1064"/>
<polygon fill="none" stroke="#000000" points="356.2936,-908.1064 356.2936,-927.1064 614.2936,-927.1064 614.2936,-908.1064 356.2936,-908.1064"/>
<polygon fill="#ffffff" stroke="transparent" points="357.2936,-909.1064 357.2936,-926.1064 443.2936,-926.1064 443.2936,-909.1064 357.2936,-909.1064"/>
<text text-anchor="start" x="359.2936" y="-914.2064" font-family="Helvetica,sans-Serif" font-size="11.00" fill="#000000"> &#160;</text>
<polygon fill="#ffffff" stroke="transparent" points="443.2936,-909.1064 443.2936,-926.1064 528.2936,-926.1064 528.2936,-909.1064 443.2936,-909.1064"/>
<text text-anchor="start" x="482.7367" y="-914.2064" font-family="Helvetica,sans-Serif" font-size="11.00" fill="#000000"> &#160;</text>
<polygon fill="#ffffff" stroke="transparent" points="528.2936,-909.1064 528.2936,-926.1064 613.2936,-926.1064 613.2936,-909.1064 528.2936,-909.1064"/>
<text text-anchor="start" x="605.1798" y="-914.2064" font-family="Helvetica,sans-Serif" font-size="11.00" fill="#000000"> &#160;</text>
<polygon fill="#000000" stroke="#000000" points="443.2936,-909.1064 443.2936,-926.1064 443.2936,-926.1064 443.2936,-909.1064 443.2936,-909.1064"/>
<polygon fill="#000000" stroke="#000000" points="528.2936,-909.1064 528.2936,-926.1064 528.2936,-926.1064 528.2936,-909.1064 528.2936,-909.1064"/>
</a>
</g>
</g>
<!-- candidate_leg -->
<g id="node7" class="node">
<title>candidate_leg</title>
<g id="a_node7"><a xlink:href="../../tables/candidate_leg.html" xlink:title="candidate_leg" target="_top">
<polygon fill="#ffffff" stroke="transparent" points="853.2936,-202.6064 853.2936,-373.6064 1018.2936,-373.6064 1018.2936,-202.6064 853.2936,-202.6064"/>
<polygon fill="#f5f5f5" stroke="transparent" points="853.7936,-350.1064 853.7936,-373.1064 1018.7936,-373.1064 1018.7936,-350.1064 853.7936,-350.1064"/>
<polygon fill="none" stroke="#000000" points="853.7936,-350.1064 853.7936,-373.1064 1018.7936,-373.1064 1018.7936,-350.1064 853.7936,-350.1064"/>
<text text-anchor="start" x="858.7936" y="-358.7064" font-family="Helvetica,sans-Serif" font-weight="bold" font-size="11.00" fill="#000000">candidate_leg</text>
<text text-anchor="start" x="983.8373" y="-358.2064" font-family="Helvetica,sans-Serif" font-size="11.00" fill="#000000">[table]</text>
<polygon fill="none" stroke="#000000" points="853.7936,-328.1064 853.7936,-350.1064 1018.7936,-350.1064 1018.7936,-328.1064 853.7936,-328.1064"/>
<image xlink:href="../../images/primaryKeys.png" width="11px" height="12px" preserveAspectRatio="xMinYMin meet" x="858.794" y="-345.106"/>
<text text-anchor="start" x="873.7936" y="-335.2064" font-family="Helvetica,sans-Serif" font-size="11.00" fill="#000000">routing_case_id</text>
<polygon fill="none" stroke="#000000" points="853.7936,-306.1064 853.7936,-328.1064 1018.7936,-328.1064 1018.7936,-306.1064 853.7936,-306.1064"/>
<image xlink:href="../../images/primaryKeys.png" width="11px" height="12px" preserveAspectRatio="xMinYMin meet" x="858.794" y="-323.106"/>
<text text-anchor="start" x="873.7936" y="-313.2064" font-family="Helvetica,sans-Serif" font-size="11.00" fill="#000000">route_version_no</text>
<polygon fill="none" stroke="#000000" points="853.7936,-284.1064 853.7936,-306.1064 1018.7936,-306.1064 1018.7936,-284.1064 853.7936,-284.1064"/>
<image xlink:href="../../images/primaryKeys.png" width="11px" height="12px" preserveAspectRatio="xMinYMin meet" x="858.794" y="-301.106"/>
<text text-anchor="start" x="873.7936" y="-291.2064" font-family="Helvetica,sans-Serif" font-size="11.00" fill="#000000">candidate_no</text>
<polygon fill="none" stroke="#000000" points="853.7936,-262.1064 853.7936,-284.1064 1018.7936,-284.1064 1018.7936,-262.1064 853.7936,-262.1064"/>
<image xlink:href="../../images/primaryKeys.png" width="11px" height="12px" preserveAspectRatio="xMinYMin meet" x="858.794" y="-279.106"/>
<text text-anchor="start" x="873.7936" y="-269.2064" font-family="Helvetica,sans-Serif" font-size="11.00" fill="#000000">leg_no</text>
<polygon fill="none" stroke="#000000" points="853.7936,-240.1064 853.7936,-262.1064 1018.7936,-262.1064 1018.7936,-240.1064 853.7936,-240.1064"/>
<image xlink:href="../../images/foreignKeys.png" width="11px" height="12px" preserveAspectRatio="xMinYMin meet" x="858.794" y="-257.106"/>
<text text-anchor="start" x="873.7936" y="-247.2064" font-family="Helvetica,sans-Serif" font-size="11.00" fill="#000000">voyage_number</text>
<polygon fill="none" stroke="#000000" points="853.7936,-221.1064 853.7936,-240.1064 1018.7936,-240.1064 1018.7936,-221.1064 853.7936,-221.1064"/>
<text text-anchor="start" x="856.7936" y="-227.2064" font-family="Helvetica,sans-Serif" font-size="11.00" fill="#000000">...</text>
<polygon fill="#ffffff" stroke="transparent" points="853.7936,-202.1064 853.7936,-221.1064 1018.7936,-221.1064 1018.7936,-202.1064 853.7936,-202.1064"/>
<polygon fill="none" stroke="#000000" points="853.7936,-202.1064 853.7936,-221.1064 1018.7936,-221.1064 1018.7936,-202.1064 853.7936,-202.1064"/>
<polygon fill="#ffffff" stroke="transparent" points="854.7936,-203.1064 854.7936,-220.1064 915.7936,-220.1064 915.7936,-203.1064 854.7936,-203.1064"/>
<text text-anchor="start" x="856.7936" y="-208.2064" font-family="Helvetica,sans-Serif" font-size="11.00" fill="#000000">&lt; 3</text>
<polygon fill="#ffffff" stroke="transparent" points="915.7936,-203.1064 915.7936,-220.1064 966.7936,-220.1064 966.7936,-203.1064 915.7936,-203.1064"/>
<text text-anchor="start" x="938.2367" y="-208.2064" font-family="Helvetica,sans-Serif" font-size="11.00" fill="#000000"> &#160;</text>
<polygon fill="#ffffff" stroke="transparent" points="966.7936,-203.1064 966.7936,-220.1064 1017.7936,-220.1064 1017.7936,-203.1064 966.7936,-203.1064"/>
<text text-anchor="start" x="1009.6798" y="-208.2064" font-family="Helvetica,sans-Serif" font-size="11.00" fill="#000000"> &#160;</text>
<polygon fill="#000000" stroke="#000000" points="915.7936,-203.1064 915.7936,-220.1064 915.7936,-220.1064 915.7936,-203.1064 915.7936,-203.1064"/>
<polygon fill="#000000" stroke="#000000" points="966.7936,-203.1064 966.7936,-220.1064 966.7936,-220.1064 966.7936,-203.1064 966.7936,-203.1064"/>
</a>
</g>
</g>
<!-- candidate_leg&#45;&gt;voyage -->
<g id="edge4" class="edge">
<title>candidate_leg:w&#45;&gt;voyage:e</title>
<path fill="none" stroke="#000000" stroke-dasharray="5,2" d="M839.425,-249.1288C811.9751,-240.9389 806.8006,-210.1064 771.2936,-210.1064"/>
<polygon fill="#000000" stroke="#000000" points="845.8683,-250.0156 853.3027,-254.6727 849.8309,-250.561 853.7936,-251.1064 853.7936,-251.1064 853.7936,-251.1064 849.8309,-250.561 854.2845,-247.54 845.8683,-250.0156 845.8683,-250.0156"/>
<ellipse fill="none" stroke="#000000" cx="842.6982" cy="-249.5793" rx="3.2" ry="3.2"/>
</g>
<!-- candidate_leg&#45;&gt;route_candidate -->
<g id="edge1" class="edge">
<title>candidate_leg:w&#45;&gt;route_candidate:e</title>
<path fill="none" stroke="#000000" d="M839.8689,-299.8096C826.8366,-310.579 826.8344,-336.1064 804.2936,-336.1064"/>
<polygon fill="#000000" stroke="#000000" points="846.2143,-297.6664 854.9456,-298.5171 850.0039,-296.3864 853.7936,-295.1064 853.7936,-295.1064 853.7936,-295.1064 850.0039,-296.3864 852.6416,-291.6957 846.2143,-297.6664 846.2143,-297.6664"/>
<ellipse fill="none" stroke="#000000" cx="843.1825" cy="-298.6904" rx="3.2" ry="3.2"/>
</g>
<!-- candidate_leg&#45;&gt;route_candidate -->
<g id="edge2" class="edge">
<title>candidate_leg:w&#45;&gt;route_candidate:e</title>
<path fill="none" stroke="#000000" d="M839.8689,-321.8096C826.8366,-332.579 826.8344,-358.1064 804.2936,-358.1064"/>
<polygon fill="#000000" stroke="#000000" points="846.2143,-319.6664 854.9456,-320.5171 850.0039,-318.3864 853.7936,-317.1064 853.7936,-317.1064 853.7936,-317.1064 850.0039,-318.3864 852.6416,-313.6957 846.2143,-319.6664 846.2143,-319.6664"/>
<ellipse fill="none" stroke="#000000" cx="843.1825" cy="-320.6904" rx="3.2" ry="3.2"/>
</g>
<!-- candidate_leg&#45;&gt;route_candidate -->
<g id="edge3" class="edge">
<title>candidate_leg:w&#45;&gt;route_candidate:e</title>
<path fill="none" stroke="#000000" d="M839.8689,-343.8096C826.8366,-354.579 826.8344,-380.1064 804.2936,-380.1064"/>
<polygon fill="#000000" stroke="#000000" points="846.2143,-341.6664 854.9456,-342.5171 850.0039,-340.3864 853.7936,-339.1064 853.7936,-339.1064 853.7936,-339.1064 850.0039,-340.3864 852.6416,-335.6957 846.2143,-341.6664 846.2143,-341.6664"/>
<ellipse fill="none" stroke="#000000" cx="843.1825" cy="-342.6904" rx="3.2" ry="3.2"/>
</g>
<!-- route_candidate&#45;&gt;route_version -->
<g id="edge9" class="edge">
<title>route_candidate:w&#45;&gt;route_version:e</title>
<path fill="none" stroke="#000000" d="M545.7845,-358.1064C534.471,-358.1064 527.2867,-358.1064 511.2936,-358.1064"/>
<polygon fill="#000000" stroke="#000000" points="552.2936,-358.1064 560.2936,-361.7064 556.2936,-358.1064 560.2936,-358.1064 560.2936,-358.1064 560.2936,-358.1064 556.2936,-358.1064 560.2936,-354.5064 552.2936,-358.1064 552.2936,-358.1064"/>
<ellipse fill="none" stroke="#000000" cx="549.0936" cy="-358.1064" rx="3.2" ry="3.2"/>
</g>
<!-- route_candidate&#45;&gt;route_version -->
<g id="edge10" class="edge">
<title>route_candidate:w&#45;&gt;route_version:e</title>
<path fill="none" stroke="#000000" d="M545.7845,-380.1064C534.471,-380.1064 527.2867,-380.1064 511.2936,-380.1064"/>
<polygon fill="#000000" stroke="#000000" points="552.2936,-380.1064 560.2936,-383.7064 556.2936,-380.1064 560.2936,-380.1064 560.2936,-380.1064 560.2936,-380.1064 556.2936,-380.1064 560.2936,-376.5064 552.2936,-380.1064 552.2936,-380.1064"/>
<ellipse fill="none" stroke="#000000" cx="549.0936" cy="-380.1064" rx="3.2" ry="3.2"/>
</g>
</g>
</svg>
